<svg width="246" height="28" viewBox="0 0 246 28" fill="none" xmlns="http://www.w3.org/2000/svg">
    <path
        d="M11.75 5.5C11.05 5.5 10.5 4.95 10.5 4.25C10.5 3.55 11.05 3 11.75 3C12.45 3 13 3.55 13 4.25C13 4.95 12.45 5.5 11.75 5.5ZM9.25 5.5C8.55 5.5 8 4.95 8 4.25C8 3.55 8.55 3 9.25 3C9.95 3 10.5 3.55 10.5 4.25C10.5 4.95 9.95 5.5 9.25 5.5ZM14.25 5.5C13.55 5.5 13 4.95 13 4.25C13 3.55 13.55 3 14.25 3C14.95 3 15.5 3.55 15.5 4.25C15.5 4.95 14.95 5.5 14.25 5.5ZM16.75 5.5C16.05 5.5 15.5 4.95 15.5 4.25C15.5 3.55 16.05 3 16.75 3C17.45 3 18 3.55 18 4.25C18 4.95 17.45 5.5 16.75 5.5ZM6.75 5.5C6.05 5.5 5.5 4.95 5.5 4.25C5.5 3.55 6.05 3 6.75 3C7.45 3 8 3.55 8 4.25C8 4.95 7.45 5.5 6.75 5.5ZM11.75 8C11.05 8 10.5 7.45 10.5 6.75C10.5 6.05 11.05 5.5 11.75 5.5C12.45 5.5 13 6.05 13 6.75C13 7.45 12.45 8 11.75 8ZM4.25 8C3.55 8 3 7.45 3 6.75C3 6.05 3.55 5.5 4.25 5.5C4.95 5.5 5.5 6.05 5.5 6.75C5.5 7.45 4.95 8 4.25 8ZM9.25 8C8.55 8 8 7.45 8 6.75C8 6.05 8.55 5.5 9.25 5.5C9.95 5.5 10.5 6.05 10.5 6.75C10.5 7.45 9.95 8 9.25 8ZM19.25 8C18.55 8 18 7.45 18 6.75C18 6.05 18.55 5.5 19.25 5.5C19.95 5.5 20.5 6.05 20.5 6.75C20.5 7.45 19.95 8 19.25 8ZM16.75 8C16.05 8 15.5 7.45 15.5 6.75C15.5 6.05 16.05 5.5 16.75 5.5C17.45 5.5 18 6.05 18 6.75C18 7.45 17.45 8 16.75 8ZM14.25 8C13.55 8 13 7.45 13 6.75C13 6.05 13.55 5.5 14.25 5.5C14.95 5.5 15.5 6.05 15.5 6.75C15.5 7.45 14.95 8 14.25 8ZM6.75 8C6.05 8 5.5 7.45 5.5 6.75C5.5 6.05 6.05 5.5 6.75 5.5C7.45 5.5 8 6.05 8 6.75C8 7.45 7.45 8 6.75 8ZM6.75 10.5C6.05 10.5 5.5 9.95 5.5 9.25C5.5 8.55 6.05 8 6.75 8C7.45 8 8 8.55 8 9.25C8 9.95 7.45 10.5 6.75 10.5ZM21.75 10.5C21.05 10.5 20.5 9.95 20.5 9.25C20.5 8.55 21.05 8 21.75 8C22.45 8 23 8.55 23 9.25C23 9.95 22.45 10.5 21.75 10.5ZM1.75 10.5C1.05 10.5 0.5 9.95 0.5 9.25C0.5 8.55 1.05 8 1.75 8C2.45 8 3 8.55 3 9.25C3 9.95 2.45 10.5 1.75 10.5ZM4.25 10.5C3.55 10.5 3 9.95 3 9.25C3 8.55 3.55 8 4.25 8C4.95 8 5.5 8.55 5.5 9.25C5.5 9.95 4.95 10.5 4.25 10.5ZM19.25 10.5C18.55 10.5 18 9.95 18 9.25C18 8.55 18.55 8 19.25 8C19.95 8 20.5 8.55 20.5 9.25C20.5 9.95 19.95 10.5 19.25 10.5ZM4.25 13C3.55 13 3 12.45 3 11.75C3 11.05 3.55 10.5 4.25 10.5C4.95 10.5 5.5 11.05 5.5 11.75C5.5 12.45 4.95 13 4.25 13ZM1.75 13C1.05 13 0.5 12.45 0.5 11.75C0.5 11.05 1.05 10.5 1.75 10.5C2.45 10.5 3 11.05 3 11.75C3 12.45 2.45 13 1.75 13ZM11.75 15.5C11.05 15.5 10.5 14.95 10.5 14.25C10.5 13.55 11.05 13 11.75 13C12.45 13 13 13.55 13 14.25C13 14.95 12.45 15.5 11.75 15.5ZM14.25 15.5C13.55 15.5 13 14.95 13 14.25C13 13.55 13.55 13 14.25 13C14.95 13 15.5 13.55 15.5 14.25C15.5 14.95 14.95 15.5 14.25 15.5ZM16.75 15.5C16.05 15.5 15.5 14.95 15.5 14.25C15.5 13.55 16.05 13 16.75 13C17.45 13 18 13.55 18 14.25C18 14.95 17.45 15.5 16.75 15.5ZM19.25 15.5C18.55 15.5 18 14.95 18 14.25C18 13.55 18.55 13 19.25 13C19.95 13 20.5 13.55 20.5 14.25C20.5 14.95 19.95 15.5 19.25 15.5ZM21.75 15.5C21.05 15.5 20.5 14.95 20.5 14.25C20.5 13.55 21.05 13 21.75 13C22.45 13 23 13.55 23 14.25C23 14.95 22.45 15.5 21.75 15.5ZM4.25 15.5C3.55 15.5 3 14.95 3 14.25C3 13.55 3.55 13 4.25 13C4.95 13 5.5 13.55 5.5 14.25C5.5 14.95 4.95 15.5 4.25 15.5ZM1.75 15.5C1.05 15.5 0.5 14.95 0.5 14.25C0.5 13.55 1.05 13 1.75 13C2.45 13 3 13.55 3 14.25C3 14.95 2.45 15.5 1.75 15.5ZM1.75 18C1.05 18 0.5 17.45 0.5 16.75C0.5 16.05 1.05 15.5 1.75 15.5C2.45 15.5 3 16.05 3 16.75C3 17.45 2.45 18 1.75 18ZM4.25 18C3.55 18 3 17.45 3 16.75C3 16.05 3.55 15.5 4.25 15.5C4.95 15.5 5.5 16.05 5.5 16.75C5.5 17.45 4.95 18 4.25 18ZM16.75 18C16.05 18 15.5 17.45 15.5 16.75C15.5 16.05 16.05 15.5 16.75 15.5C17.45 15.5 18 16.05 18 16.75C18 17.45 17.45 18 16.75 18ZM19.25 18C18.55 18 18 17.45 18 16.75C18 16.05 18.55 15.5 19.25 15.5C19.95 15.5 20.5 16.05 20.5 16.75C20.5 17.45 19.95 18 19.25 18ZM14.25 18C13.55 18 13 17.45 13 16.75C13 16.05 13.55 15.5 14.25 15.5C14.95 15.5 15.5 16.05 15.5 16.75C15.5 17.45 14.95 18 14.25 18ZM21.75 18C21.05 18 20.5 17.45 20.5 16.75C20.5 16.05 21.05 15.5 21.75 15.5C22.45 15.5 23 16.05 23 16.75C23 17.45 22.45 18 21.75 18ZM11.75 18C11.05 18 10.5 17.45 10.5 16.75C10.5 16.05 11.05 15.5 11.75 15.5C12.45 15.5 13 16.05 13 16.75C13 17.45 12.45 18 11.75 18ZM4.25 20.5C3.55 20.5 3 19.95 3 19.25C3 18.55 3.55 18 4.25 18C4.95 18 5.5 18.55 5.5 19.25C5.5 19.95 4.95 20.5 4.25 20.5ZM21.75 20.5C21.05 20.5 20.5 19.95 20.5 19.25C20.5 18.55 21.05 18 21.75 18C22.45 18 23 18.55 23 19.25C23 19.95 22.45 20.5 21.75 20.5ZM19.25 20.5C18.55 20.5 18 19.95 18 19.25C18 18.55 18.55 18 19.25 18C19.95 18 20.5 18.55 20.5 19.25C20.5 19.95 19.95 20.5 19.25 20.5ZM1.75 20.5C1.05 20.5 0.5 19.95 0.5 19.25C0.5 18.55 1.05 18 1.75 18C2.45 18 3 18.55 3 19.25C3 19.95 2.45 20.5 1.75 20.5ZM6.75 23C6.05 23 5.5 22.45 5.5 21.75C5.5 21.05 6.05 20.5 6.75 20.5C7.45 20.5 8 21.05 8 21.75C8 22.45 7.45 23 6.75 23ZM21.75 23C21.05 23 20.5 22.45 20.5 21.75C20.5 21.05 21.05 20.5 21.75 20.5C22.45 20.5 23 21.05 23 21.75C23 22.45 22.45 23 21.75 23ZM1.75 23C1.05 23 0.5 22.45 0.5 21.75C0.5 21.05 1.05 20.5 1.75 20.5C2.45 20.5 3 21.05 3 21.75C3 22.45 2.45 23 1.75 23ZM19.25 23C18.55 23 18 22.45 18 21.75C18 21.05 18.55 20.5 19.25 20.5C19.95 20.5 20.5 21.05 20.5 21.75C20.5 22.45 19.95 23 19.25 23ZM4.25 23C3.55 23 3 22.45 3 21.75C3 21.05 3.55 20.5 4.25 20.5C4.95 20.5 5.5 21.05 5.5 21.75C5.5 22.45 4.95 23 4.25 23ZM16.75 23C16.05 23 15.5 22.45 15.5 21.75C15.5 21.05 16.05 20.5 16.75 20.5C17.45 20.5 18 21.05 18 21.75C18 22.45 17.45 23 16.75 23ZM6.75 25.5C6.05 25.5 5.5 24.95 5.5 24.25C5.5 23.55 6.05 23 6.75 23C7.45 23 8 23.55 8 24.25C8 24.95 7.45 25.5 6.75 25.5ZM14.25 25.5C13.55 25.5 13 24.95 13 24.25C13 23.55 13.55 23 14.25 23C14.95 23 15.5 23.55 15.5 24.25C15.5 24.95 14.95 25.5 14.25 25.5ZM16.75 25.5C16.05 25.5 15.5 24.95 15.5 24.25C15.5 23.55 16.05 23 16.75 23C17.45 23 18 23.55 18 24.25C18 24.95 17.45 25.5 16.75 25.5ZM21.75 25.5C21.05 25.5 20.5 24.95 20.5 24.25C20.5 23.55 21.05 23 21.75 23C22.45 23 23 23.55 23 24.25C23 24.95 22.45 25.5 21.75 25.5ZM9.25 25.5C8.55 25.5 8 24.95 8 24.25C8 23.55 8.55 23 9.25 23C9.95 23 10.5 23.55 10.5 24.25C10.5 24.95 9.95 25.5 9.25 25.5ZM19.25 25.5C18.55 25.5 18 24.95 18 24.25C18 23.55 18.55 23 19.25 23C19.95 23 20.5 23.55 20.5 24.25C20.5 24.95 19.95 25.5 19.25 25.5ZM11.75 25.5C11.05 25.5 10.5 24.95 10.5 24.25C10.5 23.55 11.05 23 11.75 23C12.45 23 13 23.55 13 24.25C13 24.95 12.45 25.5 11.75 25.5ZM4.25 25.5C3.55 25.5 3 24.95 3 24.25C3 23.55 3.55 23 4.25 23C4.95 23 5.5 23.55 5.5 24.25C5.5 24.95 4.95 25.5 4.25 25.5ZM21.75 28C21.05 28 20.5 27.45 20.5 26.75C20.5 26.05 21.05 25.5 21.75 25.5C22.45 25.5 23 26.05 23 26.75C23 27.45 22.45 28 21.75 28ZM6.75 28C6.05 28 5.5 27.45 5.5 26.75C5.5 26.05 6.05 25.5 6.75 25.5C7.45 25.5 8 26.05 8 26.75C8 27.45 7.45 28 6.75 28ZM9.25 28C8.55 28 8 27.45 8 26.75C8 26.05 8.55 25.5 9.25 25.5C9.95 25.5 10.5 26.05 10.5 26.75C10.5 27.45 9.95 28 9.25 28ZM14.25 28C13.55 28 13 27.45 13 26.75C13 26.05 13.55 25.5 14.25 25.5C14.95 25.5 15.5 26.05 15.5 26.75C15.5 27.45 14.95 28 14.25 28ZM16.75 28C16.05 28 15.5 27.45 15.5 26.75C15.5 26.05 16.05 25.5 16.75 25.5C17.45 25.5 18 26.05 18 26.75C18 27.45 17.45 28 16.75 28ZM11.75 28C11.05 28 10.5 27.45 10.5 26.75C10.5 26.05 11.05 25.5 11.75 25.5C12.45 25.5 13 26.05 13 26.75C13 27.45 12.45 28 11.75 28ZM31.75 10.5C31.05 10.5 30.5 9.95 30.5 9.25C30.5 8.55 31.05 8 31.75 8C32.45 8 33 8.55 33 9.25C33 9.95 32.45 10.5 31.75 10.5ZM34.25 10.5C33.55 10.5 33 9.95 33 9.25C33 8.55 33.55 8 34.25 8C34.95 8 35.5 8.55 35.5 9.25C35.5 9.95 34.95 10.5 34.25 10.5ZM36.75 10.5C36.05 10.5 35.5 9.95 35.5 9.25C35.5 8.55 36.05 8 36.75 8C37.45 8 38 8.55 38 9.25C38 9.95 37.45 10.5 36.75 10.5ZM39.25 10.5C38.55 10.5 38 9.95 38 9.25C38 8.55 38.55 8 39.25 8C39.95 8 40.5 8.55 40.5 9.25C40.5 9.95 39.95 10.5 39.25 10.5ZM41.75 10.5C41.05 10.5 40.5 9.95 40.5 9.25C40.5 8.55 41.05 8 41.75 8C42.45 8 43 8.55 43 9.25C43 9.95 42.45 10.5 41.75 10.5ZM31.75 13C31.05 13 30.5 12.45 30.5 11.75C30.5 11.05 31.05 10.5 31.75 10.5C32.45 10.5 33 11.05 33 11.75C33 12.45 32.45 13 31.75 13ZM29.25 13C28.55 13 28 12.45 28 11.75C28 11.05 28.55 10.5 29.25 10.5C29.95 10.5 30.5 11.05 30.5 11.75C30.5 12.45 29.95 13 29.25 13ZM41.75 13C41.05 13 40.5 12.45 40.5 11.75C40.5 11.05 41.05 10.5 41.75 10.5C42.45 10.5 43 11.05 43 11.75C43 12.45 42.45 13 41.75 13ZM44.25 13C43.55 13 43 12.45 43 11.75C43 11.05 43.55 10.5 44.25 10.5C44.95 10.5 45.5 11.05 45.5 11.75C45.5 12.45 44.95 13 44.25 13ZM34.25 13C33.55 13 33 12.45 33 11.75C33 11.05 33.55 10.5 34.25 10.5C34.95 10.5 35.5 11.05 35.5 11.75C35.5 12.45 34.95 13 34.25 13ZM39.25 13C38.55 13 38 12.45 38 11.75C38 11.05 38.55 10.5 39.25 10.5C39.95 10.5 40.5 11.05 40.5 11.75C40.5 12.45 39.95 13 39.25 13ZM36.75 13C36.05 13 35.5 12.45 35.5 11.75C35.5 11.05 36.05 10.5 36.75 10.5C37.45 10.5 38 11.05 38 11.75C38 12.45 37.45 13 36.75 13ZM41.75 15.5C41.05 15.5 40.5 14.95 40.5 14.25C40.5 13.55 41.05 13 41.75 13C42.45 13 43 13.55 43 14.25C43 14.95 42.45 15.5 41.75 15.5ZM44.25 15.5C43.55 15.5 43 14.95 43 14.25C43 13.55 43.55 13 44.25 13C44.95 13 45.5 13.55 45.5 14.25C45.5 14.95 44.95 15.5 44.25 15.5ZM34.25 18C33.55 18 33 17.45 33 16.75C33 16.05 33.55 15.5 34.25 15.5C34.95 15.5 35.5 16.05 35.5 16.75C35.5 17.45 34.95 18 34.25 18ZM41.75 18C41.05 18 40.5 17.45 40.5 16.75C40.5 16.05 41.05 15.5 41.75 15.5C42.45 15.5 43 16.05 43 16.75C43 17.45 42.45 18 41.75 18ZM44.25 18C43.55 18 43 17.45 43 16.75C43 16.05 43.55 15.5 44.25 15.5C44.95 15.5 45.5 16.05 45.5 16.75C45.5 17.45 44.95 18 44.25 18ZM39.25 18C38.55 18 38 17.45 38 16.75C38 16.05 38.55 15.5 39.25 15.5C39.95 15.5 40.5 16.05 40.5 16.75C40.5 17.45 39.95 18 39.25 18ZM36.75 18C36.05 18 35.5 17.45 35.5 16.75C35.5 16.05 36.05 15.5 36.75 15.5C37.45 15.5 38 16.05 38 16.75C38 17.45 37.45 18 36.75 18ZM34.25 20.5C33.55 20.5 33 19.95 33 19.25C33 18.55 33.55 18 34.25 18C34.95 18 35.5 18.55 35.5 19.25C35.5 19.95 34.95 20.5 34.25 20.5ZM36.75 20.5C36.05 20.5 35.5 19.95 35.5 19.25C35.5 18.55 36.05 18 36.75 18C37.45 18 38 18.55 38 19.25C38 19.95 37.45 20.5 36.75 20.5ZM39.25 20.5C38.55 20.5 38 19.95 38 19.25C38 18.55 38.55 18 39.25 18C39.95 18 40.5 18.55 40.5 19.25C40.5 19.95 39.95 20.5 39.25 20.5ZM44.25 20.5C43.55 20.5 43 19.95 43 19.25C43 18.55 43.55 18 44.25 18C44.95 18 45.5 18.55 45.5 19.25C45.5 19.95 44.95 20.5 44.25 20.5ZM41.75 20.5C41.05 20.5 40.5 19.95 40.5 19.25C40.5 18.55 41.05 18 41.75 18C42.45 18 43 18.55 43 19.25C43 19.95 42.45 20.5 41.75 20.5ZM31.75 20.5C31.05 20.5 30.5 19.95 30.5 19.25C30.5 18.55 31.05 18 31.75 18C32.45 18 33 18.55 33 19.25C33 19.95 32.45 20.5 31.75 20.5ZM29.25 20.5C28.55 20.5 28 19.95 28 19.25C28 18.55 28.55 18 29.25 18C29.95 18 30.5 18.55 30.5 19.25C30.5 19.95 29.95 20.5 29.25 20.5ZM41.75 23C41.05 23 40.5 22.45 40.5 21.75C40.5 21.05 41.05 20.5 41.75 20.5C42.45 20.5 43 21.05 43 21.75C43 22.45 42.45 23 41.75 23ZM44.25 23C43.55 23 43 22.45 43 21.75C43 21.05 43.55 20.5 44.25 20.5C44.95 20.5 45.5 21.05 45.5 21.75C45.5 22.45 44.95 23 44.25 23ZM31.75 23C31.05 23 30.5 22.45 30.5 21.75C30.5 21.05 31.05 20.5 31.75 20.5C32.45 20.5 33 21.05 33 21.75C33 22.45 32.45 23 31.75 23ZM29.25 23C28.55 23 28 22.45 28 21.75C28 21.05 28.55 20.5 29.25 20.5C29.95 20.5 30.5 21.05 30.5 21.75C30.5 22.45 29.95 23 29.25 23ZM36.75 25.5C36.05 25.5 35.5 24.95 35.5 24.25C35.5 23.55 36.05 23 36.75 23C37.45 23 38 23.55 38 24.25C38 24.95 37.45 25.5 36.75 25.5ZM29.25 25.5C28.55 25.5 28 24.95 28 24.25C28 23.55 28.55 23 29.25 23C29.95 23 30.5 23.55 30.5 24.25C30.5 24.95 29.95 25.5 29.25 25.5ZM34.25 25.5C33.55 25.5 33 24.95 33 24.25C33 23.55 33.55 23 34.25 23C34.95 23 35.5 23.55 35.5 24.25C35.5 24.95 34.95 25.5 34.25 25.5ZM44.25 25.5C43.55 25.5 43 24.95 43 24.25C43 23.55 43.55 23 44.25 23C44.95 23 45.5 23.55 45.5 24.25C45.5 24.95 44.95 25.5 44.25 25.5ZM41.75 25.5C41.05 25.5 40.5 24.95 40.5 24.25C40.5 23.55 41.05 23 41.75 23C42.45 23 43 23.55 43 24.25C43 24.95 42.45 25.5 41.75 25.5ZM31.75 25.5C31.05 25.5 30.5 24.95 30.5 24.25C30.5 23.55 31.05 23 31.75 23C32.45 23 33 23.55 33 24.25C33 24.95 32.45 25.5 31.75 25.5ZM39.25 25.5C38.55 25.5 38 24.95 38 24.25C38 23.55 38.55 23 39.25 23C39.95 23 40.5 23.55 40.5 24.25C40.5 24.95 39.95 25.5 39.25 25.5ZM36.75 28C36.05 28 35.5 27.45 35.5 26.75C35.5 26.05 36.05 25.5 36.75 25.5C37.45 25.5 38 26.05 38 26.75C38 27.45 37.45 28 36.75 28ZM41.75 28C41.05 28 40.5 27.45 40.5 26.75C40.5 26.05 41.05 25.5 41.75 25.5C42.45 25.5 43 26.05 43 26.75C43 27.45 42.45 28 41.75 28ZM44.25 28C43.55 28 43 27.45 43 26.75C43 26.05 43.55 25.5 44.25 25.5C44.95 25.5 45.5 26.05 45.5 26.75C45.5 27.45 44.95 28 44.25 28ZM34.25 28C33.55 28 33 27.45 33 26.75C33 26.05 33.55 25.5 34.25 25.5C34.95 25.5 35.5 26.05 35.5 26.75C35.5 27.45 34.95 28 34.25 28ZM31.75 28C31.05 28 30.5 27.45 30.5 26.75C30.5 26.05 31.05 25.5 31.75 25.5C32.45 25.5 33 26.05 33 26.75C33 27.45 32.45 28 31.75 28ZM71.75 10.5C71.05 10.5 70.5 9.95 70.5 9.25C70.5 8.55 71.05 8 71.75 8C72.45 8 73 8.55 73 9.25C73 9.95 72.45 10.5 71.75 10.5ZM69.25 10.5C68.55 10.5 68 9.95 68 9.25C68 8.55 68.55 8 69.25 8C69.95 8 70.5 8.55 70.5 9.25C70.5 9.95 69.95 10.5 69.25 10.5ZM64.25 10.5C63.55 10.5 63 9.95 63 9.25C63 8.55 63.55 8 64.25 8C64.95 8 65.5 8.55 65.5 9.25C65.5 9.95 64.95 10.5 64.25 10.5ZM61.75 10.5C61.05 10.5 60.5 9.95 60.5 9.25C60.5 8.55 61.05 8 61.75 8C62.45 8 63 8.55 63 9.25C63 9.95 62.45 10.5 61.75 10.5ZM59.25 10.5C58.55 10.5 58 9.95 58 9.25C58 8.55 58.55 8 59.25 8C59.95 8 60.5 8.55 60.5 9.25C60.5 9.95 59.95 10.5 59.25 10.5ZM54.25 10.5C53.55 10.5 53 9.95 53 9.25C53 8.55 53.55 8 54.25 8C54.95 8 55.5 8.55 55.5 9.25C55.5 9.95 54.95 10.5 54.25 10.5ZM51.75 10.5C51.05 10.5 50.5 9.95 50.5 9.25C50.5 8.55 51.05 8 51.75 8C52.45 8 53 8.55 53 9.25C53 9.95 52.45 10.5 51.75 10.5ZM61.75 13C61.05 13 60.5 12.45 60.5 11.75C60.5 11.05 61.05 10.5 61.75 10.5C62.45 10.5 63 11.05 63 11.75C63 12.45 62.45 13 61.75 13ZM74.25 13C73.55 13 73 12.45 73 11.75C73 11.05 73.55 10.5 74.25 10.5C74.95 10.5 75.5 11.05 75.5 11.75C75.5 12.45 74.95 13 74.25 13ZM51.75 13C51.05 13 50.5 12.45 50.5 11.75C50.5 11.05 51.05 10.5 51.75 10.5C52.45 10.5 53 11.05 53 11.75C53 12.45 52.45 13 51.75 13ZM66.75 13C66.05 13 65.5 12.45 65.5 11.75C65.5 11.05 66.05 10.5 66.75 10.5C67.45 10.5 68 11.05 68 11.75C68 12.45 67.45 13 66.75 13ZM54.25 13C53.55 13 53 12.45 53 11.75C53 11.05 53.55 10.5 54.25 10.5C54.95 10.5 55.5 11.05 55.5 11.75C55.5 12.45 54.95 13 54.25 13ZM56.75 13C56.05 13 55.5 12.45 55.5 11.75C55.5 11.05 56.05 10.5 56.75 10.5C57.45 10.5 58 11.05 58 11.75C58 12.45 57.45 13 56.75 13ZM64.25 13C63.55 13 63 12.45 63 11.75C63 11.05 63.55 10.5 64.25 10.5C64.95 10.5 65.5 11.05 65.5 11.75C65.5 12.45 64.95 13 64.25 13ZM71.75 13C71.05 13 70.5 12.45 70.5 11.75C70.5 11.05 71.05 10.5 71.75 10.5C72.45 10.5 73 11.05 73 11.75C73 12.45 72.45 13 71.75 13ZM69.25 13C68.55 13 68 12.45 68 11.75C68 11.05 68.55 10.5 69.25 10.5C69.95 10.5 70.5 11.05 70.5 11.75C70.5 12.45 69.95 13 69.25 13ZM59.25 13C58.55 13 58 12.45 58 11.75C58 11.05 58.55 10.5 59.25 10.5C59.95 10.5 60.5 11.05 60.5 11.75C60.5 12.45 59.95 13 59.25 13ZM51.75 15.5C51.05 15.5 50.5 14.95 50.5 14.25C50.5 13.55 51.05 13 51.75 13C52.45 13 53 13.55 53 14.25C53 14.95 52.45 15.5 51.75 15.5ZM54.25 15.5C53.55 15.5 53 14.95 53 14.25C53 13.55 53.55 13 54.25 13C54.95 13 55.5 13.55 55.5 14.25C55.5 14.95 54.95 15.5 54.25 15.5ZM74.25 15.5C73.55 15.5 73 14.95 73 14.25C73 13.55 73.55 13 74.25 13C74.95 13 75.5 13.55 75.5 14.25C75.5 14.95 74.95 15.5 74.25 15.5ZM71.75 15.5C71.05 15.5 70.5 14.95 70.5 14.25C70.5 13.55 71.05 13 71.75 13C72.45 13 73 13.55 73 14.25C73 14.95 72.45 15.5 71.75 15.5ZM61.75 15.5C61.05 15.5 60.5 14.95 60.5 14.25C60.5 13.55 61.05 13 61.75 13C62.45 13 63 13.55 63 14.25C63 14.95 62.45 15.5 61.75 15.5ZM64.25 15.5C63.55 15.5 63 14.95 63 14.25C63 13.55 63.55 13 64.25 13C64.95 13 65.5 13.55 65.5 14.25C65.5 14.95 64.95 15.5 64.25 15.5ZM71.75 18C71.05 18 70.5 17.45 70.5 16.75C70.5 16.05 71.05 15.5 71.75 15.5C72.45 15.5 73 16.05 73 16.75C73 17.45 72.45 18 71.75 18ZM64.25 18C63.55 18 63 17.45 63 16.75C63 16.05 63.55 15.5 64.25 15.5C64.95 15.5 65.5 16.05 65.5 16.75C65.5 17.45 64.95 18 64.25 18ZM61.75 18C61.05 18 60.5 17.45 60.5 16.75C60.5 16.05 61.05 15.5 61.75 15.5C62.45 15.5 63 16.05 63 16.75C63 17.45 62.45 18 61.75 18ZM74.25 18C73.55 18 73 17.45 73 16.75C73 16.05 73.55 15.5 74.25 15.5C74.95 15.5 75.5 16.05 75.5 16.75C75.5 17.45 74.95 18 74.25 18ZM51.75 18C51.05 18 50.5 17.45 50.5 16.75C50.5 16.05 51.05 15.5 51.75 15.5C52.45 15.5 53 16.05 53 16.75C53 17.45 52.45 18 51.75 18ZM54.25 18C53.55 18 53 17.45 53 16.75C53 16.05 53.55 15.5 54.25 15.5C54.95 15.5 55.5 16.05 55.5 16.75C55.5 17.45 54.95 18 54.25 18ZM64.25 20.5C63.55 20.5 63 19.95 63 19.25C63 18.55 63.55 18 64.25 18C64.95 18 65.5 18.55 65.5 19.25C65.5 19.95 64.95 20.5 64.25 20.5ZM71.75 20.5C71.05 20.5 70.5 19.95 70.5 19.25C70.5 18.55 71.05 18 71.75 18C72.45 18 73 18.55 73 19.25C73 19.95 72.45 20.5 71.75 20.5ZM61.75 20.5C61.05 20.5 60.5 19.95 60.5 19.25C60.5 18.55 61.05 18 61.75 18C62.45 18 63 18.55 63 19.25C63 19.95 62.45 20.5 61.75 20.5ZM74.25 20.5C73.55 20.5 73 19.95 73 19.25C73 18.55 73.55 18 74.25 18C74.95 18 75.5 18.55 75.5 19.25C75.5 19.95 74.95 20.5 74.25 20.5ZM51.75 20.5C51.05 20.5 50.5 19.95 50.5 19.25C50.5 18.55 51.05 18 51.75 18C52.45 18 53 18.55 53 19.25C53 19.95 52.45 20.5 51.75 20.5ZM54.25 20.5C53.55 20.5 53 19.95 53 19.25C53 18.55 53.55 18 54.25 18C54.95 18 55.5 18.55 55.5 19.25C55.5 19.95 54.95 20.5 54.25 20.5ZM64.25 23C63.55 23 63 22.45 63 21.75C63 21.05 63.55 20.5 64.25 20.5C64.95 20.5 65.5 21.05 65.5 21.75C65.5 22.45 64.95 23 64.25 23ZM71.75 23C71.05 23 70.5 22.45 70.5 21.75C70.5 21.05 71.05 20.5 71.75 20.5C72.45 20.5 73 21.05 73 21.75C73 22.45 72.45 23 71.75 23ZM61.75 23C61.05 23 60.5 22.45 60.5 21.75C60.5 21.05 61.05 20.5 61.75 20.5C62.45 20.5 63 21.05 63 21.75C63 22.45 62.45 23 61.75 23ZM74.25 23C73.55 23 73 22.45 73 21.75C73 21.05 73.55 20.5 74.25 20.5C74.95 20.5 75.5 21.05 75.5 21.75C75.5 22.45 74.95 23 74.25 23ZM51.75 23C51.05 23 50.5 22.45 50.5 21.75C50.5 21.05 51.05 20.5 51.75 20.5C52.45 20.5 53 21.05 53 21.75C53 22.45 52.45 23 51.75 23ZM54.25 23C53.55 23 53 22.45 53 21.75C53 21.05 53.55 20.5 54.25 20.5C54.95 20.5 55.5 21.05 55.5 21.75C55.5 22.45 54.95 23 54.25 23ZM64.25 25.5C63.55 25.5 63 24.95 63 24.25C63 23.55 63.55 23 64.25 23C64.95 23 65.5 23.55 65.5 24.25C65.5 24.95 64.95 25.5 64.25 25.5ZM71.75 25.5C71.05 25.5 70.5 24.95 70.5 24.25C70.5 23.55 71.05 23 71.75 23C72.45 23 73 23.55 73 24.25C73 24.95 72.45 25.5 71.75 25.5ZM74.25 25.5C73.55 25.5 73 24.95 73 24.25C73 23.55 73.55 23 74.25 23C74.95 23 75.5 23.55 75.5 24.25C75.5 24.95 74.95 25.5 74.25 25.5ZM61.75 25.5C61.05 25.5 60.5 24.95 60.5 24.25C60.5 23.55 61.05 23 61.75 23C62.45 23 63 23.55 63 24.25C63 24.95 62.45 25.5 61.75 25.5ZM51.75 25.5C51.05 25.5 50.5 24.95 50.5 24.25C50.5 23.55 51.05 23 51.75 23C52.45 23 53 23.55 53 24.25C53 24.95 52.45 25.5 51.75 25.5ZM54.25 25.5C53.55 25.5 53 24.95 53 24.25C53 23.55 53.55 23 54.25 23C54.95 23 55.5 23.55 55.5 24.25C55.5 24.95 54.95 25.5 54.25 25.5ZM64.25 28C63.55 28 63 27.45 63 26.75C63 26.05 63.55 25.5 64.25 25.5C64.95 25.5 65.5 26.05 65.5 26.75C65.5 27.45 64.95 28 64.25 28ZM54.25 28C53.55 28 53 27.45 53 26.75C53 26.05 53.55 25.5 54.25 25.5C54.95 25.5 55.5 26.05 55.5 26.75C55.5 27.45 54.95 28 54.25 28ZM71.75 28C71.05 28 70.5 27.45 70.5 26.75C70.5 26.05 71.05 25.5 71.75 25.5C72.45 25.5 73 26.05 73 26.75C73 27.45 72.45 28 71.75 28ZM74.25 28C73.55 28 73 27.45 73 26.75C73 26.05 73.55 25.5 74.25 25.5C74.95 25.5 75.5 26.05 75.5 26.75C75.5 27.45 74.95 28 74.25 28ZM51.75 28C51.05 28 50.5 27.45 50.5 26.75C50.5 26.05 51.05 25.5 51.75 25.5C52.45 25.5 53 26.05 53 26.75C53 27.45 52.45 28 51.75 28ZM61.75 28C61.05 28 60.5 27.45 60.5 26.75C60.5 26.05 61.05 25.5 61.75 25.5C62.45 25.5 63 26.05 63 26.75C63 27.45 62.45 28 61.75 28ZM91.75 10.5C91.05 10.5 90.5 9.95 90.5 9.25C90.5 8.55 91.05 8 91.75 8C92.45 8 93 8.55 93 9.25C93 9.95 92.45 10.5 91.75 10.5ZM89.25 10.5C88.55 10.5 88 9.95 88 9.25C88 8.55 88.55 8 89.25 8C89.95 8 90.5 8.55 90.5 9.25C90.5 9.95 89.95 10.5 89.25 10.5ZM86.75 10.5C86.05 10.5 85.5 9.95 85.5 9.25C85.5 8.55 86.05 8 86.75 8C87.45 8 88 8.55 88 9.25C88 9.95 87.45 10.5 86.75 10.5ZM91.75 13C91.05 13 90.5 12.45 90.5 11.75C90.5 11.05 91.05 10.5 91.75 10.5C92.45 10.5 93 11.05 93 11.75C93 12.45 92.45 13 91.75 13ZM84.25 13C83.55 13 83 12.45 83 11.75C83 11.05 83.55 10.5 84.25 10.5C84.95 10.5 85.5 11.05 85.5 11.75C85.5 12.45 84.95 13 84.25 13ZM94.25 13C93.55 13 93 12.45 93 11.75C93 11.05 93.55 10.5 94.25 10.5C94.95 10.5 95.5 11.05 95.5 11.75C95.5 12.45 94.95 13 94.25 13ZM89.25 13C88.55 13 88 12.45 88 11.75C88 11.05 88.55 10.5 89.25 10.5C89.95 10.5 90.5 11.05 90.5 11.75C90.5 12.45 89.95 13 89.25 13ZM86.75 13C86.05 13 85.5 12.45 85.5 11.75C85.5 11.05 86.05 10.5 86.75 10.5C87.45 10.5 88 11.05 88 11.75C88 12.45 87.45 13 86.75 13ZM81.75 15.5C81.05 15.5 80.5 14.95 80.5 14.25C80.5 13.55 81.05 13 81.75 13C82.45 13 83 13.55 83 14.25C83 14.95 82.45 15.5 81.75 15.5ZM94.25 15.5C93.55 15.5 93 14.95 93 14.25C93 13.55 93.55 13 94.25 13C94.95 13 95.5 13.55 95.5 14.25C95.5 14.95 94.95 15.5 94.25 15.5ZM84.25 15.5C83.55 15.5 83 14.95 83 14.25C83 13.55 83.55 13 84.25 13C84.95 13 85.5 13.55 85.5 14.25C85.5 14.95 84.95 15.5 84.25 15.5ZM96.75 15.5C96.05 15.5 95.5 14.95 95.5 14.25C95.5 13.55 96.05 13 96.75 13C97.45 13 98 13.55 98 14.25C98 14.95 97.45 15.5 96.75 15.5ZM84.25 18C83.55 18 83 17.45 83 16.75C83 16.05 83.55 15.5 84.25 15.5C84.95 15.5 85.5 16.05 85.5 16.75C85.5 17.45 84.95 18 84.25 18ZM94.25 18C93.55 18 93 17.45 93 16.75C93 16.05 93.55 15.5 94.25 15.5C94.95 15.5 95.5 16.05 95.5 16.75C95.5 17.45 94.95 18 94.25 18ZM96.75 18C96.05 18 95.5 17.45 95.5 16.75C95.5 16.05 96.05 15.5 96.75 15.5C97.45 15.5 98 16.05 98 16.75C98 17.45 97.45 18 96.75 18ZM81.75 18C81.05 18 80.5 17.45 80.5 16.75C80.5 16.05 81.05 15.5 81.75 15.5C82.45 15.5 83 16.05 83 16.75C83 17.45 82.45 18 81.75 18ZM86.75 18C86.05 18 85.5 17.45 85.5 16.75C85.5 16.05 86.05 15.5 86.75 15.5C87.45 15.5 88 16.05 88 16.75C88 17.45 87.45 18 86.75 18ZM89.25 18C88.55 18 88 17.45 88 16.75C88 16.05 88.55 15.5 89.25 15.5C89.95 15.5 90.5 16.05 90.5 16.75C90.5 17.45 89.95 18 89.25 18ZM91.75 18C91.05 18 90.5 17.45 90.5 16.75C90.5 16.05 91.05 15.5 91.75 15.5C92.45 15.5 93 16.05 93 16.75C93 17.45 92.45 18 91.75 18ZM84.25 20.5C83.55 20.5 83 19.95 83 19.25C83 18.55 83.55 18 84.25 18C84.95 18 85.5 18.55 85.5 19.25C85.5 19.95 84.95 20.5 84.25 20.5ZM86.75 20.5C86.05 20.5 85.5 19.95 85.5 19.25C85.5 18.55 86.05 18 86.75 18C87.45 18 88 18.55 88 19.25C88 19.95 87.45 20.5 86.75 20.5ZM89.25 20.5C88.55 20.5 88 19.95 88 19.25C88 18.55 88.55 18 89.25 18C89.95 18 90.5 18.55 90.5 19.25C90.5 19.95 89.95 20.5 89.25 20.5ZM91.75 20.5C91.05 20.5 90.5 19.95 90.5 19.25C90.5 18.55 91.05 18 91.75 18C92.45 18 93 18.55 93 19.25C93 19.95 92.45 20.5 91.75 20.5ZM94.25 20.5C93.55 20.5 93 19.95 93 19.25C93 18.55 93.55 18 94.25 18C94.95 18 95.5 18.55 95.5 19.25C95.5 19.95 94.95 20.5 94.25 20.5ZM96.75 20.5C96.05 20.5 95.5 19.95 95.5 19.25C95.5 18.55 96.05 18 96.75 18C97.45 18 98 18.55 98 19.25C98 19.95 97.45 20.5 96.75 20.5ZM81.75 20.5C81.05 20.5 80.5 19.95 80.5 19.25C80.5 18.55 81.05 18 81.75 18C82.45 18 83 18.55 83 19.25C83 19.95 82.45 20.5 81.75 20.5ZM84.25 23C83.55 23 83 22.45 83 21.75C83 21.05 83.55 20.5 84.25 20.5C84.95 20.5 85.5 21.05 85.5 21.75C85.5 22.45 84.95 23 84.25 23ZM81.75 23C81.05 23 80.5 22.45 80.5 21.75C80.5 21.05 81.05 20.5 81.75 20.5C82.45 20.5 83 21.05 83 21.75C83 22.45 82.45 23 81.75 23ZM84.25 25.5C83.55 25.5 83 24.95 83 24.25C83 23.55 83.55 23 84.25 23C84.95 23 85.5 23.55 85.5 24.25C85.5 24.95 84.95 25.5 84.25 25.5ZM86.75 25.5C86.05 25.5 85.5 24.95 85.5 24.25C85.5 23.55 86.05 23 86.75 23C87.45 23 88 23.55 88 24.25C88 24.95 87.45 25.5 86.75 25.5ZM89.25 25.5C88.55 25.5 88 24.95 88 24.25C88 23.55 88.55 23 89.25 23C89.95 23 90.5 23.55 90.5 24.25C90.5 24.95 89.95 25.5 89.25 25.5ZM91.75 25.5C91.05 25.5 90.5 24.95 90.5 24.25C90.5 23.55 91.05 23 91.75 23C92.45 23 93 23.55 93 24.25C93 24.95 92.45 25.5 91.75 25.5ZM94.25 25.5C93.55 25.5 93 24.95 93 24.25C93 23.55 93.55 23 94.25 23C94.95 23 95.5 23.55 95.5 24.25C95.5 24.95 94.95 25.5 94.25 25.5ZM96.75 25.5C96.05 25.5 95.5 24.95 95.5 24.25C95.5 23.55 96.05 23 96.75 23C97.45 23 98 23.55 98 24.25C98 24.95 97.45 25.5 96.75 25.5ZM86.75 28C86.05 28 85.5 27.45 85.5 26.75C85.5 26.05 86.05 25.5 86.75 25.5C87.45 25.5 88 26.05 88 26.75C88 27.45 87.45 28 86.75 28ZM89.25 28C88.55 28 88 27.45 88 26.75C88 26.05 88.55 25.5 89.25 25.5C89.95 25.5 90.5 26.05 90.5 26.75C90.5 27.45 89.95 28 89.25 28ZM91.75 28C91.05 28 90.5 27.45 90.5 26.75C90.5 26.05 91.05 25.5 91.75 25.5C92.45 25.5 93 26.05 93 26.75C93 27.45 92.45 28 91.75 28ZM94.25 28C93.55 28 93 27.45 93 26.75C93 26.05 93.55 25.5 94.25 25.5C94.95 25.5 95.5 26.05 95.5 26.75C95.5 27.45 94.95 28 94.25 28ZM121.75 5.5C121.05 5.5 120.5 4.95 120.5 4.25C120.5 3.55 121.05 3 121.75 3C122.45 3 123 3.55 123 4.25C123 4.95 122.45 5.5 121.75 5.5ZM124.25 5.5C123.55 5.5 123 4.95 123 4.25C123 3.55 123.55 3 124.25 3C124.95 3 125.5 3.55 125.5 4.25C125.5 4.95 124.95 5.5 124.25 5.5ZM119.25 5.5C118.55 5.5 118 4.95 118 4.25C118 3.55 118.55 3 119.25 3C119.95 3 120.5 3.55 120.5 4.25C120.5 4.95 119.95 5.5 119.25 5.5ZM114.25 5.5C113.55 5.5 113 4.95 113 4.25C113 3.55 113.55 3 114.25 3C114.95 3 115.5 3.55 115.5 4.25C115.5 4.95 114.95 5.5 114.25 5.5ZM116.75 5.5C116.05 5.5 115.5 4.95 115.5 4.25C115.5 3.55 116.05 3 116.75 3C117.45 3 118 3.55 118 4.25C118 4.95 117.45 5.5 116.75 5.5ZM121.75 8C121.05 8 120.5 7.45 120.5 6.75C120.5 6.05 121.05 5.5 121.75 5.5C122.45 5.5 123 6.05 123 6.75C123 7.45 122.45 8 121.75 8ZM126.75 8C126.05 8 125.5 7.45 125.5 6.75C125.5 6.05 126.05 5.5 126.75 5.5C127.45 5.5 128 6.05 128 6.75C128 7.45 127.45 8 126.75 8ZM124.25 8C123.55 8 123 7.45 123 6.75C123 6.05 123.55 5.5 124.25 5.5C124.95 5.5 125.5 6.05 125.5 6.75C125.5 7.45 124.95 8 124.25 8ZM119.25 8C118.55 8 118 7.45 118 6.75C118 6.05 118.55 5.5 119.25 5.5C119.95 5.5 120.5 6.05 120.5 6.75C120.5 7.45 119.95 8 119.25 8ZM114.25 8C113.55 8 113 7.45 113 6.75C113 6.05 113.55 5.5 114.25 5.5C114.95 5.5 115.5 6.05 115.5 6.75C115.5 7.45 114.95 8 114.25 8ZM116.75 8C116.05 8 115.5 7.45 115.5 6.75C115.5 6.05 116.05 5.5 116.75 5.5C117.45 5.5 118 6.05 118 6.75C118 7.45 117.45 8 116.75 8ZM129.25 10.5C128.55 10.5 128 9.95 128 9.25C128 8.55 128.55 8 129.25 8C129.95 8 130.5 8.55 130.5 9.25C130.5 9.95 129.95 10.5 129.25 10.5ZM126.75 10.5C126.05 10.5 125.5 9.95 125.5 9.25C125.5 8.55 126.05 8 126.75 8C127.45 8 128 8.55 128 9.25C128 9.95 127.45 10.5 126.75 10.5ZM116.75 10.5C116.05 10.5 115.5 9.95 115.5 9.25C115.5 8.55 116.05 8 116.75 8C117.45 8 118 8.55 118 9.25C118 9.95 117.45 10.5 116.75 10.5ZM114.25 10.5C113.55 10.5 113 9.95 113 9.25C113 8.55 113.55 8 114.25 8C114.95 8 115.5 8.55 115.5 9.25C115.5 9.95 114.95 10.5 114.25 10.5ZM114.25 13C113.55 13 113 12.45 113 11.75C113 11.05 113.55 10.5 114.25 10.5C114.95 10.5 115.5 11.05 115.5 11.75C115.5 12.45 114.95 13 114.25 13ZM126.75 13C126.05 13 125.5 12.45 125.5 11.75C125.5 11.05 126.05 10.5 126.75 10.5C127.45 10.5 128 11.05 128 11.75C128 12.45 127.45 13 126.75 13ZM129.25 13C128.55 13 128 12.45 128 11.75C128 11.05 128.55 10.5 129.25 10.5C129.95 10.5 130.5 11.05 130.5 11.75C130.5 12.45 129.95 13 129.25 13ZM116.75 13C116.05 13 115.5 12.45 115.5 11.75C115.5 11.05 116.05 10.5 116.75 10.5C117.45 10.5 118 11.05 118 11.75C118 12.45 117.45 13 116.75 13ZM114.25 15.5C113.55 15.5 113 14.95 113 14.25C113 13.55 113.55 13 114.25 13C114.95 13 115.5 13.55 115.5 14.25C115.5 14.95 114.95 15.5 114.25 15.5ZM116.75 15.5C116.05 15.5 115.5 14.95 115.5 14.25C115.5 13.55 116.05 13 116.75 13C117.45 13 118 13.55 118 14.25C118 14.95 117.45 15.5 116.75 15.5ZM126.75 15.5C126.05 15.5 125.5 14.95 125.5 14.25C125.5 13.55 126.05 13 126.75 13C127.45 13 128 13.55 128 14.25C128 14.95 127.45 15.5 126.75 15.5ZM129.25 15.5C128.55 15.5 128 14.95 128 14.25C128 13.55 128.55 13 129.25 13C129.95 13 130.5 13.55 130.5 14.25C130.5 14.95 129.95 15.5 129.25 15.5ZM114.25 18C113.55 18 113 17.45 113 16.75C113 16.05 113.55 15.5 114.25 15.5C114.95 15.5 115.5 16.05 115.5 16.75C115.5 17.45 114.95 18 114.25 18ZM126.75 18C126.05 18 125.5 17.45 125.5 16.75C125.5 16.05 126.05 15.5 126.75 15.5C127.45 15.5 128 16.05 128 16.75C128 17.45 127.45 18 126.75 18ZM116.75 18C116.05 18 115.5 17.45 115.5 16.75C115.5 16.05 116.05 15.5 116.75 15.5C117.45 15.5 118 16.05 118 16.75C118 17.45 117.45 18 116.75 18ZM124.25 18C123.55 18 123 17.45 123 16.75C123 16.05 123.55 15.5 124.25 15.5C124.95 15.5 125.5 16.05 125.5 16.75C125.5 17.45 124.95 18 124.25 18ZM121.75 18C121.05 18 120.5 17.45 120.5 16.75C120.5 16.05 121.05 15.5 121.75 15.5C122.45 15.5 123 16.05 123 16.75C123 17.45 122.45 18 121.75 18ZM119.25 18C118.55 18 118 17.45 118 16.75C118 16.05 118.55 15.5 119.25 15.5C119.95 15.5 120.5 16.05 120.5 16.75C120.5 17.45 119.95 18 119.25 18ZM114.25 20.5C113.55 20.5 113 19.95 113 19.25C113 18.55 113.55 18 114.25 18C114.95 18 115.5 18.55 115.5 19.25C115.5 19.95 114.95 20.5 114.25 20.5ZM116.75 20.5C116.05 20.5 115.5 19.95 115.5 19.25C115.5 18.55 116.05 18 116.75 18C117.45 18 118 18.55 118 19.25C118 19.95 117.45 20.5 116.75 20.5ZM124.25 20.5C123.55 20.5 123 19.95 123 19.25C123 18.55 123.55 18 124.25 18C124.95 18 125.5 18.55 125.5 19.25C125.5 19.95 124.95 20.5 124.25 20.5ZM121.75 20.5C121.05 20.5 120.5 19.95 120.5 19.25C120.5 18.55 121.05 18 121.75 18C122.45 18 123 18.55 123 19.25C123 19.95 122.45 20.5 121.75 20.5ZM119.25 20.5C118.55 20.5 118 19.95 118 19.25C118 18.55 118.55 18 119.25 18C119.95 18 120.5 18.55 120.5 19.25C120.5 19.95 119.95 20.5 119.25 20.5ZM114.25 23C113.55 23 113 22.45 113 21.75C113 21.05 113.55 20.5 114.25 20.5C114.95 20.5 115.5 21.05 115.5 21.75C115.5 22.45 114.95 23 114.25 23ZM116.75 23C116.05 23 115.5 22.45 115.5 21.75C115.5 21.05 116.05 20.5 116.75 20.5C117.45 20.5 118 21.05 118 21.75C118 22.45 117.45 23 116.75 23ZM114.25 25.5C113.55 25.5 113 24.95 113 24.25C113 23.55 113.55 23 114.25 23C114.95 23 115.5 23.55 115.5 24.25C115.5 24.95 114.95 25.5 114.25 25.5ZM116.75 25.5C116.05 25.5 115.5 24.95 115.5 24.25C115.5 23.55 116.05 23 116.75 23C117.45 23 118 23.55 118 24.25C118 24.95 117.45 25.5 116.75 25.5ZM114.25 28C113.55 28 113 27.45 113 26.75C113 26.05 113.55 25.5 114.25 25.5C114.95 25.5 115.5 26.05 115.5 26.75C115.5 27.45 114.95 28 114.25 28ZM116.75 28C116.05 28 115.5 27.45 115.5 26.75C115.5 26.05 116.05 25.5 116.75 25.5C117.45 25.5 118 26.05 118 26.75C118 27.45 117.45 28 116.75 28ZM139.25 10.5C138.55 10.5 138 9.95 138 9.25C138 8.55 138.55 8 139.25 8C139.95 8 140.5 8.55 140.5 9.25C140.5 9.95 139.95 10.5 139.25 10.5ZM141.75 10.5C141.05 10.5 140.5 9.95 140.5 9.25C140.5 8.55 141.05 8 141.75 8C142.45 8 143 8.55 143 9.25C143 9.95 142.45 10.5 141.75 10.5ZM144.25 10.5C143.55 10.5 143 9.95 143 9.25C143 8.55 143.55 8 144.25 8C144.95 8 145.5 8.55 145.5 9.25C145.5 9.95 144.95 10.5 144.25 10.5ZM146.75 10.5C146.05 10.5 145.5 9.95 145.5 9.25C145.5 8.55 146.05 8 146.75 8C147.45 8 148 8.55 148 9.25C148 9.95 147.45 10.5 146.75 10.5ZM149.25 10.5C148.55 10.5 148 9.95 148 9.25C148 8.55 148.55 8 149.25 8C149.95 8 150.5 8.55 150.5 9.25C150.5 9.95 149.95 10.5 149.25 10.5ZM139.25 13C138.55 13 138 12.45 138 11.75C138 11.05 138.55 10.5 139.25 10.5C139.95 10.5 140.5 11.05 140.5 11.75C140.5 12.45 139.95 13 139.25 13ZM136.75 13C136.05 13 135.5 12.45 135.5 11.75C135.5 11.05 136.05 10.5 136.75 10.5C137.45 10.5 138 11.05 138 11.75C138 12.45 137.45 13 136.75 13ZM149.25 13C148.55 13 148 12.45 148 11.75C148 11.05 148.55 10.5 149.25 10.5C149.95 10.5 150.5 11.05 150.5 11.75C150.5 12.45 149.95 13 149.25 13ZM151.75 13C151.05 13 150.5 12.45 150.5 11.75C150.5 11.05 151.05 10.5 151.75 10.5C152.45 10.5 153 11.05 153 11.75C153 12.45 152.45 13 151.75 13ZM141.75 13C141.05 13 140.5 12.45 140.5 11.75C140.5 11.05 141.05 10.5 141.75 10.5C142.45 10.5 143 11.05 143 11.75C143 12.45 142.45 13 141.75 13ZM146.75 13C146.05 13 145.5 12.45 145.5 11.75C145.5 11.05 146.05 10.5 146.75 10.5C147.45 10.5 148 11.05 148 11.75C148 12.45 147.45 13 146.75 13ZM144.25 13C143.55 13 143 12.45 143 11.75C143 11.05 143.55 10.5 144.25 10.5C144.95 10.5 145.5 11.05 145.5 11.75C145.5 12.45 144.95 13 144.25 13ZM149.25 15.5C148.55 15.5 148 14.95 148 14.25C148 13.55 148.55 13 149.25 13C149.95 13 150.5 13.55 150.5 14.25C150.5 14.95 149.95 15.5 149.25 15.5ZM151.75 15.5C151.05 15.5 150.5 14.95 150.5 14.25C150.5 13.55 151.05 13 151.75 13C152.45 13 153 13.55 153 14.25C153 14.95 152.45 15.5 151.75 15.5ZM141.75 18C141.05 18 140.5 17.45 140.5 16.75C140.5 16.05 141.05 15.5 141.75 15.5C142.45 15.5 143 16.05 143 16.75C143 17.45 142.45 18 141.75 18ZM149.25 18C148.55 18 148 17.45 148 16.75C148 16.05 148.55 15.5 149.25 15.5C149.95 15.5 150.5 16.05 150.5 16.75C150.5 17.45 149.95 18 149.25 18ZM151.75 18C151.05 18 150.5 17.45 150.5 16.75C150.5 16.05 151.05 15.5 151.75 15.5C152.45 15.5 153 16.05 153 16.75C153 17.45 152.45 18 151.75 18ZM146.75 18C146.05 18 145.5 17.45 145.5 16.75C145.5 16.05 146.05 15.5 146.75 15.5C147.45 15.5 148 16.05 148 16.75C148 17.45 147.45 18 146.75 18ZM144.25 18C143.55 18 143 17.45 143 16.75C143 16.05 143.55 15.5 144.25 15.5C144.95 15.5 145.5 16.05 145.5 16.75C145.5 17.45 144.95 18 144.25 18ZM141.75 20.5C141.05 20.5 140.5 19.95 140.5 19.25C140.5 18.55 141.05 18 141.75 18C142.45 18 143 18.55 143 19.25C143 19.95 142.45 20.5 141.75 20.5ZM144.25 20.5C143.55 20.5 143 19.95 143 19.25C143 18.55 143.55 18 144.25 18C144.95 18 145.5 18.55 145.5 19.25C145.5 19.95 144.95 20.5 144.25 20.5ZM146.75 20.5C146.05 20.5 145.5 19.95 145.5 19.25C145.5 18.55 146.05 18 146.75 18C147.45 18 148 18.55 148 19.25C148 19.95 147.45 20.5 146.75 20.5ZM151.75 20.5C151.05 20.5 150.5 19.95 150.5 19.25C150.5 18.55 151.05 18 151.75 18C152.45 18 153 18.55 153 19.25C153 19.95 152.45 20.5 151.75 20.5ZM149.25 20.5C148.55 20.5 148 19.95 148 19.25C148 18.55 148.55 18 149.25 18C149.95 18 150.5 18.55 150.5 19.25C150.5 19.95 149.95 20.5 149.25 20.5ZM139.25 20.5C138.55 20.5 138 19.95 138 19.25C138 18.55 138.55 18 139.25 18C139.95 18 140.5 18.55 140.5 19.25C140.5 19.95 139.95 20.5 139.25 20.5ZM136.75 20.5C136.05 20.5 135.5 19.95 135.5 19.25C135.5 18.55 136.05 18 136.75 18C137.45 18 138 18.55 138 19.25C138 19.95 137.45 20.5 136.75 20.5ZM149.25 23C148.55 23 148 22.45 148 21.75C148 21.05 148.55 20.5 149.25 20.5C149.95 20.5 150.5 21.05 150.5 21.75C150.5 22.45 149.95 23 149.25 23ZM151.75 23C151.05 23 150.5 22.45 150.5 21.75C150.5 21.05 151.05 20.5 151.75 20.5C152.45 20.5 153 21.05 153 21.75C153 22.45 152.45 23 151.75 23ZM139.25 23C138.55 23 138 22.45 138 21.75C138 21.05 138.55 20.5 139.25 20.5C139.95 20.5 140.5 21.05 140.5 21.75C140.5 22.45 139.95 23 139.25 23ZM136.75 23C136.05 23 135.5 22.45 135.5 21.75C135.5 21.05 136.05 20.5 136.75 20.5C137.45 20.5 138 21.05 138 21.75C138 22.45 137.45 23 136.75 23ZM144.25 25.5C143.55 25.5 143 24.95 143 24.25C143 23.55 143.55 23 144.25 23C144.95 23 145.5 23.55 145.5 24.25C145.5 24.95 144.95 25.5 144.25 25.5ZM136.75 25.5C136.05 25.5 135.5 24.95 135.5 24.25C135.5 23.55 136.05 23 136.75 23C137.45 23 138 23.55 138 24.25C138 24.95 137.45 25.5 136.75 25.5ZM141.75 25.5C141.05 25.5 140.5 24.95 140.5 24.25C140.5 23.55 141.05 23 141.75 23C142.45 23 143 23.55 143 24.25C143 24.95 142.45 25.5 141.75 25.5ZM151.75 25.5C151.05 25.5 150.5 24.95 150.5 24.25C150.5 23.55 151.05 23 151.75 23C152.45 23 153 23.55 153 24.25C153 24.95 152.45 25.5 151.75 25.5ZM149.25 25.5C148.55 25.5 148 24.95 148 24.25C148 23.55 148.55 23 149.25 23C149.95 23 150.5 23.55 150.5 24.25C150.5 24.95 149.95 25.5 149.25 25.5ZM139.25 25.5C138.55 25.5 138 24.95 138 24.25C138 23.55 138.55 23 139.25 23C139.95 23 140.5 23.55 140.5 24.25C140.5 24.95 139.95 25.5 139.25 25.5ZM146.75 25.5C146.05 25.5 145.5 24.95 145.5 24.25C145.5 23.55 146.05 23 146.75 23C147.45 23 148 23.55 148 24.25C148 24.95 147.45 25.5 146.75 25.5ZM144.25 28C143.55 28 143 27.45 143 26.75C143 26.05 143.55 25.5 144.25 25.5C144.95 25.5 145.5 26.05 145.5 26.75C145.5 27.45 144.95 28 144.25 28ZM149.25 28C148.55 28 148 27.45 148 26.75C148 26.05 148.55 25.5 149.25 25.5C149.95 25.5 150.5 26.05 150.5 26.75C150.5 27.45 149.95 28 149.25 28ZM151.75 28C151.05 28 150.5 27.45 150.5 26.75C150.5 26.05 151.05 25.5 151.75 25.5C152.45 25.5 153 26.05 153 26.75C153 27.45 152.45 28 151.75 28ZM141.75 28C141.05 28 140.5 27.45 140.5 26.75C140.5 26.05 141.05 25.5 141.75 25.5C142.45 25.5 143 26.05 143 26.75C143 27.45 142.45 28 141.75 28ZM139.25 28C138.55 28 138 27.45 138 26.75C138 26.05 138.55 25.5 139.25 25.5C139.95 25.5 140.5 26.05 140.5 26.75C140.5 27.45 139.95 28 139.25 28ZM174.25 10.5C173.55 10.5 173 9.95 173 9.25C173 8.55 173.55 8 174.25 8C174.95 8 175.5 8.55 175.5 9.25C175.5 9.95 174.95 10.5 174.25 10.5ZM171.75 10.5C171.05 10.5 170.5 9.95 170.5 9.25C170.5 8.55 171.05 8 171.75 8C172.45 8 173 8.55 173 9.25C173 9.95 172.45 10.5 171.75 10.5ZM161.75 10.5C161.05 10.5 160.5 9.95 160.5 9.25C160.5 8.55 161.05 8 161.75 8C162.45 8 163 8.55 163 9.25C163 9.95 162.45 10.5 161.75 10.5ZM159.25 10.5C158.55 10.5 158 9.95 158 9.25C158 8.55 158.55 8 159.25 8C159.95 8 160.5 8.55 160.5 9.25C160.5 9.95 159.95 10.5 159.25 10.5ZM159.25 13C158.55 13 158 12.45 158 11.75C158 11.05 158.55 10.5 159.25 10.5C159.95 10.5 160.5 11.05 160.5 11.75C160.5 12.45 159.95 13 159.25 13ZM161.75 13C161.05 13 160.5 12.45 160.5 11.75C160.5 11.05 161.05 10.5 161.75 10.5C162.45 10.5 163 11.05 163 11.75C163 12.45 162.45 13 161.75 13ZM174.25 13C173.55 13 173 12.45 173 11.75C173 11.05 173.55 10.5 174.25 10.5C174.95 10.5 175.5 11.05 175.5 11.75C175.5 12.45 174.95 13 174.25 13ZM171.75 13C171.05 13 170.5 12.45 170.5 11.75C170.5 11.05 171.05 10.5 171.75 10.5C172.45 10.5 173 11.05 173 11.75C173 12.45 172.45 13 171.75 13ZM161.75 15.5C161.05 15.5 160.5 14.95 160.5 14.25C160.5 13.55 161.05 13 161.75 13C162.45 13 163 13.55 163 14.25C163 14.95 162.45 15.5 161.75 15.5ZM159.25 15.5C158.55 15.5 158 14.95 158 14.25C158 13.55 158.55 13 159.25 13C159.95 13 160.5 13.55 160.5 14.25C160.5 14.95 159.95 15.5 159.25 15.5ZM174.25 15.5C173.55 15.5 173 14.95 173 14.25C173 13.55 173.55 13 174.25 13C174.95 13 175.5 13.55 175.5 14.25C175.5 14.95 174.95 15.5 174.25 15.5ZM171.75 15.5C171.05 15.5 170.5 14.95 170.5 14.25C170.5 13.55 171.05 13 171.75 13C172.45 13 173 13.55 173 14.25C173 14.95 172.45 15.5 171.75 15.5ZM171.75 18C171.05 18 170.5 17.45 170.5 16.75C170.5 16.05 171.05 15.5 171.75 15.5C172.45 15.5 173 16.05 173 16.75C173 17.45 172.45 18 171.75 18ZM161.75 18C161.05 18 160.5 17.45 160.5 16.75C160.5 16.05 161.05 15.5 161.75 15.5C162.45 15.5 163 16.05 163 16.75C163 17.45 162.45 18 161.75 18ZM159.25 18C158.55 18 158 17.45 158 16.75C158 16.05 158.55 15.5 159.25 15.5C159.95 15.5 160.5 16.05 160.5 16.75C160.5 17.45 159.95 18 159.25 18ZM174.25 18C173.55 18 173 17.45 173 16.75C173 16.05 173.55 15.5 174.25 15.5C174.95 15.5 175.5 16.05 175.5 16.75C175.5 17.45 174.95 18 174.25 18ZM161.75 20.5C161.05 20.5 160.5 19.95 160.5 19.25C160.5 18.55 161.05 18 161.75 18C162.45 18 163 18.55 163 19.25C163 19.95 162.45 20.5 161.75 20.5ZM159.25 20.5C158.55 20.5 158 19.95 158 19.25C158 18.55 158.55 18 159.25 18C159.95 18 160.5 18.55 160.5 19.25C160.5 19.95 159.95 20.5 159.25 20.5ZM174.25 20.5C173.55 20.5 173 19.95 173 19.25C173 18.55 173.55 18 174.25 18C174.95 18 175.5 18.55 175.5 19.25C175.5 19.95 174.95 20.5 174.25 20.5ZM171.75 20.5C171.05 20.5 170.5 19.95 170.5 19.25C170.5 18.55 171.05 18 171.75 18C172.45 18 173 18.55 173 19.25C173 19.95 172.45 20.5 171.75 20.5ZM159.25 23C158.55 23 158 22.45 158 21.75C158 21.05 158.55 20.5 159.25 20.5C159.95 20.5 160.5 21.05 160.5 21.75C160.5 22.45 159.95 23 159.25 23ZM169.25 23C168.55 23 168 22.45 168 21.75C168 21.05 168.55 20.5 169.25 20.5C169.95 20.5 170.5 21.05 170.5 21.75C170.5 22.45 169.95 23 169.25 23ZM171.75 23C171.05 23 170.5 22.45 170.5 21.75C170.5 21.05 171.05 20.5 171.75 20.5C172.45 20.5 173 21.05 173 21.75C173 22.45 172.45 23 171.75 23ZM174.25 23C173.55 23 173 22.45 173 21.75C173 21.05 173.55 20.5 174.25 20.5C174.95 20.5 175.5 21.05 175.5 21.75C175.5 22.45 174.95 23 174.25 23ZM161.75 23C161.05 23 160.5 22.45 160.5 21.75C160.5 21.05 161.05 20.5 161.75 20.5C162.45 20.5 163 21.05 163 21.75C163 22.45 162.45 23 161.75 23ZM169.25 25.5C168.55 25.5 168 24.95 168 24.25C168 23.55 168.55 23 169.25 23C169.95 23 170.5 23.55 170.5 24.25C170.5 24.95 169.95 25.5 169.25 25.5ZM171.75 25.5C171.05 25.5 170.5 24.95 170.5 24.25C170.5 23.55 171.05 23 171.75 23C172.45 23 173 23.55 173 24.25C173 24.95 172.45 25.5 171.75 25.5ZM166.75 25.5C166.05 25.5 165.5 24.95 165.5 24.25C165.5 23.55 166.05 23 166.75 23C167.45 23 168 23.55 168 24.25C168 24.95 167.45 25.5 166.75 25.5ZM164.25 25.5C163.55 25.5 163 24.95 163 24.25C163 23.55 163.55 23 164.25 23C164.95 23 165.5 23.55 165.5 24.25C165.5 24.95 164.95 25.5 164.25 25.5ZM174.25 25.5C173.55 25.5 173 24.95 173 24.25C173 23.55 173.55 23 174.25 23C174.95 23 175.5 23.55 175.5 24.25C175.5 24.95 174.95 25.5 174.25 25.5ZM161.75 25.5C161.05 25.5 160.5 24.95 160.5 24.25C160.5 23.55 161.05 23 161.75 23C162.45 23 163 23.55 163 24.25C163 24.95 162.45 25.5 161.75 25.5ZM159.25 25.5C158.55 25.5 158 24.95 158 24.25C158 23.55 158.55 23 159.25 23C159.95 23 160.5 23.55 160.5 24.25C160.5 24.95 159.95 25.5 159.25 25.5ZM171.75 28C171.05 28 170.5 27.45 170.5 26.75C170.5 26.05 171.05 25.5 171.75 25.5C172.45 25.5 173 26.05 173 26.75C173 27.45 172.45 28 171.75 28ZM166.75 28C166.05 28 165.5 27.45 165.5 26.75C165.5 26.05 166.05 25.5 166.75 25.5C167.45 25.5 168 26.05 168 26.75C168 27.45 167.45 28 166.75 28ZM164.25 28C163.55 28 163 27.45 163 26.75C163 26.05 163.55 25.5 164.25 25.5C164.95 25.5 165.5 26.05 165.5 26.75C165.5 27.45 164.95 28 164.25 28ZM174.25 28C173.55 28 173 27.45 173 26.75C173 26.05 173.55 25.5 174.25 25.5C174.95 25.5 175.5 26.05 175.5 26.75C175.5 27.45 174.95 28 174.25 28ZM161.75 28C161.05 28 160.5 27.45 160.5 26.75C160.5 26.05 161.05 25.5 161.75 25.5C162.45 25.5 163 26.05 163 26.75C163 27.45 162.45 28 161.75 28ZM189.25 10.5C188.55 10.5 188 9.95 188 9.25C188 8.55 188.55 8 189.25 8C189.95 8 190.5 8.55 190.5 9.25C190.5 9.95 189.95 10.5 189.25 10.5ZM194.25 10.5C193.55 10.5 193 9.95 193 9.25C193 8.55 193.55 8 194.25 8C194.95 8 195.5 8.55 195.5 9.25C195.5 9.95 194.95 10.5 194.25 10.5ZM191.75 10.5C191.05 10.5 190.5 9.95 190.5 9.25C190.5 8.55 191.05 8 191.75 8C192.45 8 193 8.55 193 9.25C193 9.95 192.45 10.5 191.75 10.5ZM186.75 10.5C186.05 10.5 185.5 9.95 185.5 9.25C185.5 8.55 186.05 8 186.75 8C187.45 8 188 8.55 188 9.25C188 9.95 187.45 10.5 186.75 10.5ZM184.25 10.5C183.55 10.5 183 9.95 183 9.25C183 8.55 183.55 8 184.25 8C184.95 8 185.5 8.55 185.5 9.25C185.5 9.95 184.95 10.5 184.25 10.5ZM191.75 13C191.05 13 190.5 12.45 190.5 11.75C190.5 11.05 191.05 10.5 191.75 10.5C192.45 10.5 193 11.05 193 11.75C193 12.45 192.45 13 191.75 13ZM189.25 13C188.55 13 188 12.45 188 11.75C188 11.05 188.55 10.5 189.25 10.5C189.95 10.5 190.5 11.05 190.5 11.75C190.5 12.45 189.95 13 189.25 13ZM186.75 13C186.05 13 185.5 12.45 185.5 11.75C185.5 11.05 186.05 10.5 186.75 10.5C187.45 10.5 188 11.05 188 11.75C188 12.45 187.45 13 186.75 13ZM194.25 13C193.55 13 193 12.45 193 11.75C193 11.05 193.55 10.5 194.25 10.5C194.95 10.5 195.5 11.05 195.5 11.75C195.5 12.45 194.95 13 194.25 13ZM196.75 13C196.05 13 195.5 12.45 195.5 11.75C195.5 11.05 196.05 10.5 196.75 10.5C197.45 10.5 198 11.05 198 11.75C198 12.45 197.45 13 196.75 13ZM181.75 13C181.05 13 180.5 12.45 180.5 11.75C180.5 11.05 181.05 10.5 181.75 10.5C182.45 10.5 183 11.05 183 11.75C183 12.45 182.45 13 181.75 13ZM184.25 13C183.55 13 183 12.45 183 11.75C183 11.05 183.55 10.5 184.25 10.5C184.95 10.5 185.5 11.05 185.5 11.75C185.5 12.45 184.95 13 184.25 13ZM181.75 15.5C181.05 15.5 180.5 14.95 180.5 14.25C180.5 13.55 181.05 13 181.75 13C182.45 13 183 13.55 183 14.25C183 14.95 182.45 15.5 181.75 15.5ZM184.25 15.5C183.55 15.5 183 14.95 183 14.25C183 13.55 183.55 13 184.25 13C184.95 13 185.5 13.55 185.5 14.25C185.5 14.95 184.95 15.5 184.25 15.5ZM194.25 18C193.55 18 193 17.45 193 16.75C193 16.05 193.55 15.5 194.25 15.5C194.95 15.5 195.5 16.05 195.5 16.75C195.5 17.45 194.95 18 194.25 18ZM191.75 18C191.05 18 190.5 17.45 190.5 16.75C190.5 16.05 191.05 15.5 191.75 15.5C192.45 15.5 193 16.05 193 16.75C193 17.45 192.45 18 191.75 18ZM189.25 18C188.55 18 188 17.45 188 16.75C188 16.05 188.55 15.5 189.25 15.5C189.95 15.5 190.5 16.05 190.5 16.75C190.5 17.45 189.95 18 189.25 18ZM186.75 18C186.05 18 185.5 17.45 185.5 16.75C185.5 16.05 186.05 15.5 186.75 15.5C187.45 15.5 188 16.05 188 16.75C188 17.45 187.45 18 186.75 18ZM184.25 18C183.55 18 183 17.45 183 16.75C183 16.05 183.55 15.5 184.25 15.5C184.95 15.5 185.5 16.05 185.5 16.75C185.5 17.45 184.95 18 184.25 18ZM181.75 18C181.05 18 180.5 17.45 180.5 16.75C180.5 16.05 181.05 15.5 181.75 15.5C182.45 15.5 183 16.05 183 16.75C183 17.45 182.45 18 181.75 18ZM196.75 20.5C196.05 20.5 195.5 19.95 195.5 19.25C195.5 18.55 196.05 18 196.75 18C197.45 18 198 18.55 198 19.25C198 19.95 197.45 20.5 196.75 20.5ZM191.75 20.5C191.05 20.5 190.5 19.95 190.5 19.25C190.5 18.55 191.05 18 191.75 18C192.45 18 193 18.55 193 19.25C193 19.95 192.45 20.5 191.75 20.5ZM194.25 20.5C193.55 20.5 193 19.95 193 19.25C193 18.55 193.55 18 194.25 18C194.95 18 195.5 18.55 195.5 19.25C195.5 19.95 194.95 20.5 194.25 20.5ZM186.75 20.5C186.05 20.5 185.5 19.95 185.5 19.25C185.5 18.55 186.05 18 186.75 18C187.45 18 188 18.55 188 19.25C188 19.95 187.45 20.5 186.75 20.5ZM189.25 20.5C188.55 20.5 188 19.95 188 19.25C188 18.55 188.55 18 189.25 18C189.95 18 190.5 18.55 190.5 19.25C190.5 19.95 189.95 20.5 189.25 20.5ZM184.25 20.5C183.55 20.5 183 19.95 183 19.25C183 18.55 183.55 18 184.25 18C184.95 18 185.5 18.55 185.5 19.25C185.5 19.95 184.95 20.5 184.25 20.5ZM196.75 23C196.05 23 195.5 22.45 195.5 21.75C195.5 21.05 196.05 20.5 196.75 20.5C197.45 20.5 198 21.05 198 21.75C198 22.45 197.45 23 196.75 23ZM194.25 23C193.55 23 193 22.45 193 21.75C193 21.05 193.55 20.5 194.25 20.5C194.95 20.5 195.5 21.05 195.5 21.75C195.5 22.45 194.95 23 194.25 23ZM196.75 25.5C196.05 25.5 195.5 24.95 195.5 24.25C195.5 23.55 196.05 23 196.75 23C197.45 23 198 23.55 198 24.25C198 24.95 197.45 25.5 196.75 25.5ZM194.25 25.5C193.55 25.5 193 24.95 193 24.25C193 23.55 193.55 23 194.25 23C194.95 23 195.5 23.55 195.5 24.25C195.5 24.95 194.95 25.5 194.25 25.5ZM186.75 25.5C186.05 25.5 185.5 24.95 185.5 24.25C185.5 23.55 186.05 23 186.75 23C187.45 23 188 23.55 188 24.25C188 24.95 187.45 25.5 186.75 25.5ZM189.25 25.5C188.55 25.5 188 24.95 188 24.25C188 23.55 188.55 23 189.25 23C189.95 23 190.5 23.55 190.5 24.25C190.5 24.95 189.95 25.5 189.25 25.5ZM191.75 25.5C191.05 25.5 190.5 24.95 190.5 24.25C190.5 23.55 191.05 23 191.75 23C192.45 23 193 23.55 193 24.25C193 24.95 192.45 25.5 191.75 25.5ZM184.25 25.5C183.55 25.5 183 24.95 183 24.25C183 23.55 183.55 23 184.25 23C184.95 23 185.5 23.55 185.5 24.25C185.5 24.95 184.95 25.5 184.25 25.5ZM181.75 25.5C181.05 25.5 180.5 24.95 180.5 24.25C180.5 23.55 181.05 23 181.75 23C182.45 23 183 23.55 183 24.25C183 24.95 182.45 25.5 181.75 25.5ZM189.25 28C188.55 28 188 27.45 188 26.75C188 26.05 188.55 25.5 189.25 25.5C189.95 25.5 190.5 26.05 190.5 26.75C190.5 27.45 189.95 28 189.25 28ZM194.25 28C193.55 28 193 27.45 193 26.75C193 26.05 193.55 25.5 194.25 25.5C194.95 25.5 195.5 26.05 195.5 26.75C195.5 27.45 194.95 28 194.25 28ZM191.75 28C191.05 28 190.5 27.45 190.5 26.75C190.5 26.05 191.05 25.5 191.75 25.5C192.45 25.5 193 26.05 193 26.75C193 27.45 192.45 28 191.75 28ZM186.75 28C186.05 28 185.5 27.45 185.5 26.75C185.5 26.05 186.05 25.5 186.75 25.5C187.45 25.5 188 26.05 188 26.75C188 27.45 187.45 28 186.75 28ZM184.25 28C183.55 28 183 27.45 183 26.75C183 26.05 183.55 25.5 184.25 25.5C184.95 25.5 185.5 26.05 185.5 26.75C185.5 27.45 184.95 28 184.25 28ZM214.25 10.5C213.55 10.5 213 9.95 213 9.25C213 8.55 213.55 8 214.25 8C214.95 8 215.5 8.55 215.5 9.25C215.5 9.95 214.95 10.5 214.25 10.5ZM211.75 10.5C211.05 10.5 210.5 9.95 210.5 9.25C210.5 8.55 211.05 8 211.75 8C212.45 8 213 8.55 213 9.25C213 9.95 212.45 10.5 211.75 10.5ZM209.25 10.5C208.55 10.5 208 9.95 208 9.25C208 8.55 208.55 8 209.25 8C209.95 8 210.5 8.55 210.5 9.25C210.5 9.95 209.95 10.5 209.25 10.5ZM214.25 13C213.55 13 213 12.45 213 11.75C213 11.05 213.55 10.5 214.25 10.5C214.95 10.5 215.5 11.05 215.5 11.75C215.5 12.45 214.95 13 214.25 13ZM206.75 13C206.05 13 205.5 12.45 205.5 11.75C205.5 11.05 206.05 10.5 206.75 10.5C207.45 10.5 208 11.05 208 11.75C208 12.45 207.45 13 206.75 13ZM216.75 13C216.05 13 215.5 12.45 215.5 11.75C215.5 11.05 216.05 10.5 216.75 10.5C217.45 10.5 218 11.05 218 11.75C218 12.45 217.45 13 216.75 13ZM211.75 13C211.05 13 210.5 12.45 210.5 11.75C210.5 11.05 211.05 10.5 211.75 10.5C212.45 10.5 213 11.05 213 11.75C213 12.45 212.45 13 211.75 13ZM209.25 13C208.55 13 208 12.45 208 11.75C208 11.05 208.55 10.5 209.25 10.5C209.95 10.5 210.5 11.05 210.5 11.75C210.5 12.45 209.95 13 209.25 13ZM204.25 15.5C203.55 15.5 203 14.95 203 14.25C203 13.55 203.55 13 204.25 13C204.95 13 205.5 13.55 205.5 14.25C205.5 14.95 204.95 15.5 204.25 15.5ZM216.75 15.5C216.05 15.5 215.5 14.95 215.5 14.25C215.5 13.55 216.05 13 216.75 13C217.45 13 218 13.55 218 14.25C218 14.95 217.45 15.5 216.75 15.5ZM206.75 15.5C206.05 15.5 205.5 14.95 205.5 14.25C205.5 13.55 206.05 13 206.75 13C207.45 13 208 13.55 208 14.25C208 14.95 207.45 15.5 206.75 15.5ZM219.25 15.5C218.55 15.5 218 14.95 218 14.25C218 13.55 218.55 13 219.25 13C219.95 13 220.5 13.55 220.5 14.25C220.5 14.95 219.95 15.5 219.25 15.5ZM206.75 18C206.05 18 205.5 17.45 205.5 16.75C205.5 16.05 206.05 15.5 206.75 15.5C207.45 15.5 208 16.05 208 16.75C208 17.45 207.45 18 206.75 18ZM216.75 18C216.05 18 215.5 17.45 215.5 16.75C215.5 16.05 216.05 15.5 216.75 15.5C217.45 15.5 218 16.05 218 16.75C218 17.45 217.45 18 216.75 18ZM219.25 18C218.55 18 218 17.45 218 16.75C218 16.05 218.55 15.5 219.25 15.5C219.95 15.5 220.5 16.05 220.5 16.75C220.5 17.45 219.95 18 219.25 18ZM204.25 18C203.55 18 203 17.45 203 16.75C203 16.05 203.55 15.5 204.25 15.5C204.95 15.5 205.5 16.05 205.5 16.75C205.5 17.45 204.95 18 204.25 18ZM209.25 18C208.55 18 208 17.45 208 16.75C208 16.05 208.55 15.5 209.25 15.5C209.95 15.5 210.5 16.05 210.5 16.75C210.5 17.45 209.95 18 209.25 18ZM211.75 18C211.05 18 210.5 17.45 210.5 16.75C210.5 16.05 211.05 15.5 211.75 15.5C212.45 15.5 213 16.05 213 16.75C213 17.45 212.45 18 211.75 18ZM214.25 18C213.55 18 213 17.45 213 16.75C213 16.05 213.55 15.5 214.25 15.5C214.95 15.5 215.5 16.05 215.5 16.75C215.5 17.45 214.95 18 214.25 18ZM206.75 20.5C206.05 20.5 205.5 19.95 205.5 19.25C205.5 18.55 206.05 18 206.75 18C207.45 18 208 18.55 208 19.25C208 19.95 207.45 20.5 206.75 20.5ZM209.25 20.5C208.55 20.5 208 19.95 208 19.25C208 18.55 208.55 18 209.25 18C209.95 18 210.5 18.55 210.5 19.25C210.5 19.95 209.95 20.5 209.25 20.5ZM211.75 20.5C211.05 20.5 210.5 19.95 210.5 19.25C210.5 18.55 211.05 18 211.75 18C212.45 18 213 18.55 213 19.25C213 19.95 212.45 20.5 211.75 20.5ZM214.25 20.5C213.55 20.5 213 19.95 213 19.25C213 18.55 213.55 18 214.25 18C214.95 18 215.5 18.55 215.5 19.25C215.5 19.95 214.95 20.5 214.25 20.5ZM216.75 20.5C216.05 20.5 215.5 19.95 215.5 19.25C215.5 18.55 216.05 18 216.75 18C217.45 18 218 18.55 218 19.25C218 19.95 217.45 20.5 216.75 20.5ZM219.25 20.5C218.55 20.5 218 19.95 218 19.25C218 18.55 218.55 18 219.25 18C219.95 18 220.5 18.55 220.5 19.25C220.5 19.95 219.95 20.5 219.25 20.5ZM204.25 20.5C203.55 20.5 203 19.95 203 19.25C203 18.55 203.55 18 204.25 18C204.95 18 205.5 18.55 205.5 19.25C205.5 19.95 204.95 20.5 204.25 20.5ZM206.75 23C206.05 23 205.5 22.45 205.5 21.75C205.5 21.05 206.05 20.5 206.75 20.5C207.45 20.5 208 21.05 208 21.75C208 22.45 207.45 23 206.75 23ZM204.25 23C203.55 23 203 22.45 203 21.75C203 21.05 203.55 20.5 204.25 20.5C204.95 20.5 205.5 21.05 205.5 21.75C205.5 22.45 204.95 23 204.25 23ZM206.75 25.5C206.05 25.5 205.5 24.95 205.5 24.25C205.5 23.55 206.05 23 206.75 23C207.45 23 208 23.55 208 24.25C208 24.95 207.45 25.5 206.75 25.5ZM209.25 25.5C208.55 25.5 208 24.95 208 24.25C208 23.55 208.55 23 209.25 23C209.95 23 210.5 23.55 210.5 24.25C210.5 24.95 209.95 25.5 209.25 25.5ZM211.75 25.5C211.05 25.5 210.5 24.95 210.5 24.25C210.5 23.55 211.05 23 211.75 23C212.45 23 213 23.55 213 24.25C213 24.95 212.45 25.5 211.75 25.5ZM214.25 25.5C213.55 25.5 213 24.95 213 24.25C213 23.55 213.55 23 214.25 23C214.95 23 215.5 23.55 215.5 24.25C215.5 24.95 214.95 25.5 214.25 25.5ZM216.75 25.5C216.05 25.5 215.5 24.95 215.5 24.25C215.5 23.55 216.05 23 216.75 23C217.45 23 218 23.55 218 24.25C218 24.95 217.45 25.5 216.75 25.5ZM219.25 25.5C218.55 25.5 218 24.95 218 24.25C218 23.55 218.55 23 219.25 23C219.95 23 220.5 23.55 220.5 24.25C220.5 24.95 219.95 25.5 219.25 25.5ZM209.25 28C208.55 28 208 27.45 208 26.75C208 26.05 208.55 25.5 209.25 25.5C209.95 25.5 210.5 26.05 210.5 26.75C210.5 27.45 209.95 28 209.25 28ZM211.75 28C211.05 28 210.5 27.45 210.5 26.75C210.5 26.05 211.05 25.5 211.75 25.5C212.45 25.5 213 26.05 213 26.75C213 27.45 212.45 28 211.75 28ZM214.25 28C213.55 28 213 27.45 213 26.75C213 26.05 213.55 25.5 214.25 25.5C214.95 25.5 215.5 26.05 215.5 26.75C215.5 27.45 214.95 28 214.25 28ZM216.75 28C216.05 28 215.5 27.45 215.5 26.75C215.5 26.05 216.05 25.5 216.75 25.5C217.45 25.5 218 26.05 218 26.75C218 27.45 217.45 28 216.75 28ZM244.25 3C243.55 3 243 2.45 243 1.75C243 1.05 243.55 0.5 244.25 0.5C244.95 0.5 245.5 1.05 245.5 1.75C245.5 2.45 244.95 3 244.25 3ZM241.75 3C241.05 3 240.5 2.45 240.5 1.75C240.5 1.05 241.05 0.5 241.75 0.5C242.45 0.5 243 1.05 243 1.75C243 2.45 242.45 3 241.75 3ZM244.25 5.5C243.55 5.5 243 4.95 243 4.25C243 3.55 243.55 3 244.25 3C244.95 3 245.5 3.55 245.5 4.25C245.5 4.95 244.95 5.5 244.25 5.5ZM241.75 5.5C241.05 5.5 240.5 4.95 240.5 4.25C240.5 3.55 241.05 3 241.75 3C242.45 3 243 3.55 243 4.25C243 4.95 242.45 5.5 241.75 5.5ZM244.25 8C243.55 8 243 7.45 243 6.75C243 6.05 243.55 5.5 244.25 5.5C244.95 5.5 245.5 6.05 245.5 6.75C245.5 7.45 244.95 8 244.25 8ZM241.75 8C241.05 8 240.5 7.45 240.5 6.75C240.5 6.05 241.05 5.5 241.75 5.5C242.45 5.5 243 6.05 243 6.75C243 7.45 242.45 8 241.75 8ZM239.25 10.5C238.55 10.5 238 9.95 238 9.25C238 8.55 238.55 8 239.25 8C239.95 8 240.5 8.55 240.5 9.25C240.5 9.95 239.95 10.5 239.25 10.5ZM231.75 10.5C231.05 10.5 230.5 9.95 230.5 9.25C230.5 8.55 231.05 8 231.75 8C232.45 8 233 8.55 233 9.25C233 9.95 232.45 10.5 231.75 10.5ZM234.25 10.5C233.55 10.5 233 9.95 233 9.25C233 8.55 233.55 8 234.25 8C234.95 8 235.5 8.55 235.5 9.25C235.5 9.95 234.95 10.5 234.25 10.5ZM236.75 10.5C236.05 10.5 235.5 9.95 235.5 9.25C235.5 8.55 236.05 8 236.75 8C237.45 8 238 8.55 238 9.25C238 9.95 237.45 10.5 236.75 10.5ZM244.25 10.5C243.55 10.5 243 9.95 243 9.25C243 8.55 243.55 8 244.25 8C244.95 8 245.5 8.55 245.5 9.25C245.5 9.95 244.95 10.5 244.25 10.5ZM241.75 10.5C241.05 10.5 240.5 9.95 240.5 9.25C240.5 8.55 241.05 8 241.75 8C242.45 8 243 8.55 243 9.25C243 9.95 242.45 10.5 241.75 10.5ZM231.75 13C231.05 13 230.5 12.45 230.5 11.75C230.5 11.05 231.05 10.5 231.75 10.5C232.45 10.5 233 11.05 233 11.75C233 12.45 232.45 13 231.75 13ZM234.25 13C233.55 13 233 12.45 233 11.75C233 11.05 233.55 10.5 234.25 10.5C234.95 10.5 235.5 11.05 235.5 11.75C235.5 12.45 234.95 13 234.25 13ZM236.75 13C236.05 13 235.5 12.45 235.5 11.75C235.5 11.05 236.05 10.5 236.75 10.5C237.45 10.5 238 11.05 238 11.75C238 12.45 237.45 13 236.75 13ZM229.25 13C228.55 13 228 12.45 228 11.75C228 11.05 228.55 10.5 229.25 10.5C229.95 10.5 230.5 11.05 230.5 11.75C230.5 12.45 229.95 13 229.25 13ZM239.25 13C238.55 13 238 12.45 238 11.75C238 11.05 238.55 10.5 239.25 10.5C239.95 10.5 240.5 11.05 240.5 11.75C240.5 12.45 239.95 13 239.25 13ZM241.75 13C241.05 13 240.5 12.45 240.5 11.75C240.5 11.05 241.05 10.5 241.75 10.5C242.45 10.5 243 11.05 243 11.75C243 12.45 242.45 13 241.75 13ZM244.25 13C243.55 13 243 12.45 243 11.75C243 11.05 243.55 10.5 244.25 10.5C244.95 10.5 245.5 11.05 245.5 11.75C245.5 12.45 244.95 13 244.25 13ZM231.75 15.5C231.05 15.5 230.5 14.95 230.5 14.25C230.5 13.55 231.05 13 231.75 13C232.45 13 233 13.55 233 14.25C233 14.95 232.45 15.5 231.75 15.5ZM226.75 15.5C226.05 15.5 225.5 14.95 225.5 14.25C225.5 13.55 226.05 13 226.75 13C227.45 13 228 13.55 228 14.25C228 14.95 227.45 15.5 226.75 15.5ZM241.75 15.5C241.05 15.5 240.5 14.95 240.5 14.25C240.5 13.55 241.05 13 241.75 13C242.45 13 243 13.55 243 14.25C243 14.95 242.45 15.5 241.75 15.5ZM244.25 15.5C243.55 15.5 243 14.95 243 14.25C243 13.55 243.55 13 244.25 13C244.95 13 245.5 13.55 245.5 14.25C245.5 14.95 244.95 15.5 244.25 15.5ZM229.25 15.5C228.55 15.5 228 14.95 228 14.25C228 13.55 228.55 13 229.25 13C229.95 13 230.5 13.55 230.5 14.25C230.5 14.95 229.95 15.5 229.25 15.5ZM226.75 18C226.05 18 225.5 17.45 225.5 16.75C225.5 16.05 226.05 15.5 226.75 15.5C227.45 15.5 228 16.05 228 16.75C228 17.45 227.45 18 226.75 18ZM241.75 18C241.05 18 240.5 17.45 240.5 16.75C240.5 16.05 241.05 15.5 241.75 15.5C242.45 15.5 243 16.05 243 16.75C243 17.45 242.45 18 241.75 18ZM244.25 18C243.55 18 243 17.45 243 16.75C243 16.05 243.55 15.5 244.25 15.5C244.95 15.5 245.5 16.05 245.5 16.75C245.5 17.45 244.95 18 244.25 18ZM229.25 18C228.55 18 228 17.45 228 16.75C228 16.05 228.55 15.5 229.25 15.5C229.95 15.5 230.5 16.05 230.5 16.75C230.5 17.45 229.95 18 229.25 18ZM226.75 20.5C226.05 20.5 225.5 19.95 225.5 19.25C225.5 18.55 226.05 18 226.75 18C227.45 18 228 18.55 228 19.25C228 19.95 227.45 20.5 226.75 20.5ZM229.25 20.5C228.55 20.5 228 19.95 228 19.25C228 18.55 228.55 18 229.25 18C229.95 18 230.5 18.55 230.5 19.25C230.5 19.95 229.95 20.5 229.25 20.5ZM241.75 20.5C241.05 20.5 240.5 19.95 240.5 19.25C240.5 18.55 241.05 18 241.75 18C242.45 18 243 18.55 243 19.25C243 19.95 242.45 20.5 241.75 20.5ZM244.25 20.5C243.55 20.5 243 19.95 243 19.25C243 18.55 243.55 18 244.25 18C244.95 18 245.5 18.55 245.5 19.25C245.5 19.95 244.95 20.5 244.25 20.5ZM231.75 23C231.05 23 230.5 22.45 230.5 21.75C230.5 21.05 231.05 20.5 231.75 20.5C232.45 20.5 233 21.05 233 21.75C233 22.45 232.45 23 231.75 23ZM244.25 23C243.55 23 243 22.45 243 21.75C243 21.05 243.55 20.5 244.25 20.5C244.95 20.5 245.5 21.05 245.5 21.75C245.5 22.45 244.95 23 244.25 23ZM241.75 23C241.05 23 240.5 22.45 240.5 21.75C240.5 21.05 241.05 20.5 241.75 20.5C242.45 20.5 243 21.05 243 21.75C243 22.45 242.45 23 241.75 23ZM239.25 23C238.55 23 238 22.45 238 21.75C238 21.05 238.55 20.5 239.25 20.5C239.95 20.5 240.5 21.05 240.5 21.75C240.5 22.45 239.95 23 239.25 23ZM226.75 23C226.05 23 225.5 22.45 225.5 21.75C225.5 21.05 226.05 20.5 226.75 20.5C227.45 20.5 228 21.05 228 21.75C228 22.45 227.45 23 226.75 23ZM229.25 23C228.55 23 228 22.45 228 21.75C228 21.05 228.55 20.5 229.25 20.5C229.95 20.5 230.5 21.05 230.5 21.75C230.5 22.45 229.95 23 229.25 23ZM241.75 25.5C241.05 25.5 240.5 24.95 240.5 24.25C240.5 23.55 241.05 23 241.75 23C242.45 23 243 23.55 243 24.25C243 24.95 242.45 25.5 241.75 25.5ZM236.75 25.5C236.05 25.5 235.5 24.95 235.5 24.25C235.5 23.55 236.05 23 236.75 23C237.45 23 238 23.55 238 24.25C238 24.95 237.45 25.5 236.75 25.5ZM239.25 25.5C238.55 25.5 238 24.95 238 24.25C238 23.55 238.55 23 239.25 23C239.95 23 240.5 23.55 240.5 24.25C240.5 24.95 239.95 25.5 239.25 25.5ZM234.25 25.5C233.55 25.5 233 24.95 233 24.25C233 23.55 233.55 23 234.25 23C234.95 23 235.5 23.55 235.5 24.25C235.5 24.95 234.95 25.5 234.25 25.5ZM231.75 25.5C231.05 25.5 230.5 24.95 230.5 24.25C230.5 23.55 231.05 23 231.75 23C232.45 23 233 23.55 233 24.25C233 24.95 232.45 25.5 231.75 25.5ZM229.25 25.5C228.55 25.5 228 24.95 228 24.25C228 23.55 228.55 23 229.25 23C229.95 23 230.5 23.55 230.5 24.25C230.5 24.95 229.95 25.5 229.25 25.5ZM244.25 25.5C243.55 25.5 243 24.95 243 24.25C243 23.55 243.55 23 244.25 23C244.95 23 245.5 23.55 245.5 24.25C245.5 24.95 244.95 25.5 244.25 25.5ZM244.25 28C243.55 28 243 27.45 243 26.75C243 26.05 243.55 25.5 244.25 25.5C244.95 25.5 245.5 26.05 245.5 26.75C245.5 27.45 244.95 28 244.25 28ZM241.75 28C241.05 28 240.5 27.45 240.5 26.75C240.5 26.05 241.05 25.5 241.75 25.5C242.45 25.5 243 26.05 243 26.75C243 27.45 242.45 28 241.75 28ZM236.75 28C236.05 28 235.5 27.45 235.5 26.75C235.5 26.05 236.05 25.5 236.75 25.5C237.45 25.5 238 26.05 238 26.75C238 27.45 237.45 28 236.75 28ZM234.25 28C233.55 28 233 27.45 233 26.75C233 26.05 233.55 25.5 234.25 25.5C234.95 25.5 235.5 26.05 235.5 26.75C235.5 27.45 234.95 28 234.25 28ZM231.75 28C231.05 28 230.5 27.45 230.5 26.75C230.5 26.05 231.05 25.5 231.75 25.5C232.45 25.5 233 26.05 233 26.75C233 27.45 232.45 28 231.75 28Z"
        fill="#0C0C0C" />
</svg>