<svg width="100" height="100" viewBox="0 0 100 100" fill="none" xmlns="http://www.w3.org/2000/svg">
<path fill-rule="evenodd" clip-rule="evenodd" d="M49.9616 34.144C48.8346 33.8319 47.539 33.8682 46.3828 33.948C45.2086 34.0291 43.9486 34.1682 42.8467 34.6068C41.8889 34.9881 41.0812 35.6293 40.589 36.5481C40.1844 37.3034 39.9946 38.1317 39.8757 38.9731C39.827 39.3174 39.7863 39.6625 39.7476 40.008L39.668 40.7267C39.6368 41.0015 39.6096 41.2076 39.5549 41.5142C39.4037 42.3623 39.1931 43.0708 38.723 43.6879C37.5845 45.1816 35.7255 45.6816 34.035 46.3192C32.9532 46.7272 32.0966 47.4611 31.8589 48.6404C31.6296 49.778 22.9113 59.3226 22.0554 60.1272L22.0319 60.1489C21.368 60.7469 21.4461 61.871 21.3532 62.6917C21.2537 63.5717 21.1589 64.4523 21.0689 65.3332C20.8863 67.1228 20.7235 68.9144 20.5807 70.7076C20.0223 77.7205 19.769 84.7578 19.8228 91.7926L19.8262 92.1908C19.8345 93.0836 19.8279 93.9803 19.8679 94.8722C19.9064 95.7295 20.1657 96.5874 20.9597 97.0352C21.6952 97.45 22.6254 97.4135 23.4475 97.4549L23.4967 97.4575C24.3788 97.5058 25.2612 97.5454 26.1441 97.5781C29.7321 97.7109 33.3234 97.7253 36.9136 97.7087C44.0358 97.6759 51.1651 97.5193 58.2806 97.9182C60.0944 98.0199 65.8769 97.402 67.685 97.5781C69.4132 97.7463 67.9304 98.5942 68.998 98.5384C72.5091 98.3546 75.8394 97.5709 79.2034 96.6269C79.6236 96.509 79.945 96.101 79.9397 95.66C79.8772 90.8162 79.7405 85.9737 79.5269 81.1342C79.3366 76.8233 79.0859 72.5151 78.7749 68.2113C78.6396 66.3405 78.493 64.4705 78.3351 62.6015L78.2667 61.8006C78.1775 60.7677 78.1261 59.7159 77.9231 58.6973C77.7223 57.69 77.2667 56.8164 76.606 56.0358C76.0132 55.3356 69.3015 49.8537 67.685 48.8159C66.1378 47.8224 64.5131 46.9843 62.9247 46.0636C62.2639 45.6806 61.6292 45.8184 61.0647 45.3482C60.7671 45.1003 56.4486 43.4302 55.2834 42.8791L55.2491 42.8628C54.3573 42.4348 53.5367 41.9707 52.9205 41.2306C52.7139 40.9825 52.3088 39.4195 52.308 38.9201C52.3066 38.028 52.3742 37.0882 52.1052 36.224C51.7835 35.1906 51.0081 34.4337 49.9616 34.144ZM48.051 57.1467L54.9516 70.5905H50.4644L53.6808 78.0601H46.6174L49.123 88.5227L34.794 70.5905H40.171L34.794 63.5302H38.5234L34.794 57.551L48.051 57.1467Z" fill="white"/>
<path fill-rule="evenodd" clip-rule="evenodd" d="M24.8704 64.7064C24.8863 64.7223 24.9031 64.7383 24.919 64.7551C24.9006 64.7291 24.8846 64.7021 24.8704 64.6754V64.7064ZM38.2812 60.7902C38.901 61.5823 39.5568 63.1938 40.1589 64C40.2452 64.1157 40.3299 64.2316 40.4138 64.3481C40.6637 64.698 40.3299 65.2332 39.919 65.2106C39.098 65.1669 38.2779 65.1058 37.4577 65.0437C39.1425 66.9219 40.5413 69.2551 42.0885 71.2449C42.1933 71.3783 42.2964 71.5126 42.3996 71.6468C42.7912 72.1577 42.3988 72.3893 41.8637 72.2516C41.753 72.2232 41.6423 72.1947 41.5316 72.167C40.7534 71.9673 39.9761 71.7677 39.1978 71.5688C38.7676 71.458 38.3349 71.3214 37.8988 71.2366C37.7194 71.2022 37.5475 71.2308 37.3781 71.24C37.4594 71.3641 37.5735 71.5881 37.5961 71.6224C37.8502 72.0184 38.106 72.4127 38.3634 72.8053C38.8649 73.5688 39.3689 74.3313 39.8913 75.0805C41.9291 78.0016 44.1271 80.7903 46.3058 83.6049C46.8542 84.3129 47.4102 85.0135 47.9754 85.7073C47.9729 85.703 47.9712 85.6988 47.9687 85.6947C47.4597 84.703 46.9507 83.7123 46.4416 82.7206C45.4739 80.8365 44.5154 78.9472 43.5376 77.068C43.4873 76.9698 43.4361 76.8725 43.3849 76.7744C43.182 76.385 43.5149 75.9808 43.9317 76.0629C45.965 76.4636 47.9785 76.9561 49.9671 77.5392C50.0566 77.6346 50.1882 77.6625 50.3056 77.6395C50.3856 77.6634 50.4658 77.6864 50.5457 77.7106C50.5215 77.6604 50.4964 77.6106 50.472 77.5605C50.5533 77.4899 50.5937 77.3806 50.5409 77.2441C49.3966 74.2904 47.8278 71.439 45.9689 68.8276C46.0437 68.829 46.1184 68.8301 46.1934 68.8323C48.2337 68.8876 50.2355 69.1804 52.202 69.7365C52.2112 69.5545 52.1013 69.2727 52.0418 69.1385C51.8036 68.6023 51.5303 68.0788 51.2745 67.5511C50.7512 66.4672 50.2279 65.3843 49.7046 64.3003C49.1931 63.2416 48.6857 62.1796 48.2044 61.1058C47.952 60.5427 47.6995 59.979 47.448 59.4153C47.2425 58.9563 47.0807 58.4941 46.9104 58.0244C46.4106 58.1712 39.9928 58.203 38.433 58.3113C38.0506 58.3381 37.6674 58.3625 37.2841 58.3834C36.9789 58.4011 36.5487 58.4682 36.3382 58.1922L36.2585 58.2592C36.9512 59.0881 37.6154 59.9396 38.2812 60.7902ZM63.3377 45.391C63.3058 45.3767 63.2748 45.3625 63.2438 45.3482C63.2279 45.3709 63.2086 45.3918 63.1884 45.4128C63.1381 45.464 63.0886 45.5193 63.0367 45.5697C63.1373 45.5109 63.2379 45.4513 63.3377 45.391ZM18.4861 92.5378C18.544 91.3155 18.6086 90.0931 18.6773 88.8708C18.8132 86.4816 18.9532 84.0923 19.1402 81.7064C19.5201 76.8717 19.874 72.0386 20.4434 67.2214C20.6824 65.2021 21.0162 63.198 21.3508 61.1929C21.308 61.1543 21.2644 61.1157 21.2216 61.0781C21.2678 61.6266 20.5231 61.974 20.1541 61.427C20.1264 61.386 20.0996 61.3448 20.0728 61.3021C19.7533 60.7853 19.017 58.25 19.0681 58.0352C19.1604 57.6485 19.417 57.3046 19.6174 56.964C19.7927 56.6661 19.9696 56.3683 20.1491 56.073C20.5072 55.4815 20.8761 54.896 21.2627 54.323C22.0636 53.1368 22.9391 51.9975 23.9706 51.0017C25.0381 49.9698 26.2633 49.1216 27.5287 48.3524C28.1367 47.9832 28.764 47.6485 29.403 47.3364C30.0336 47.0293 30.7238 46.6896 31.4031 46.5151C31.4416 46.505 31.4811 46.5588 31.4458 46.5873C31.2655 46.7299 31.0768 46.8641 30.8848 46.9933C31.4047 46.813 31.9406 46.6829 32.4807 46.6367C33.5264 46.2693 34.5847 45.9329 35.6254 45.5495C36.6485 45.1719 37.6565 44.7475 38.3366 43.8532C38.9177 43.0889 39.285 42.1536 39.5676 41.2425C39.8779 40.2383 40.0012 39.1946 40.288 38.1887C40.3106 38.1073 40.444 38.0981 40.4616 38.1887C40.6662 39.2441 40.657 40.4304 40.5404 41.4958C40.418 42.6132 40.1035 43.7098 39.4192 44.6183C38.6242 45.6745 37.5458 46.2626 36.3323 46.7315C35.3537 47.1108 34.3625 47.4966 33.3603 47.8355C33.4912 47.9212 33.6237 48.0067 33.7604 48.0881C34.3038 48.4111 34.869 48.698 35.4468 48.9556C36.5017 49.4261 37.6129 49.7786 38.7307 50.0646C40.8113 50.5948 42.9447 50.8641 45.0898 50.8994C49.3818 50.9707 53.7215 50.0714 57.647 48.3348C58.7523 47.8457 59.8315 47.3079 60.8999 46.7433C61.2337 46.5671 61.5691 46.3892 61.9029 46.2063C61.8752 46.2047 61.8467 46.2022 61.819 46.1996C61.0735 46.1292 60.3372 45.9858 59.616 45.7828C58.1392 45.3658 56.7237 44.7157 55.3333 44.0755C54.1542 43.5327 52.9399 42.9144 52.2196 41.7836C51.8347 41.1787 51.6577 40.469 51.5143 39.7744C51.3541 39.0009 51.1655 38.224 51.0489 37.443C51.0078 37.1695 51.069 36.7995 51.3625 36.6704C51.4799 36.6191 51.5764 36.5771 51.708 36.5771C51.999 36.5771 52.2976 36.7886 52.3672 37.0789C52.5391 37.8029 52.6431 38.547 52.7781 39.2785C52.8947 39.911 53.0012 40.5714 53.3425 41.1275C53.9387 42.1016 55.1077 42.5998 56.0956 43.0739C57.3476 43.6745 58.6005 44.26 59.9011 44.7475C60.4739 44.9622 61.0567 45.1569 61.6479 45.3162C61.6245 45.1712 61.6446 45.0184 61.7301 44.9035C61.8727 44.7139 62.0345 44.5881 62.2182 44.443C62.4178 44.2852 62.6861 44.2031 62.9218 44.2727C62.9218 44.2735 62.9226 44.2727 62.9226 44.2727C63.0182 44.2517 63.1239 44.26 63.2329 44.3095C63.57 44.464 63.9063 44.6199 64.2426 44.7786C69.0804 47.0554 73.7808 49.7298 77.3406 53.8028C77.8538 54.3901 78.3344 55.0076 78.7847 55.6443C79.2224 56.2626 79.7642 56.9338 79.8849 57.7005C79.895 57.7643 79.8019 57.7937 79.786 57.7282C79.7575 57.6099 79.7189 57.4941 79.6711 57.3817C79.7709 57.7308 79.765 58.1016 79.6241 58.4664C79.4572 58.8959 79.1512 59.1804 78.7646 59.2936C79.1528 60.9959 79.4136 62.7207 79.6233 64.4647C79.9243 66.9773 80.1382 69.4959 80.2992 72.0209C80.6212 77.0605 80.7646 82.125 80.6606 87.1737C80.6313 88.6006 80.5826 90.0277 80.5088 91.4539C80.4719 92.167 80.4317 92.8792 80.3856 93.5922C80.3403 94.2937 80.3772 95.0663 79.7658 95.4363C79.7583 95.464 79.7499 95.4907 79.7424 95.5184C79.5939 96.036 78.9323 95.87 78.8702 95.4001C78.8694 95.3952 78.8685 95.3892 78.8677 95.3843C78.3679 95.0026 78.4434 94.3667 78.4803 93.7567C78.5197 93.0982 78.5616 92.4405 78.5968 91.7828C78.6639 90.5209 78.721 89.2593 78.7721 87.9966C78.8719 85.5 78.9281 83 78.9465 80.5016C78.9834 75.5042 78.695 70.5142 78.3528 65.5311C78.2094 63.4463 78.0417 61.3708 77.9905 59.2869C77.723 59.1476 77.6408 58.7517 77.775 58.4849C74.6068 60.6476 71.6667 63.2332 69.306 66.2383C68.9119 66.7399 68.5353 67.2567 68.1747 67.7828C68.0573 67.9538 67.9458 68.1318 67.8334 68.3095C67.9425 68.8053 68.0272 69.3095 68.1378 69.7852C68.3659 70.7677 68.4624 71.7869 68.5932 72.7853C68.859 74.813 69.0461 76.859 69.2045 78.8976C69.5165 82.9236 69.748 86.9489 69.8209 90.9866C69.8612 93.2701 69.9148 95.5679 69.8142 97.8507C69.8888 98.2969 69.4872 98.7333 69.067 98.7895C68.6989 98.8389 68.355 98.6477 68.194 98.3397C67.0468 98.4823 65.8694 98.5479 64.7298 98.5562C63.1943 98.5671 61.6588 98.5655 60.1234 98.5327C57.0516 98.4656 53.9806 98.3868 50.9097 98.2954C44.7678 98.1141 38.6259 97.9321 32.4832 97.75C30.78 97.6996 29.0768 97.6494 27.3736 97.599C26.6054 97.5764 25.6478 97.7978 25.0423 97.2048C24.9383 97.1023 24.8578 96.9823 24.8008 96.854C24.6196 96.8993 24.3974 96.8548 24.2783 96.7147C24.0561 96.4521 23.8926 96.2089 23.901 95.8448C23.9085 95.5042 24.0024 95.1452 24.0511 94.8079C24.1433 94.1745 24.2322 93.5411 24.3169 92.9068C24.4838 91.6535 24.6398 90.3985 24.7832 89.1426C25.0767 86.5747 25.3433 84.0008 25.5513 81.4245C25.9639 76.3298 26.0805 71.2081 26.0662 66.0974C26.0645 65.6402 26.062 65.1829 26.0595 64.7256C26.0402 64.75 26.0193 64.7726 25.9966 64.792C25.9782 64.8079 25.9597 64.8238 25.9413 64.8407C25.7266 65.0294 25.3693 65.1267 25.1119 64.948C24.7957 64.7433 24.5777 64.4362 24.3312 64.1586C24.072 63.8675 23.8054 63.5839 23.5362 63.3021C23.0146 62.7568 22.4753 62.234 21.9252 61.7172C21.8808 61.6762 21.8363 61.6343 21.7919 61.5939C21.7885 63.2206 21.7902 64.8465 21.7466 66.4724C21.6812 68.8876 21.5504 71.3004 21.4305 73.7123C21.1923 78.4882 20.9457 83.2625 20.7084 88.0377C20.6422 89.3709 20.5793 90.7047 20.513 92.0377C20.4795 92.7047 20.4468 93.3716 20.4149 94.0386C20.3981 94.3993 20.3814 94.761 20.3646 95.1217C20.3461 95.5093 20.3705 95.9236 20.2396 96.292C19.9419 97.1342 18.6555 97.2533 18.4081 96.292C18.253 95.6888 18.3721 94.9907 18.3998 94.3716C18.4283 93.761 18.4568 93.1493 18.4861 92.5378Z" fill="#0C0C0C"/>
<path fill-rule="evenodd" clip-rule="evenodd" d="M30.3295 23.7577C30.3629 21.8783 30.3998 19.9614 30.6791 18.1003C30.9521 16.2809 31.7032 14.6362 32.994 13.315C35.7356 10.5085 39.7097 9.82306 43.409 9.19487L49.7336 8.12079C51.6631 7.79319 53.7216 7.26954 55.6711 7.73413C56.6317 7.96308 57.4475 8.49496 58.1931 9.12423C58.9118 9.73078 59.6845 10.3821 60.1715 11.1981C60.6593 12.0153 60.8271 12.9706 60.9856 13.8949C61.1645 14.9369 61.3035 15.9871 61.4022 17.0398C61.6 19.1488 61.627 21.2737 61.4835 23.3872C61.414 24.4122 61.3034 25.4344 61.1622 26.452C61.0921 26.9566 61.013 27.46 60.9236 27.9616C60.8973 28.1095 60.8772 28.2732 60.8502 28.4387C61.0497 29.0063 61.1631 29.5941 61.154 30.1794C61.127 31.9036 59.6723 32.9891 58.2058 33.5719C57.3554 33.9098 56.4664 34.1394 55.6309 34.5169C54.752 34.914 54.1538 35.5577 53.5528 36.292C52.4067 37.6925 51.1133 38.9513 49.6365 40.0014C46.5053 42.228 42.5394 43.2811 38.7402 42.4818C37.8287 42.29 36.9091 41.9922 36.0897 41.5434C35.2246 41.0697 34.5741 40.3832 34.0278 39.5716C33.0135 38.0648 32.2861 36.368 31.7359 34.6414C31.1746 32.8802 30.7762 31.1158 30.5589 29.2793C30.3424 27.4487 30.2967 25.5996 30.3295 23.7577Z" fill="white"/>
<path fill-rule="evenodd" clip-rule="evenodd" d="M50.512 1.57413C47.8948 1.21398 44.2823 2.38453 42.9789 4.74477C36.756 3.27715 28.9073 3.22908 23.7784 8.11473C18.4265 13.9102 25.1487 21.5516 29.6061 23.2744C29.2816 24.8521 29.7876 34.96 33.368 39.4686C36.2095 43.2887 42.8266 45.0517 45.8886 40.4889L45.9125 40.4512C46.2405 39.9243 45.958 39.9412 45.6212 40.3332C42.6229 42.9709 38.5462 43.016 35.4048 40.2323C29.5171 35.1442 30.1242 22.6685 32.9258 15.4511C40.9034 14.5746 49.4448 16.9935 54.9548 23.001L54.5823 25.2449C54.5188 25.6272 54.4467 26.0092 54.3916 26.3928C54.3564 26.6386 54.3525 26.8831 54.5227 27.0821C55.0848 27.739 56.0322 26.7519 56.8117 26.3593C57.0418 26.3269 57.2723 26.3144 57.4984 26.3303C61.2434 26.8129 60.5055 34.0805 56.3895 32.8066C56.0437 32.5911 55.7466 32.6569 55.6124 32.9696C54.6313 33.8686 53.9844 35.472 52.3544 37.0162C51.7793 37.5955 51.256 38.0802 50.6091 38.5449C50.2291 38.9292 49.0826 39.3212 49.446 39.979C50.1333 41.4758 54.1863 36.774 54.9029 35.4738C57.1481 36.3607 59.6362 36.0594 61.9629 35.8427C74.2375 35.2042 72.5989 22.2605 62.5377 14.0884C60.6438 12.6936 58.5543 11.5558 56.3822 10.6802C56.0857 10.5606 56.2153 10.0735 56.516 10.1948C57.9532 10.7742 59.3542 11.4639 60.6898 12.2621L60.6918 11.7849C60.6937 10.9811 60.6811 10.1443 60.5416 9.40987C60.4718 8.90098 60.3545 8.35744 60.1739 7.94854C59.9505 6.69494 56.4523 2.39191 50.512 1.57413ZM57.6622 27.9988C57.4727 27.8187 57.1189 28.0335 56.9502 28.0281C56.5187 28.0872 56.1088 28.2695 55.7891 28.4945C55.578 28.6128 55.4301 28.7238 55.3065 28.826L55.3031 28.8251C55.3041 28.8251 55.3052 28.826 55.3062 28.8263L55.2946 28.8341C55.1146 28.9621 54.4558 29.6826 54.872 29.4889C54.9031 29.4485 54.9348 29.4097 54.9669 29.3717C54.9703 29.3769 54.9751 29.3821 54.9808 29.387L54.9574 29.4217C54.6036 29.9542 55.2145 29.3932 55.3084 29.2442C55.3129 29.2478 55.3179 29.2503 55.3229 29.2529L55.2005 29.4019C55.1834 29.423 55.1699 29.4399 55.1587 29.4542L55.1329 29.4791C54.7239 29.8814 54.7111 30.2434 55.1863 29.6487C55.1676 29.6767 55.1526 29.7064 55.1505 29.7327L55.1224 29.7687C54.7492 30.2497 55.0527 30.0788 55.2381 29.8734L55.2537 29.8557L55.2505 29.8605C55.078 30.1264 55.4202 29.9398 55.4807 29.7976L55.4833 29.7912C55.5492 29.7374 55.5897 29.677 55.6036 29.6618L55.6062 29.6592C55.9271 29.3304 56.3921 29.0521 56.7872 28.9257C56.8445 28.9148 56.9024 28.9061 56.961 28.8999C57.1985 28.8468 57.4387 28.8105 57.6814 28.7909C57.7111 28.7874 57.7412 28.7655 57.7637 28.7374C58.1307 28.725 58.0174 28.5745 57.8651 28.5465L57.8625 28.5461L57.8927 28.5435C58.1282 28.5205 58.289 28.436 58.0509 28.3841L58.0207 28.3781C58.0244 28.3723 58.0277 28.3665 58.0309 28.3608C58.2348 28.3384 58.1017 28.14 57.9885 28.188C58.0361 28.0322 57.8184 28.11 57.7913 28.0868C57.7706 28.0639 57.7448 28.0436 57.73 28.0425C57.6644 27.9962 57.6962 28.0004 57.6622 27.9988ZM56.4143 25.4766L56.4621 25.5045C56.5008 25.5271 56.5405 25.5421 56.5805 25.5509C56.5241 25.5749 56.4684 25.6008 56.4133 25.6285C56.4142 25.5947 56.4149 25.5609 56.4149 25.5271L56.4143 25.4766Z" fill="#0C0C0C"/>
<path fill-rule="evenodd" clip-rule="evenodd" d="M38.098 34.1738C37.9694 33.9501 37.6732 33.7428 37.4022 33.7746C36.188 33.917 36.1901 35.3897 36.6589 36.2494C37.0746 37.0117 37.9349 37.4592 38.796 37.3939C39.7006 37.3252 40.4713 36.7931 40.8106 35.9466C41.0349 35.3866 41.1385 34.3528 40.5418 33.9765C40.5307 33.9695 40.5124 33.9712 40.5036 33.9814C40.2175 34.3143 40.2063 34.8143 39.9558 35.185C39.7228 35.5298 39.3609 35.8145 38.9369 35.8585C38.6202 35.8914 38.2999 35.7771 38.176 35.4927C38.109 35.3389 38.1166 35.2553 38.1418 35.1495L38.1647 35.0575C38.244 34.7352 38.2796 34.4898 38.098 34.1738ZM37.7734 27.7154C37.1402 28.1004 36.1753 28.9983 36.8565 29.953C37.6584 30.7947 38.813 29.8296 39.3819 29.3931C39.9094 29.0549 40.5022 29.9249 40.0127 30.3199C35.9016 33.3648 34.2332 27.8161 37.4532 27.2626C37.8077 27.2016 37.9394 27.5962 37.7734 27.7154ZM44.4607 25.0749C44.072 24.4915 43.1847 24.5774 42.9706 25.2697C42.8547 25.6447 43.0148 25.9818 43.0065 26.3563C42.9996 26.6726 43.0203 27.0251 43.1172 27.3315C43.3383 28.0302 43.9664 28.5236 44.7095 28.5032C45.4501 28.4828 46.1025 28.0138 46.4127 27.3533C46.724 26.6903 46.658 26.0042 46.4308 25.33C46.4199 25.2976 46.3774 25.2819 46.3519 25.3092C46.0832 25.5948 45.8866 25.8963 45.6831 26.2161L45.4746 26.5439C45.3152 26.7907 45.0836 27.106 44.786 27.0862L44.7414 27.0818C44.6587 27.0747 44.6714 27.0911 44.6076 26.9783C44.5781 26.9261 44.5834 26.8292 44.5692 26.7676L44.5642 26.7468L44.5669 26.7356C44.5732 26.7057 44.5795 26.6496 44.5845 26.552L44.5856 26.5305C44.6072 26.0744 44.7361 25.4882 44.4607 25.0749ZM34.6078 25.4633C34.6775 24.7171 33.6289 24.5514 33.2803 25.1035C33.0985 25.3914 33.0456 25.7531 33.0054 26.0958L32.9866 26.2584C32.9453 26.6103 32.929 26.9764 33.0817 27.3047C33.3222 27.8217 33.8452 28.0951 34.4094 28.0518C34.9482 28.0103 35.4398 27.6978 35.6989 27.2234C35.93 26.8001 36.1597 25.9736 35.8791 25.5321C35.8621 25.5053 35.8282 25.5019 35.805 25.5225C35.5399 25.758 35.4967 26.1875 35.339 26.4943C35.1764 26.8107 34.9298 27.1191 34.556 27.1672C34.1984 27.2132 34.0618 27.0178 34.1531 26.6768C34.2707 26.2365 34.5636 25.937 34.6078 25.4633ZM44.1774 20.6389L44.006 20.5732C43.4184 20.3512 42.6118 20.0945 42.1341 20.5725C41.8394 20.8672 41.7833 21.3013 41.9936 21.661C42.2485 22.0966 42.7056 22.1074 43.1471 22.1716C43.6491 22.2445 44.1597 22.3833 44.6272 22.5811C45.1537 22.804 45.6424 23.0819 46.1211 23.3922C46.5762 23.6871 47.0296 24.169 47.5743 24.2599C47.5965 24.2636 47.6217 24.254 47.6275 24.2296C47.7512 23.6969 47.4075 23.1726 47.1007 22.757C46.7295 22.2538 46.2798 21.8408 45.7771 21.4705C45.292 21.1131 44.7377 20.8548 44.1774 20.6389ZM33.5048 22.5329L33.4524 22.5237C33.0962 22.4644 32.7733 22.4781 32.5048 22.7604C32.2998 22.9757 32.2208 23.2548 32.3185 23.5396C32.4087 23.8022 32.6103 24.0691 32.9029 24.1241C33.8907 24.31 34.9848 24.2793 35.9775 24.1385C36.4317 24.0741 36.89 23.9953 37.3324 23.8709L37.5359 23.8119C37.9053 23.7064 38.3281 23.5961 38.5964 23.3244C38.6928 23.2267 38.6372 23.087 38.5218 23.0417C38.0537 22.8583 37.4121 22.9559 36.913 22.9416C36.3323 22.925 35.7508 22.8814 35.1729 22.8214C34.6082 22.7627 34.0617 22.6351 33.5048 22.5329Z" fill="#0C0C0C"/>
<path fill-rule="evenodd" clip-rule="evenodd" d="M31.8889 29.1439C33.1475 29.7502 34.9033 28.8559 35.7496 27.919C36.0576 27.5779 36.2953 26.602 36.1768 25.9831C35.8558 24.3068 34.6499 23.3008 33.3768 22.9572C31.6121 22.4809 29.8361 23.6876 30.0432 25.1116C30.2395 26.4612 30.5369 28.4188 31.8889 29.1439ZM40.4553 25.9239C40.5562 27.7507 42.0226 29.3496 43.7753 29.8233C46.5992 30.6116 47.9948 28.6258 48.6269 26.4864C48.6897 26.2738 48.8374 25.625 48.4412 25.0685C46.8828 22.8793 43.0913 23.2524 41.1975 23.8534C40.6432 24.3837 40.4166 25.1491 40.4553 25.9239ZM30.5215 22.7732C30.5223 22.7742 30.5233 22.7752 30.5242 22.7763C30.5306 22.7723 30.537 22.7683 30.5436 22.7644C30.5363 22.7674 30.5286 22.77 30.5215 22.7732ZM28.1588 22.9843C28.3229 21.1244 34.1564 21.8366 34.8384 21.989C36.6998 22.5367 38.3075 24.0266 40.3885 23.3716C42.5448 20.967 49.8062 21.6566 51.3284 22.8815C51.6165 22.7685 51.9669 22.8291 52.3381 22.9358C54.2446 22.8669 62.9479 23.5244 61.1677 25.9586C60.8975 26.1461 60.6276 25.9553 60.6201 25.569C51.34 22.2178 52.2395 25.3568 51.1389 24.9902C50.9709 25.0386 50.7955 25.0692 50.6422 25.1014C49.7903 25.3756 49.5011 25.2909 49.3889 26.2475C48.6179 33.6343 38.785 31.0848 39.5914 25.0258C38.7929 24.9818 38.0945 24.6364 37.2501 24.9737C36.6638 30.6815 32.0724 30.9118 30.6907 28.9332C29.6487 27.5599 30.0619 25.4874 28.6296 24.407C28.0642 24.8804 28.0278 23.2829 28.1588 22.9843Z" fill="#0C0C0C"/>
</svg>
