<svg width="100" height="100" viewBox="0 0 100 100" fill="none" xmlns="http://www.w3.org/2000/svg">
<path fill-rule="evenodd" clip-rule="evenodd" d="M49.9602 34.144C48.8332 33.8319 47.5376 33.8682 46.3813 33.948C45.207 34.0291 43.947 34.1682 42.8451 34.6068C41.8872 34.9881 41.0795 35.6293 40.5873 36.5481C40.1826 37.3034 39.9928 38.1317 39.8739 38.9731C39.8253 39.3174 39.7846 39.6625 39.7458 40.008L39.6662 40.7267C39.635 41.0015 39.6078 41.2076 39.5532 41.5142C39.4019 42.3623 39.1914 43.0708 38.7212 43.6879C37.5827 45.1816 35.7236 45.6816 34.033 46.3192C32.9512 46.7272 32.0945 47.4611 31.8569 48.6404C31.6276 49.778 22.9089 59.3226 22.053 60.1272L22.0295 60.1489C21.3655 60.7469 21.4437 61.871 21.3508 62.6917C21.2512 63.5717 21.1564 64.4523 21.0665 65.3332C20.8838 67.1228 20.721 68.9144 20.5782 70.7076C20.0198 77.7205 19.7665 84.7578 19.8203 91.7926L19.8237 92.1908C19.832 93.0836 19.8254 93.9803 19.8654 94.8722C19.9039 95.7295 20.1632 96.5874 20.9572 97.0352C21.6928 97.45 22.623 97.4135 23.4451 97.4549L23.4943 97.4575C24.3765 97.5058 25.2589 97.5454 26.1418 97.5781C29.73 97.7109 33.3215 97.7253 36.9117 97.7087C44.0342 97.6759 51.1638 97.5193 58.2796 97.9182C60.0935 98.0199 65.8762 97.402 67.6843 97.5781C69.4126 97.7463 67.9297 98.5942 68.9974 98.5384C72.5086 98.3546 75.8391 97.5709 79.2032 96.6269C79.6234 96.509 79.9448 96.101 79.9395 95.66C79.877 90.8162 79.7403 85.9737 79.5267 81.1342C79.3365 76.8233 79.0857 72.5151 78.7747 68.2113C78.6394 66.3405 78.4928 64.4705 78.3348 62.6015L78.2664 61.8006C78.1772 60.7677 78.1259 59.7159 77.9229 58.6973C77.722 57.69 77.2664 56.8164 76.6057 56.0358C76.0129 55.3356 69.3009 49.8537 67.6843 48.8159C66.1371 47.8224 64.5123 46.9843 62.9239 46.0636C62.263 45.6806 61.6283 45.8184 61.0638 45.3482C60.7661 45.1003 56.4475 43.4302 55.2823 42.8791L55.248 42.8628C54.3562 42.4348 53.5355 41.9707 52.9192 41.2306C52.7127 40.9825 52.3076 39.4195 52.3068 38.9201C52.3054 38.028 52.373 37.0882 52.1039 36.224C51.7822 35.1906 51.0068 34.4337 49.9602 34.144ZM48.0495 57.1467L54.9504 70.5905H50.4631L53.6796 78.0601H46.6159L49.1216 88.5227L34.7921 70.5905H40.1693L34.7921 63.5302H38.5216L34.7921 57.551L48.0495 57.1467Z" fill="white"/>
<path fill-rule="evenodd" clip-rule="evenodd" d="M24.8681 64.7064C24.884 64.7223 24.9008 64.7383 24.9167 64.7551C24.8983 64.7291 24.8823 64.7021 24.8681 64.6754V64.7064ZM38.2795 60.7902C38.8992 61.5823 39.555 63.1938 40.1572 64C40.2435 64.1157 40.3282 64.2316 40.4121 64.3481C40.662 64.698 40.3282 65.2332 39.9173 65.2106C39.0963 65.1669 38.2761 65.1058 37.4559 65.0437C39.1407 66.9219 40.5396 69.2551 42.0869 71.2449C42.1917 71.3783 42.2948 71.5126 42.398 71.6468C42.7896 72.1577 42.3971 72.3893 41.8621 72.2516C41.7514 72.2232 41.6407 72.1947 41.53 72.167C40.7518 71.9673 39.9743 71.7677 39.1961 71.5688C38.7659 71.458 38.3331 71.3214 37.8971 71.2366C37.7176 71.2022 37.5457 71.2308 37.3763 71.24C37.4576 71.3641 37.5717 71.5881 37.5943 71.6224C37.8484 72.0184 38.1042 72.4127 38.3617 72.8053C38.8632 73.5688 39.3672 74.3313 39.8896 75.0805C41.9275 78.0016 44.1256 80.7903 46.3043 83.6049C46.8528 84.3129 47.4088 85.0135 47.974 85.7073C47.9715 85.703 47.9699 85.6988 47.9673 85.6947C47.4583 84.703 46.9492 83.7123 46.4402 82.7206C45.4724 80.8365 44.5139 78.9472 43.536 77.068C43.4857 76.9698 43.4345 76.8725 43.3834 76.7744C43.1804 76.385 43.5134 75.9808 43.9302 76.0629C45.9635 76.4636 47.9771 76.9561 49.9658 77.5392C50.0553 77.6346 50.1869 77.6625 50.3043 77.6395C50.3843 77.6634 50.4645 77.6864 50.5444 77.7106C50.5202 77.6604 50.4951 77.6106 50.4707 77.5605C50.552 77.4899 50.5924 77.3806 50.5396 77.2441C49.3953 74.2904 47.8264 71.439 45.9675 68.8276C46.0423 68.829 46.1169 68.8301 46.192 68.8323C48.2323 68.8876 50.2342 69.1804 52.2007 69.7365C52.21 69.5545 52.1001 69.2727 52.0406 69.1385C51.8024 68.6023 51.529 68.0788 51.2732 67.5511C50.7499 66.4672 50.2266 65.3843 49.7033 64.3003C49.1917 63.2416 48.6844 62.1796 48.203 61.1058C47.9506 60.5427 47.6981 59.979 47.4465 59.4153C47.2411 58.9563 47.0792 58.4941 46.909 58.0244C46.4092 58.1712 39.9911 58.203 38.4313 58.3113C38.0488 58.3381 37.6656 58.3625 37.2823 58.3834C36.9771 58.4011 36.5469 58.4682 36.3364 58.1922L36.2567 58.2592C36.9494 59.0881 37.6136 59.9396 38.2795 60.7902ZM63.3369 45.391C63.3051 45.3767 63.274 45.3625 63.243 45.3482C63.2271 45.3709 63.2078 45.3918 63.1876 45.4128C63.1373 45.464 63.0878 45.5193 63.0359 45.5697C63.1365 45.5109 63.2371 45.4513 63.3369 45.391ZM18.4836 92.5378C18.5415 91.3155 18.606 90.0931 18.6748 88.8708C18.8107 86.4816 18.9507 84.0923 19.1377 81.7064C19.5176 76.8717 19.8715 72.0386 20.441 67.2214C20.68 65.2021 21.0137 63.198 21.3484 61.1929C21.3056 61.1543 21.262 61.1157 21.2192 61.0781C21.2653 61.6266 20.5206 61.974 20.1516 61.427C20.124 61.386 20.0971 61.3448 20.0703 61.3021C19.7508 60.7853 19.0144 58.25 19.0656 58.0352C19.1579 57.6485 19.4145 57.3046 19.6149 56.964C19.7902 56.6661 19.9671 56.3683 20.1466 56.073C20.5047 55.4815 20.8737 54.896 21.2603 54.323C22.0612 53.1368 22.9367 51.9975 23.9682 51.0017C25.0358 49.9698 26.2611 49.1216 27.5265 48.3524C28.1346 47.9832 28.7618 47.6485 29.4009 47.3364C30.0315 47.0293 30.7217 46.6896 31.401 46.5151C31.4396 46.505 31.479 46.5588 31.4438 46.5873C31.2635 46.7299 31.0748 46.8641 30.8828 46.9933C31.4027 46.813 31.9386 46.6829 32.4787 46.6367C33.5244 46.2693 34.5828 45.9329 35.6235 45.5495C36.6467 45.1719 37.6547 44.7475 38.3348 43.8532C38.916 43.0889 39.2833 42.1536 39.5659 41.2425C39.8762 40.2383 39.9995 39.1946 40.2863 38.1887C40.309 38.1073 40.4423 38.0981 40.4599 38.1887C40.6645 39.2441 40.6553 40.4304 40.5387 41.4958C40.4163 42.6132 40.1018 43.7098 39.4175 44.6183C38.6225 45.6745 37.544 46.2626 36.3305 46.7315C35.3518 47.1108 34.3605 47.4966 33.3584 47.8355C33.4892 47.9212 33.6217 48.0067 33.7584 48.0881C34.3018 48.4111 34.8671 48.698 35.4449 48.9556C36.4999 49.4261 37.6111 49.7786 38.729 50.0646C40.8096 50.5948 42.9431 50.8641 45.0883 50.8994C49.3804 50.9707 53.7203 50.0714 57.646 48.3348C58.7513 47.8457 59.8306 47.3079 60.899 46.7433C61.2328 46.5671 61.5682 46.3892 61.902 46.2063C61.8743 46.2047 61.8458 46.2022 61.8182 46.1996C61.0726 46.1292 60.3363 45.9858 59.6151 45.7828C58.1383 45.3658 56.7226 44.7157 55.3322 44.0755C54.1531 43.5327 52.9387 42.9144 52.2184 41.7836C51.8334 41.1787 51.6565 40.469 51.5131 39.7744C51.3529 39.0009 51.1642 38.224 51.0476 37.443C51.0065 37.1695 51.0678 36.7995 51.3613 36.6704C51.4787 36.6191 51.5751 36.5771 51.7068 36.5771C51.9978 36.5771 52.2963 36.7886 52.366 37.0789C52.5379 37.8029 52.6419 38.547 52.7769 39.2785C52.8935 39.911 53 40.5714 53.3413 41.1275C53.9375 42.1016 55.1066 42.5998 56.0945 43.0739C57.3466 43.6745 58.5995 44.26 59.9002 44.7475C60.473 44.9622 61.0558 45.1569 61.6471 45.3162C61.6236 45.1712 61.6437 45.0184 61.7293 44.9035C61.8718 44.7139 62.0337 44.5881 62.2174 44.443C62.4169 44.2852 62.6853 44.2031 62.921 44.2727C62.921 44.2735 62.9218 44.2727 62.9218 44.2727C63.0174 44.2517 63.1231 44.26 63.2321 44.3095C63.5692 44.464 63.9055 44.6199 64.2418 44.7786C69.0799 47.0554 73.7804 49.7298 77.3404 53.8028C77.8536 54.3901 78.3342 55.0076 78.7845 55.6443C79.2223 56.2626 79.764 56.9338 79.8848 57.7005C79.8948 57.7643 79.8018 57.7937 79.7858 57.7282C79.7573 57.6099 79.7187 57.4941 79.6709 57.3817C79.7707 57.7308 79.7649 58.1016 79.624 58.4664C79.4571 58.8959 79.151 59.1804 78.7644 59.2936C79.1527 60.9959 79.4135 62.7207 79.6231 64.4647C79.9242 66.9773 80.1381 69.4959 80.2991 72.0209C80.6211 77.0605 80.7645 82.125 80.6605 87.1737C80.6312 88.6006 80.5825 90.0277 80.5087 91.4539C80.4718 92.167 80.4316 92.8792 80.3854 93.5922C80.3402 94.2937 80.3771 95.0663 79.7657 95.4363C79.7582 95.464 79.7498 95.4907 79.7422 95.5184C79.5938 96.036 78.9321 95.87 78.87 95.4001C78.8692 95.3952 78.8684 95.3892 78.8675 95.3843C78.3677 95.0026 78.4432 94.3667 78.4801 93.7567C78.5195 93.0982 78.5614 92.4405 78.5966 91.7828C78.6637 90.5209 78.7208 89.2593 78.7719 87.9966C78.8717 85.5 78.9279 83 78.9464 80.5016C78.9833 75.5042 78.6948 70.5142 78.3526 65.5311C78.2092 63.4463 78.0415 61.3708 77.9903 59.2869C77.7228 59.1476 77.6406 58.7517 77.7748 58.4849C74.6064 60.6476 71.6662 63.2332 69.3055 66.2383C68.9113 66.7399 68.5348 67.2567 68.1741 67.7828C68.0567 67.9538 67.9452 68.1318 67.8328 68.3095C67.9418 68.8053 68.0265 69.3095 68.1372 69.7852C68.3654 70.7677 68.4618 71.7869 68.5926 72.7853C68.8585 74.813 69.0455 76.859 69.204 78.8976C69.516 82.9236 69.7474 86.9489 69.8204 90.9866C69.8606 93.2701 69.9143 95.5679 69.8137 97.8507C69.8883 98.2969 69.4866 98.7333 69.0664 98.7895C68.6983 98.8389 68.3545 98.6477 68.1934 98.3397C67.0462 98.4823 65.8687 98.5479 64.729 98.5562C63.1935 98.5671 61.658 98.5655 60.1224 98.5327C57.0505 98.4656 53.9795 98.3868 50.9084 98.2954C44.7663 98.1141 38.6241 97.9321 32.4812 97.75C30.7779 97.6996 29.0747 97.6494 27.3714 97.599C26.6032 97.5764 25.6455 97.7978 25.04 97.2048C24.936 97.1023 24.8555 96.9823 24.7985 96.854C24.6173 96.8993 24.3951 96.8548 24.276 96.7147C24.0538 96.4521 23.8902 96.2089 23.8986 95.8448C23.9062 95.5042 24.0001 95.1452 24.0487 94.8079C24.141 94.1745 24.2299 93.5411 24.3146 92.9068C24.4815 91.6535 24.6375 90.3985 24.7809 89.1426C25.0744 86.5747 25.3411 84.0008 25.5491 81.4245C25.9617 76.3298 26.0782 71.2081 26.064 66.0974C26.0623 65.6402 26.0598 65.1829 26.0573 64.7256C26.038 64.75 26.017 64.7726 25.9944 64.792C25.9759 64.8079 25.9575 64.8238 25.939 64.8407C25.7243 65.0294 25.3671 65.1267 25.1096 64.948C24.7934 64.7433 24.5754 64.4362 24.3288 64.1586C24.0697 63.8675 23.803 63.5839 23.5338 63.3021C23.0122 62.7568 22.473 62.234 21.9228 61.7172C21.8784 61.6762 21.8339 61.6343 21.7895 61.5939C21.7861 63.2206 21.7878 64.8465 21.7442 66.4724C21.6788 68.8876 21.548 71.3004 21.428 73.7123C21.1899 78.4882 20.9433 83.2625 20.706 88.0377C20.6397 89.3709 20.5768 90.7047 20.5106 92.0377C20.477 92.7047 20.4443 93.3716 20.4124 94.0386C20.3957 94.3993 20.3789 94.761 20.3621 95.1217C20.3437 95.5093 20.368 95.9236 20.2372 96.292C19.9395 97.1342 18.653 97.2533 18.4056 96.292C18.2505 95.6888 18.3695 94.9907 18.3972 94.3716C18.4257 93.761 18.4542 93.1493 18.4836 92.5378Z" fill="#0C0C0C"/>
<path fill-rule="evenodd" clip-rule="evenodd" d="M41.3279 42.7407C43.1893 42.7517 44.7713 42.2233 45.9784 41.3493C47.4847 40.8119 49.3017 39.9831 50.4054 39.1131C50.8358 39.223 51.3509 38.7655 51.6803 38.5241C53.7287 36.994 55.3365 34.7543 55.8129 32.5108C56.5484 33.4395 57.595 33.4781 58.5976 33.0165C60.6992 31.8243 60.6206 29.3138 59.864 27.4381C61.4547 23.8679 62.557 14.4429 60.129 10.6391C59.6323 10.07 58.9035 9.72954 58.3787 9.1459C57.9118 8.63617 57.4676 8.11478 56.9244 7.71142C55.2667 6.44934 52.4117 5.77736 50.6241 5.46134C43.1618 3.84741 37.4282 6.74825 30.6687 9.19515C31.0577 10.1683 31.5959 11.0558 32.2126 11.8833C30.5345 12.5099 31.3053 13.9187 32.6072 14.6329L33.3822 14.2561C32.174 18.5804 29.3935 29.3339 30.5932 32.7872C31.5499 38.1748 35.7486 42.7798 41.3279 42.7407Z" fill="white"/>
<path fill-rule="evenodd" clip-rule="evenodd" d="M40.2497 43.2046C42.6666 43.4528 45.5379 42.8812 47.1492 40.9172C47.1974 40.8584 47.2185 40.7918 47.2197 40.7276C47.2211 40.6561 47.1971 40.587 47.1557 40.5333C47.1122 40.4769 47.0501 40.4375 46.9791 40.4247C46.9192 40.414 46.851 40.4209 46.7807 40.4604L46.6325 40.5429C45.5321 41.1509 44.3893 41.6693 43.1422 41.8913C41.8582 42.1197 40.5508 42.0941 39.2782 41.804C36.9602 41.2757 35.0842 39.9279 33.7033 38.1508C32.1624 36.1676 31.2371 33.6502 31.0012 31.1326C30.7154 28.0815 31.3784 25.049 32.0644 22.0948C32.7851 18.9907 33.5729 15.9024 34.4881 12.85C34.5157 12.7581 34.5231 12.6721 34.5152 12.5929C34.7851 12.4871 35.0724 12.5165 35.3583 12.613C35.8807 12.7895 36.4012 13.1874 36.8352 13.5159C36.9924 13.6348 37.1387 13.7454 37.2701 13.8354C37.8083 14.2038 38.3967 14.4689 39.0546 14.5106C39.7388 14.5538 40.4097 14.3411 41.0311 14.0749C41.3468 13.9396 41.6575 13.7993 41.9669 13.6596C42.8478 13.2616 43.7184 12.8676 44.6698 12.6116C45.9446 12.2684 47.2607 12.0994 48.5809 12.1115C50.9371 12.133 53.3005 12.7397 54.7446 14.7332C55.3295 15.5407 55.7109 16.4688 55.4135 17.4654C55.2517 18.0076 54.9463 18.4997 54.613 18.9524L54.4987 19.1065C54.3159 19.355 54.1571 19.6025 54.1092 19.866C54.0691 20.0867 54.1004 20.3202 54.258 20.5761C54.3571 20.7372 54.4833 20.8817 54.6102 21.0257C54.7018 21.1296 54.7936 21.2332 54.8725 21.3449C55.0317 21.5699 55.1726 21.8123 55.2832 22.0651C55.4996 22.56 55.5914 23.0924 55.6106 23.6292C55.6339 24.277 55.5428 24.9106 55.4525 25.5452C55.3885 25.9951 55.3246 26.4455 55.2988 26.9013C55.2943 26.9809 55.3186 27.0401 55.3527 27.084C55.3943 27.1377 55.4551 27.1715 55.5243 27.1809C55.5454 27.1837 55.5671 27.1842 55.589 27.1822C55.5782 27.2261 55.5687 27.2701 55.5605 27.3143C55.6043 27.2581 55.6508 27.2035 55.6999 27.1507C55.703 27.1492 55.7062 27.1475 55.7092 27.1458C55.7599 27.118 55.8028 27.0756 55.8298 27.021C55.8994 26.9563 55.973 26.895 56.0503 26.8373C56.4523 26.5373 56.9218 26.3594 57.3927 26.3535C57.8467 26.3478 58.3018 26.5024 58.6518 26.829C59.3473 27.4781 59.551 28.5377 59.5583 29.4475C59.5657 30.3762 59.3508 31.4908 58.5414 32.0674C58.2167 32.2987 57.8201 32.4377 57.4206 32.4417C57.0894 32.445 56.7725 32.3278 56.4605 32.2161C56.3643 32.1817 56.2686 32.1475 56.173 32.1164C56.0645 32.081 55.9656 32.0833 55.8794 32.1091C55.7822 32.1382 55.6997 32.1983 55.6381 32.2785C55.5768 32.3584 55.5365 32.4584 55.5241 32.5631C55.512 32.6645 55.5259 32.7698 55.5688 32.8647C55.5796 32.8886 55.5909 32.9119 55.6028 32.9345L55.4247 33.2274C54.743 34.3458 54.0494 35.4437 53.1399 36.405C52.6178 36.9568 52.0644 37.4775 51.4574 37.9333L51.3698 37.9983C51.3175 38.0368 51.2593 38.0842 51.1974 38.1349C51.0203 38.2798 50.8081 38.4741 50.61 38.4817C50.5512 38.484 50.4999 38.4767 50.4532 38.4705C50.3404 38.4557 50.2458 38.4514 50.1528 38.4893C50.078 38.5199 50.0004 38.5769 49.9206 38.6946C49.8667 38.7743 49.839 38.8742 49.839 38.9756C49.839 39.0775 49.867 39.1794 49.9169 39.2599C50.02 39.4266 50.1448 39.5299 50.2801 39.5885C50.431 39.6539 50.5978 39.6639 50.7712 39.6315C51.1982 39.5519 51.671 39.198 51.9719 38.9671L52.0301 38.9225C52.6967 38.4138 53.3284 37.851 53.8838 37.2216C54.8296 36.1497 55.6791 34.8867 56.1154 33.5066C56.4229 33.7086 56.8028 33.8046 57.2001 33.8197C57.7788 33.8417 58.3914 33.6927 58.8428 33.4786C59.8375 33.0067 60.4417 32.1142 60.7249 31.0878C61.0537 29.8958 60.9468 28.5254 60.5306 27.4547C60.5185 27.4235 60.5059 27.3925 60.493 27.3611C61.7745 24.113 62.1686 20.5062 62.0588 17.0399C62.0075 15.4174 61.897 13.7151 61.5144 12.1327C61.3429 11.4234 61.0449 10.748 60.5691 10.1896C60.2978 9.87123 59.965 9.62335 59.6306 9.37615C59.341 9.16204 59.0503 8.94841 58.8057 8.68108L58.69 8.55414C58.665 8.52654 58.6399 8.49897 58.615 8.47144C58.1926 8.00569 57.7813 7.55376 57.2687 7.17179C56.6742 6.72892 56.0182 6.38228 55.3365 6.09439C53.868 5.47442 52.2874 5.10268 50.7239 4.81508C47.3412 4.19301 43.8687 4.16231 40.5275 5.03674C38.974 5.44324 37.4664 5.99966 35.9613 6.55541C35.8216 6.60701 35.6819 6.6586 35.5421 6.71007C34.3725 7.14087 33.2023 7.56984 32.0321 7.99881C31.4882 8.19817 30.9443 8.39753 30.4005 8.59708C30.2825 8.6404 30.167 8.7337 30.1012 8.84961C30.037 8.9627 30.0179 9.09459 30.0697 9.22593C30.4034 10.0717 30.8244 10.8651 31.3369 11.6061C31.1588 11.7273 31.0073 11.8884 30.8926 12.077C30.7476 12.3156 30.6617 12.598 30.6559 12.8976C30.6364 13.9011 31.5492 14.5813 32.3065 15.0733C32.3771 15.1192 32.447 15.1463 32.5145 15.1587C31.7807 17.9655 31.0783 20.7819 30.4814 23.6205L30.4403 23.8173C29.8254 26.7881 29.4287 29.8198 30.0102 32.8301C30.5109 35.4222 31.6742 37.924 33.4919 39.855C35.2732 41.7476 37.6635 42.939 40.2497 43.2046ZM56.1644 26.1148C56.4808 25.1101 56.6486 24.017 56.5275 22.9986C56.4512 22.3584 56.2588 21.7422 55.9456 21.1779C55.7661 20.8548 55.5475 20.5556 55.3088 20.2738L55.2265 20.1792C55.1848 20.1308 55.1433 20.0864 55.1305 20.0307C55.123 19.9984 55.1306 19.963 55.1503 19.9207C55.1939 19.827 55.2748 19.7368 55.3506 19.6487C55.3988 19.5927 55.4459 19.5377 55.4854 19.4842C56.179 18.545 56.6962 17.4268 56.5281 16.2358C56.3641 15.0737 55.6027 13.9905 54.7923 13.1742C53.0076 11.3767 50.2407 10.9636 47.8169 11.0628C46.4059 11.1205 44.9972 11.3692 43.6535 11.8038C42.9909 12.0181 42.3431 12.2791 41.7135 12.5783L41.5741 12.6452C41.4989 12.6817 41.4237 12.7185 41.3485 12.7554C40.8564 12.9968 40.3624 13.2406 39.8282 13.3719C38.785 13.6281 38.0773 13.0884 37.3335 12.5441C37.0785 12.3575 36.8197 12.1684 36.5446 12.0024L36.488 11.9689C35.9917 11.6811 35.3981 11.4875 34.8279 11.4961C34.3325 11.5037 33.8547 11.6619 33.4656 12.0358C33.3857 12.1126 33.3398 12.1964 33.3182 12.2798C33.2751 12.3402 33.2404 12.4122 33.2178 12.4972C33.0784 13.0203 32.9396 13.5439 32.8014 14.0675L32.6883 13.9946C32.3533 13.777 31.9892 13.5283 31.8247 13.1642C31.7614 13.0241 31.7704 12.7906 31.8502 12.619C31.878 12.559 31.9149 12.5057 31.9659 12.4724C32.0029 12.4482 32.0476 12.4368 32.0995 12.441C32.2257 12.4572 32.3416 12.4388 32.4399 12.3972C32.5533 12.3493 32.6437 12.2704 32.7023 12.1754C32.7624 12.0781 32.7897 11.9637 32.7751 11.8451C32.7624 11.7431 32.7186 11.6366 32.6317 11.5365C32.0603 10.8776 31.5791 10.1508 31.2134 9.36196L33.6325 8.46661C34.4951 8.14753 35.3578 7.82886 36.2209 7.51142L36.6935 7.33773C38.2629 6.76188 39.8414 6.19911 41.4735 5.82837C44.7172 5.09163 48.0996 5.26479 51.3342 5.95828L51.5296 6.00052C52.887 6.2966 54.2626 6.65483 55.5085 7.27751C56.12 7.58314 56.7013 7.95478 57.2005 8.42432C57.4209 8.63167 57.6202 8.8587 57.8196 9.08542C58.099 9.40315 58.3788 9.72002 58.711 9.98767L59.0194 10.2347C59.4781 10.6045 59.8919 10.9648 60.1508 11.5383C60.4215 12.1378 60.5507 12.8002 60.6561 13.4455C60.9219 15.0712 61.0268 16.723 61.0168 18.3697C60.9999 21.1346 60.58 23.8433 60.0495 26.5423C59.6239 25.933 59.026 25.4606 58.2586 25.3599C57.7583 25.2942 57.2623 25.3875 56.8322 25.6088C56.5836 25.7367 56.357 25.9074 56.1644 26.1148ZM56.9684 29.3979C57.5287 29.1808 58.1171 29.1097 58.71 29.2135C58.7721 29.2243 58.8313 29.2114 58.8811 29.1825C58.9316 29.1531 58.9714 29.1067 58.993 29.0555C59.0179 28.9962 59.0192 28.9321 58.9972 28.8752C58.9781 28.8258 58.9416 28.7778 58.8746 28.7458C58.2327 28.4393 57.5191 28.3041 56.8109 28.4003L56.7409 28.4102C56.3788 28.464 55.8697 28.577 55.4879 28.7995C55.1879 28.9744 54.9683 29.2154 54.9137 29.5302C54.8852 29.6943 54.9259 29.8656 55.0205 29.9897C55.1119 30.1098 55.2516 30.1898 55.4324 30.1846C55.7515 30.1756 55.9403 30.0407 56.1676 29.866C56.1952 29.8448 56.2234 29.8231 56.2528 29.8011C56.4724 29.6367 56.7124 29.4971 56.9684 29.3979Z" fill="#0C0C0C"/>
<path fill-rule="evenodd" clip-rule="evenodd" d="M43.6129 33.2778C43.0047 33.1604 42.248 33.4162 41.6414 33.5283L41.5962 33.5365C40.8606 33.665 40.1267 33.8204 39.383 33.8962C38.673 33.9688 37.9479 33.9818 37.2378 33.9001C36.8969 33.8609 36.5588 33.7941 36.2275 33.7045C36.0858 33.6662 35.9453 33.6234 35.8064 33.5759L35.7907 33.5699C35.6886 33.5277 35.4127 33.369 35.416 33.4574C35.3384 33.3679 35.2316 33.3044 35.1143 33.2735C34.9487 33.23 34.7362 33.2709 34.5977 33.388C34.4174 33.2452 34.1471 33.3476 34.0262 33.5186C33.819 33.8118 33.8864 34.1555 33.9132 34.4956L33.9154 34.5256C33.9382 34.8463 33.973 35.1647 34.016 35.483L34.0349 35.6194C34.1017 36.0901 34.1201 36.8664 34.6902 37.0207C35.1412 37.1428 35.5539 36.6786 35.8446 36.3103L36.0037 36.1063C36.1921 35.8671 36.3632 35.6209 36.5011 35.349C36.5639 35.2252 36.6246 35.0985 36.6772 34.97C36.6838 34.9538 36.6887 34.9393 36.6937 34.9247C37.53 35.0373 38.3861 35.0212 39.2246 34.9106C39.7554 34.8406 40.2784 34.7394 40.7935 34.6035L41.0258 35.0237C41.2978 35.5137 41.5736 36.0023 41.8636 36.4812L41.8861 36.5177C42.1575 36.9496 42.6119 37.3822 43.1492 37.0587C43.63 36.7691 43.6504 36.1104 43.7011 35.6189C43.7349 35.2905 43.7623 34.9599 43.7755 34.6298L43.7802 34.4883C43.7889 34.1682 43.841 33.7971 43.7179 33.4977C43.7001 33.4541 43.6374 33.4205 43.5997 33.4664C43.3427 33.779 43.2649 34.2635 43.1539 34.6471C43.0303 35.074 42.8512 35.5402 42.787 35.9829L42.769 35.9517C42.7058 35.8315 42.6412 35.7119 42.5763 35.5924L42.3817 35.2341C42.2072 34.9106 42.0295 34.5892 41.8502 34.2684C42.055 34.1915 42.2578 34.1088 42.4598 34.0248L42.9183 33.833C43.1802 33.7224 43.4473 33.5975 43.6441 33.3961C43.679 33.3605 43.6669 33.2881 43.6129 33.2778ZM34.9148 34.4597C35.3666 34.6434 35.8339 34.776 36.3096 34.8639C36.2789 34.8954 36.2483 34.9268 36.2198 34.9599C36.1079 35.0895 35.9891 35.214 35.8696 35.3371L35.7979 35.4108C35.6149 35.5986 35.34 35.9079 35.0595 36.0877L35.0443 36.0066C35.0418 35.9926 35.0399 35.9804 35.0389 35.971L35.009 35.7042C35.0041 35.6597 34.9994 35.6152 34.995 35.5706C34.9709 35.3299 34.9516 35.0887 34.9315 34.8477C34.921 34.7207 34.9184 34.5902 34.9148 34.4597ZM40.2611 18.9507C39.1852 18.491 37.9082 18.708 36.9814 19.4024C36.0331 20.1131 35.6184 21.2685 35.5635 22.4212C34.8135 21.7806 33.7335 22.2655 33.1018 22.8657C32.3729 23.5584 32.0042 24.6038 32.1741 25.5959C32.3434 26.5847 33.0587 27.457 34.0264 27.751C34.4894 27.8917 35.0054 27.8949 35.4712 27.764C35.6294 27.7195 35.8232 27.6505 36.0022 27.5545C35.992 27.5956 35.9816 27.6368 35.9719 27.6778C35.7395 28.6618 35.6077 29.7678 35.9564 30.7409C36.5169 32.3045 38.5076 33.1799 39.7504 31.792C40.2384 31.2471 40.6177 30.3937 40.5882 29.6509C40.5727 29.2605 40.3516 28.8089 39.8952 28.8353C39.5413 28.8557 39.3735 29.152 39.4641 29.4656L39.4696 29.4837C39.6615 30.0831 39.3339 30.9492 38.8594 31.358C38.1316 31.9849 37.1329 31.4394 36.7349 30.7042C36.2712 29.8474 36.3276 28.7489 36.4759 27.8168C36.6215 26.9015 36.9461 26.0644 37.2907 25.2175C37.3273 25.2241 37.3643 25.2302 37.4022 25.2353C38.0876 25.3284 39.482 25.3634 40.2392 24.8668C40.1578 25.6333 40.3174 26.4224 40.7527 27.0715C41.2378 27.7948 41.9686 28.1776 42.8191 28.2949C43.6452 28.409 44.6027 28.4321 45.4183 28.2363C47.155 27.8193 47.7674 25.6744 47.2421 24.1261C46.9314 23.2103 46.0645 22.3865 45.1008 22.1785C44.6043 21.8518 43.9377 21.7551 43.3647 21.7996C42.509 21.8663 41.6662 22.2362 41.093 22.8858C40.8741 23.1339 40.694 23.4149 40.5552 23.7155C40.5086 23.6788 40.4543 23.6512 40.3929 23.6368C40.297 23.6143 40.2132 23.6092 40.1194 23.6423C40.0727 23.6588 40.0053 23.7172 39.9648 23.7551L39.8723 23.8639C39.7588 23.9961 39.651 24.1071 39.449 24.1893C38.8859 24.4186 38.1223 24.4683 37.5241 24.4214C35.9978 24.3019 36.19 22.2795 36.566 21.2405C37.0113 20.0097 38.2877 19.244 39.5862 19.4626C40.1441 19.5565 40.6764 19.8535 41.0848 20.2417C41.5407 20.6751 41.7359 21.1986 42.0094 21.7472C42.0256 21.7796 42.0815 21.7726 42.0884 21.7368C42.3132 20.5801 41.2474 19.3722 40.2611 18.9507ZM48.3905 28.2764C48.4368 28.222 48.376 28.1262 48.3095 28.1714C47.8231 28.502 47.2821 28.7406 46.6939 28.8051C46.4177 28.8353 46.1393 28.8374 45.8641 28.795C45.6297 28.7588 45.4184 28.6873 45.1845 28.7519C45.0599 28.7863 45.0373 28.9308 45.1134 29.0215C45.4668 29.4423 46.3371 29.3299 46.8116 29.2171C47.4252 29.0713 47.9815 28.7571 48.3905 28.2764ZM32.0194 27.5079C31.7806 27.3599 31.4963 27.6531 31.6375 27.8899C32.0002 28.4975 33.0512 28.547 33.661 28.4016C33.7087 28.3903 33.6978 28.3154 33.6495 28.3167C33.299 28.3254 32.9823 28.258 32.6804 28.0751C32.4224 27.9188 32.2685 27.6623 32.0194 27.5079ZM43.6733 22.6506L43.7212 22.651C44.2787 22.66 44.7892 22.8727 45.3265 22.9851C45.371 22.9945 45.4157 22.9897 45.456 22.9749C46.1103 23.4116 46.5613 24.0982 46.6226 25.0016C46.665 25.6274 46.5123 26.3092 46.1409 26.8227C45.7181 27.4071 45.0371 27.4973 44.3664 27.5148L44.2982 27.5163C43.0304 27.541 41.6356 27.4661 41.1836 26.0482C40.8492 24.9988 41.2063 23.7248 42.138 23.0962C42.5905 22.7909 43.1308 22.6501 43.6733 22.6506ZM33.4588 23.4032L33.496 23.3598C33.9933 22.789 34.7817 22.2692 35.5591 22.5566L35.5568 22.6528C35.5565 22.6688 35.5564 22.6848 35.5564 22.7009C35.5588 23.803 35.9857 24.8316 37.0351 25.1551C36.7536 25.5568 36.5274 26.0026 36.3462 26.4653C36.2823 26.4235 36.2046 26.397 36.1143 26.3879C35.7449 26.3504 35.5333 26.6975 35.2129 26.8269C34.913 26.9483 34.5729 26.9795 34.2563 26.9169C33.5637 26.7799 33.0778 26.1825 32.9076 25.5196C32.7151 24.7702 32.9694 23.9845 33.4588 23.4032ZM44.001 24.3308C43.7701 23.9406 43.2004 23.997 42.972 24.3411L42.9611 24.3582L42.9586 24.3551C42.5782 24.8482 42.7621 25.627 43.3144 25.9043C43.7574 26.1265 44.3209 26.0682 44.6154 25.6356C44.6814 25.5386 44.7238 25.4245 44.7393 25.309C44.7499 25.2304 44.7438 25.1519 44.7262 25.0738L44.7307 25.092C44.7219 25.0526 44.7081 24.9908 44.7045 24.9761C44.6656 24.8171 44.5722 24.6464 44.4554 24.5312C44.3351 24.4126 44.1679 24.3405 44.001 24.3308ZM34.5104 23.9254C34.3059 23.9254 34.1244 24.011 33.9766 24.1467C33.7665 24.3397 33.7372 24.6176 33.7826 24.8812C33.7965 24.9617 33.8156 25.0395 33.8357 25.1186L33.8529 25.1903C33.8559 25.2022 33.8592 25.214 33.8628 25.2256C33.8754 25.2747 33.8954 25.3197 33.9193 25.3629C34.0067 25.6886 34.3609 25.8504 34.6731 25.7793C34.82 25.7458 34.9665 25.6239 35.0414 25.496C35.066 25.4539 35.0833 25.4119 35.0955 25.3698L35.1563 25.2256C35.1677 25.191 35.1749 25.154 35.184 25.1186C35.2044 25.0395 35.224 24.9616 35.2382 24.8812C35.2864 24.6088 35.248 24.3505 35.0441 24.1467C34.9073 24.0097 34.7039 23.9254 34.5104 23.9254ZM39.0158 21.0996C38.6608 21.052 38.2992 21.2174 38.1157 21.5311C37.9562 21.8038 37.9568 22.1706 38.1157 22.4433L38.1291 22.4663C38.4217 22.9685 39.1041 23.033 39.5146 22.6449L39.5345 22.6262C39.7985 22.3767 39.8579 21.9631 39.7212 21.6391C39.5963 21.3428 39.3343 21.1425 39.0158 21.0996Z" fill="#0C0C0C"/>
<path fill-rule="evenodd" clip-rule="evenodd" d="M30.2661 28.2264C31.2843 29.2788 32.984 29.5808 34.3386 29.0164C37.817 27.5626 36.1144 23.0282 33.4319 21.8105C33.0968 21.7269 32.6492 21.5287 32.2411 21.4837C32.2042 21.4656 32.1238 21.518 32.0265 21.4685C29.0685 21.7988 28.3949 26.3921 30.2661 28.2264ZM41.4851 28.4957C42.6271 30.0109 44.7502 30.4784 46.4848 29.774C49.9116 28.424 48.6962 24.4031 46.3516 22.8268C41.3989 20.9651 39.3537 25.702 41.4851 28.4957ZM48.9137 25.1385C48.9169 25.137 48.9201 25.1363 48.9234 25.1347C48.9052 25.1268 48.8871 25.1188 48.8691 25.1107C48.875 25.126 48.8813 25.1412 48.887 25.1566C48.8959 25.1504 48.9037 25.1433 48.9137 25.1385ZM27.9085 23.5007C28.1881 23.5013 28.592 23.5472 28.8235 23.7413C29.3943 21.8157 31.5011 20.0336 33.3333 21.3331C34.7762 21.7972 35.8468 22.8267 36.4554 24.1953C37.5525 23.5425 39.2778 23.8212 40.2292 24.6846C40.8523 22.6249 42.3858 21.9037 44.2111 21.7972C46.2033 21.4708 48.1891 23.4063 48.8086 24.959C49.3238 24.9003 50.0936 24.7363 50.5782 25.0544C53.7237 24.2292 59.223 23.7743 59.8625 24.2327C60.3182 24.4076 60.5683 25.4837 59.9317 25.5417C59.3771 25.4629 59.9965 24.7533 59.4374 24.6759C56.4583 24.4911 53.5663 25.0913 50.6187 25.3431C50.3556 25.6972 49.5053 25.8157 49.0517 25.6734C49.7661 28.3073 48.2239 30.0993 45.913 30.636C42.3348 31.4582 39.2217 28.2562 40.1574 24.9257C39.0735 24.3863 37.8267 24.4094 36.6459 24.6936C38.619 31.9578 26.9237 31.6319 28.7503 23.9902C27.5348 24.5951 27.2708 23.6227 27.9085 23.5007Z" fill="#0C0C0C"/>
</svg>
