<svg width="70" height="100" viewBox="0 0 70 100" fill="none" xmlns="http://www.w3.org/2000/svg">
<path fill-rule="evenodd" clip-rule="evenodd" d="M34.9616 34.144C33.8346 33.8319 32.539 33.8682 31.3828 33.948C30.2086 34.0291 28.9486 34.1682 27.8467 34.6068C26.8889 34.9881 26.0812 35.6293 25.589 36.5481C25.1844 37.3034 24.9946 38.1317 24.8757 38.9731C24.827 39.3174 24.7863 39.6625 24.7476 40.008L24.668 40.7267C24.6368 41.0015 24.6096 41.2076 24.5549 41.5142C24.4037 42.3623 24.1931 43.0708 23.723 43.6879C22.5845 45.1816 20.7255 45.6816 19.035 46.3192C17.9532 46.7272 17.0966 47.4611 16.8589 48.6404C16.6296 49.778 7.9113 59.3226 7.05541 60.1272L7.0319 60.1489C6.36798 60.7469 6.44614 61.871 6.35323 62.6917C6.25368 63.5717 6.15892 64.4523 6.06894 65.3332C5.88629 67.1228 5.72352 68.9144 5.5807 70.7076C5.02234 77.7205 4.769 84.7578 4.82285 91.7926L4.82622 92.1908C4.83452 93.0836 4.8279 93.9803 4.8679 94.8722C4.90639 95.7295 5.16568 96.5874 5.95967 97.0352C6.69525 97.45 7.62541 97.4135 8.44749 97.4549L8.49668 97.4575C9.3788 97.5058 10.2613 97.5454 11.1441 97.5781C14.7322 97.7109 18.3235 97.7253 21.9136 97.7087C29.0358 97.6759 36.1651 97.5193 43.2806 97.9182C45.0944 98.0199 50.8769 97.402 52.685 97.5781C54.4132 97.7463 52.9304 98.5942 53.998 98.5384C57.5091 98.3546 60.8395 97.5709 64.2034 96.6269C64.6236 96.509 64.945 96.101 64.9397 95.66C64.8772 90.8162 64.7405 85.9737 64.5269 81.1342C64.3367 76.8233 64.0859 72.5151 63.7749 68.2113C63.6396 66.3405 63.493 64.4705 63.3351 62.6015L63.2667 61.8006C63.1775 60.7677 63.1261 59.7159 62.9231 58.6973C62.7223 57.69 62.2667 56.8164 61.606 56.0358C61.0132 55.3356 54.3015 49.8537 52.685 48.8159C51.1378 47.8224 49.5131 46.9843 47.9247 46.0636C47.2639 45.6806 46.6292 45.8184 46.0647 45.3482C45.7671 45.1003 41.4486 43.4302 40.2834 42.8791L40.2491 42.8628C39.3573 42.4348 38.5367 41.9707 37.9205 41.2306C37.7139 40.9825 37.3088 39.4195 37.3081 38.9201C37.3066 38.028 37.3742 37.0882 37.1052 36.224C36.7835 35.1906 36.0081 34.4337 34.9616 34.144ZM33.051 57.1467L39.9516 70.5905H35.4644L38.6808 78.0601H31.6174L34.123 88.5227L19.7941 70.5905H25.171L19.7941 63.5302H23.5234L19.7941 57.551L33.051 57.1467Z" fill="white"/>
<path fill-rule="evenodd" clip-rule="evenodd" d="M9.87039 64.7064C9.88633 64.7223 9.9031 64.7383 9.91903 64.7551C9.90058 64.7291 9.88465 64.7021 9.87039 64.6754V64.7064ZM23.2812 60.7902C23.901 61.5823 24.5568 63.1938 25.1589 64C25.2452 64.1157 25.3299 64.2316 25.4138 64.3481C25.6637 64.698 25.3299 65.2332 24.919 65.2106C24.098 65.1669 23.2779 65.1058 22.4577 65.0437C24.1425 66.9219 25.5413 69.2551 27.0885 71.2449C27.1933 71.3783 27.2965 71.5126 27.3996 71.6468C27.7912 72.1577 27.3988 72.3893 26.8637 72.2516C26.753 72.2232 26.6423 72.1947 26.5317 72.167C25.7534 71.9673 24.9761 71.7677 24.1978 71.5688C23.7676 71.458 23.3349 71.3214 22.8988 71.2366C22.7194 71.2022 22.5475 71.2308 22.3781 71.24C22.4594 71.3641 22.5735 71.5881 22.5961 71.6224C22.8502 72.0184 23.106 72.4127 23.3634 72.8053C23.8649 73.5688 24.3689 74.3313 24.8914 75.0805C26.9291 78.0016 29.1271 80.7903 31.3058 83.6049C31.8542 84.3129 32.4102 85.0135 32.9754 85.7073C32.9729 85.703 32.9712 85.6988 32.9687 85.6947C32.4597 84.703 31.9507 83.7123 31.4416 82.7206C30.4739 80.8365 29.5154 78.9472 28.5376 77.068C28.4873 76.9698 28.4361 76.8725 28.385 76.7744C28.182 76.385 28.5149 75.9808 28.9317 76.0629C30.965 76.4636 32.9785 76.9561 34.9671 77.5392C35.0566 77.6346 35.1882 77.6625 35.3057 77.6395C35.3856 77.6634 35.4658 77.6864 35.5457 77.7106C35.5215 77.6604 35.4964 77.6106 35.472 77.5605C35.5533 77.4899 35.5937 77.3806 35.5409 77.2441C34.3966 74.2904 32.8278 71.439 30.9689 68.8276C31.0437 68.829 31.1184 68.8301 31.1934 68.8323C33.2337 68.8876 35.2355 69.1804 37.202 69.7365C37.2112 69.5545 37.1013 69.2727 37.0418 69.1385C36.8036 68.6023 36.5303 68.0788 36.2745 67.5511C35.7512 66.4672 35.2279 65.3843 34.7046 64.3003C34.1931 63.2416 33.6857 62.1796 33.2044 61.1058C32.952 60.5427 32.6995 59.979 32.448 59.4153C32.2425 58.9563 32.0807 58.4941 31.9104 58.0244C31.4106 58.1712 24.9928 58.203 23.433 58.3113C23.0506 58.3381 22.6674 58.3625 22.2842 58.3834C21.9789 58.4011 21.5487 58.4682 21.3382 58.1922L21.2586 58.2592C21.9512 59.0881 22.6154 59.9396 23.2812 60.7902ZM48.3377 45.391C48.3059 45.3767 48.2748 45.3625 48.2438 45.3482C48.2279 45.3709 48.2086 45.3918 48.1885 45.4128C48.1381 45.464 48.0887 45.5193 48.0367 45.5697C48.1373 45.5109 48.2379 45.4513 48.3377 45.391ZM3.48614 92.5378C3.544 91.3155 3.60858 90.0931 3.67734 88.8708C3.81319 86.4816 3.95324 84.0923 4.14024 81.7064C4.52013 76.8717 4.87402 72.0386 5.44343 67.2214C5.68243 65.2021 6.01619 63.198 6.35079 61.1929C6.30803 61.1543 6.26442 61.1157 6.22165 61.0781C6.26777 61.6266 5.52309 61.974 5.15411 61.427C5.12644 61.386 5.09961 61.3448 5.07277 61.3021C4.75327 60.7853 4.01697 58.25 4.06813 58.0352C4.16037 57.6485 4.41698 57.3046 4.61741 56.964C4.79268 56.6661 4.96962 56.3683 5.14908 56.073C5.50716 55.4815 5.87615 54.896 6.26274 54.323C7.0636 53.1368 7.9391 51.9975 8.97057 51.0017C10.0381 49.9698 11.2633 49.1216 12.5287 48.3524C13.1367 47.9832 13.764 47.6485 14.403 47.3364C15.0336 47.0293 15.7238 46.6896 16.4031 46.5151C16.4416 46.505 16.4811 46.5588 16.4458 46.5873C16.2655 46.7299 16.0769 46.8641 15.8848 46.9933C16.4047 46.813 16.9406 46.6829 17.4807 46.6367C18.5264 46.2693 19.5847 45.9329 20.6254 45.5495C21.6485 45.1719 22.6565 44.7475 23.3366 43.8532C23.9177 43.0889 24.285 42.1536 24.5677 41.2425C24.8779 40.2383 25.0012 39.1946 25.288 38.1887C25.3107 38.1073 25.444 38.0981 25.4616 38.1887C25.6662 39.2441 25.657 40.4304 25.5404 41.4958C25.418 42.6132 25.1035 43.7098 24.4192 44.6183C23.6242 45.6745 22.5458 46.2626 21.3323 46.7315C20.3537 47.1108 19.3625 47.4966 18.3604 47.8355C18.4912 47.9212 18.6237 48.0067 18.7604 48.0881C19.3038 48.4111 19.869 48.698 20.4468 48.9556C21.5017 49.4261 22.6129 49.7786 23.7307 50.0646C25.8113 50.5948 27.9447 50.8641 30.0898 50.8994C34.3818 50.9707 38.7215 50.0714 42.647 48.3348C43.7523 47.8457 44.8315 47.3079 45.8999 46.7433C46.2337 46.5671 46.5691 46.3892 46.9029 46.2063C46.8752 46.2047 46.8467 46.2022 46.819 46.1996C46.0735 46.1292 45.3372 45.9858 44.616 45.7828C43.1393 45.3658 41.7237 44.7157 40.3333 44.0755C39.1542 43.5327 37.9399 42.9144 37.2196 41.7836C36.8347 41.1787 36.6577 40.469 36.5143 39.7744C36.3542 39.0009 36.1655 38.224 36.0489 37.443C36.0078 37.1695 36.069 36.7995 36.3625 36.6704C36.4799 36.6191 36.5764 36.5771 36.708 36.5771C36.999 36.5771 37.2976 36.7886 37.3672 37.0789C37.5391 37.8029 37.6431 38.547 37.7781 39.2785C37.8947 39.911 38.0012 40.5714 38.3425 41.1275C38.9387 42.1016 40.1077 42.5998 41.0956 43.0739C42.3476 43.6745 43.6005 44.26 44.9011 44.7475C45.4739 44.9622 46.0567 45.1569 46.6479 45.3162C46.6245 45.1712 46.6446 45.0184 46.7301 44.9035C46.8727 44.7139 47.0345 44.5881 47.2182 44.443C47.4178 44.2852 47.6861 44.2031 47.9218 44.2727C47.9218 44.2735 47.9226 44.2727 47.9226 44.2727C48.0182 44.2517 48.1239 44.26 48.2329 44.3095C48.57 44.464 48.9063 44.6199 49.2426 44.7786C54.0804 47.0554 58.7808 49.7298 62.3406 53.8028C62.8539 54.3901 63.3344 55.0076 63.7847 55.6443C64.2224 56.2626 64.7642 56.9338 64.8849 57.7005C64.895 57.7643 64.8019 57.7937 64.786 57.7282C64.7575 57.6099 64.7189 57.4941 64.6711 57.3817C64.7709 57.7308 64.765 58.1016 64.6241 58.4664C64.4573 58.8959 64.1512 59.1804 63.7646 59.2936C64.1528 60.9959 64.4136 62.7207 64.6233 64.4647C64.9244 66.9773 65.1382 69.4959 65.2992 72.0209C65.6212 77.0605 65.7646 82.125 65.6606 87.1737C65.6313 88.6006 65.5827 90.0277 65.5089 91.4539C65.472 92.167 65.4317 92.8792 65.3856 93.5922C65.3403 94.2937 65.3772 95.0663 64.7659 95.4363C64.7583 95.464 64.7499 95.4907 64.7424 95.5184C64.5939 96.036 63.9323 95.87 63.8702 95.4001C63.8694 95.3952 63.8686 95.3892 63.8677 95.3843C63.3679 95.0026 63.4434 94.3667 63.4803 93.7567C63.5197 93.0982 63.5616 92.4405 63.5969 91.7828C63.6639 90.5209 63.721 89.2593 63.7721 87.9966C63.8719 85.5 63.9281 83 63.9465 80.5016C63.9834 75.5042 63.695 70.5142 63.3528 65.5311C63.2094 63.4463 63.0417 61.3708 62.9905 59.2869C62.723 59.1476 62.6408 58.7517 62.775 58.4849C59.6068 60.6476 56.6667 63.2332 54.306 66.2383C53.9119 66.7399 53.5354 67.2567 53.1748 67.7828C53.0574 67.9538 52.9458 68.1318 52.8334 68.3095C52.9425 68.8053 53.0272 69.3095 53.1379 69.7852C53.366 70.7677 53.4624 71.7869 53.5932 72.7853C53.859 74.813 54.0461 76.859 54.2046 78.8976C54.5165 82.9236 54.748 86.9489 54.8209 90.9866C54.8612 93.2701 54.9148 95.5679 54.8142 97.8507C54.8888 98.2969 54.4872 98.7333 54.067 98.7895C53.6989 98.8389 53.3551 98.6477 53.194 98.3397C52.0468 98.4823 50.8694 98.5479 49.7298 98.5562C48.1943 98.5671 46.6588 98.5655 45.1234 98.5327C42.0516 98.4656 38.9806 98.3868 35.9097 98.2954C29.7678 98.1141 23.6259 97.9321 17.4832 97.75C15.78 97.6996 14.0768 97.6494 12.3736 97.599C11.6054 97.5764 10.6478 97.7978 10.0423 97.2048C9.93831 97.1023 9.85781 96.9823 9.80078 96.854C9.61964 96.8993 9.39742 96.8548 9.27834 96.7147C9.05611 96.4521 8.89258 96.2089 8.90097 95.8448C8.90852 95.5042 9.00244 95.1452 9.05108 94.8079C9.14333 94.1745 9.23222 93.5411 9.31691 92.9068C9.4838 91.6535 9.63977 90.3985 9.78318 89.1426C10.0767 86.5747 10.3434 84.0008 10.5513 81.4245C10.9639 76.3298 11.0805 71.2081 11.0662 66.0974C11.0646 65.6402 11.062 65.1829 11.0595 64.7256C11.0402 64.75 11.0193 64.7726 10.9966 64.792C10.9782 64.8079 10.9597 64.8238 10.9413 64.8407C10.7266 65.0294 10.3694 65.1267 10.1119 64.948C9.79575 64.7433 9.57772 64.4362 9.33117 64.1586C9.07204 63.8675 8.80537 63.5839 8.53618 63.3021C8.01457 62.7568 7.47535 62.234 6.92523 61.7172C6.88079 61.6762 6.83634 61.6343 6.7919 61.5939C6.78854 63.2206 6.79021 64.8465 6.74661 66.4724C6.6812 68.8876 6.55038 71.3004 6.43046 73.7123C6.1923 78.4882 5.94575 83.2625 5.70842 88.0377C5.64217 89.3709 5.57928 90.7047 5.51303 92.0377C5.47949 92.7047 5.44678 93.3716 5.41491 94.0386C5.39814 94.3993 5.38137 94.761 5.3646 95.1217C5.34615 95.5093 5.37047 95.9236 5.23965 96.292C4.94195 97.1342 3.65554 97.2533 3.40815 96.292C3.25301 95.6888 3.37209 94.9907 3.39977 94.3716C3.42828 93.761 3.45679 93.1493 3.48614 92.5378Z" fill="#0C0C0C"/>
<path fill-rule="evenodd" clip-rule="evenodd" d="M15.3296 23.7577C15.3629 21.8783 15.3998 19.9614 15.6791 18.1003C15.9521 16.2809 16.7033 14.6362 17.994 13.315C20.7357 10.5085 24.7098 9.82306 28.409 9.19487L34.7336 8.12079C36.6632 7.79319 38.7217 7.26954 40.6711 7.73413C41.6318 7.96308 42.4475 8.49496 43.1931 9.12423C43.9118 9.73078 44.6845 10.3821 45.1715 11.1981C45.6593 12.0153 45.8271 12.9706 45.9857 13.8949C46.1646 14.9369 46.3035 15.9871 46.4022 17.0398C46.6 19.1488 46.627 21.2737 46.4836 23.3872C46.414 24.4122 46.3034 25.4344 46.1622 26.452C46.0922 26.9566 46.013 27.46 45.9236 27.9616C45.8973 28.1095 45.8772 28.2732 45.8502 28.4387C46.0497 29.0063 46.1631 29.5941 46.154 30.1794C46.1271 31.9036 44.6723 32.9891 43.2058 33.5719C42.3555 33.9098 41.4665 34.1394 40.631 34.5169C39.752 34.914 39.1538 35.5577 38.5528 36.292C37.4067 37.6925 36.1134 38.9513 34.6365 40.0014C31.5054 42.228 27.5395 43.2811 23.7403 42.4818C22.8287 42.29 21.9091 41.9922 21.0897 41.5434C20.2246 41.0697 19.5741 40.3832 19.0279 39.5716C18.0136 38.0648 17.2862 36.368 16.7359 34.6414C16.1746 32.8802 15.7762 31.1158 15.5589 29.2793C15.3424 27.4487 15.2968 25.5996 15.3296 23.7577Z" fill="white"/>
<path fill-rule="evenodd" clip-rule="evenodd" d="M35.5121 1.57413C32.8948 1.21398 29.2824 2.38453 27.9789 4.74477C21.756 3.27715 13.9073 3.22908 8.7784 8.11473C3.42655 13.9102 10.1488 21.5516 14.6062 23.2744C14.2816 24.8521 14.7876 34.96 18.368 39.4686C21.2095 43.2887 27.8267 45.0517 30.8886 40.4889L30.9125 40.4512C31.2406 39.9243 30.958 39.9412 30.6213 40.3332C27.623 42.9709 23.5463 43.016 20.4048 40.2323C14.5172 35.1442 15.1242 22.6685 17.9258 15.4511C25.9034 14.5746 34.4449 16.9935 39.9549 23.001L39.5823 25.2449C39.5188 25.6272 39.4467 26.0092 39.3917 26.3928C39.3565 26.6386 39.3525 26.8831 39.5227 27.0821C40.0849 27.739 41.0322 26.7519 41.8117 26.3593C42.0418 26.3269 42.2723 26.3144 42.4984 26.3303C46.2434 26.8129 45.5056 34.0805 41.3896 32.8066C41.0437 32.5911 40.7466 32.6569 40.6124 32.9696C39.6313 33.8686 38.9845 35.472 37.3545 37.0162C36.7794 37.5955 36.256 38.0802 35.6091 38.5449C35.2291 38.9292 34.0826 39.3212 34.446 39.979C35.1334 41.4758 39.1864 36.774 39.903 35.4738C42.1481 36.3607 44.6363 36.0594 46.963 35.8427C59.2375 35.2042 57.5989 22.2605 47.5377 14.0884C45.6438 12.6936 43.5543 11.5558 41.3823 10.6802C41.0857 10.5606 41.2153 10.0735 41.516 10.1948C42.9532 10.7742 44.3542 11.4639 45.6898 12.2621L45.6918 11.7849C45.6938 10.9811 45.6812 10.1443 45.5416 9.40987C45.4718 8.90098 45.3545 8.35744 45.1739 7.94854C44.9506 6.69494 41.4524 2.39191 35.5121 1.57413ZM42.6622 27.9988C42.4727 27.8187 42.1189 28.0335 41.9502 28.0281C41.5187 28.0872 41.1088 28.2695 40.7891 28.4945C40.5781 28.6128 40.4301 28.7238 40.3065 28.826L40.3032 28.8251C40.3041 28.8251 40.3053 28.826 40.3063 28.8263L40.2946 28.8341C40.1147 28.9621 39.4558 29.6826 39.8721 29.4889C39.9031 29.4485 39.9349 29.4097 39.9669 29.3717C39.9703 29.3769 39.9751 29.3821 39.9808 29.387L39.9574 29.4217C39.6036 29.9542 40.2145 29.3932 40.3085 29.2442C40.3129 29.2478 40.3179 29.2503 40.3229 29.2529L40.2005 29.4019C40.1834 29.423 40.1699 29.4399 40.1588 29.4542L40.133 29.4791C39.7239 29.8814 39.7111 30.2434 40.1864 29.6487C40.1677 29.6767 40.1527 29.7064 40.1506 29.7327L40.1224 29.7687C39.7492 30.2497 40.0528 30.0788 40.2382 29.8734L40.2537 29.8557L40.2505 29.8605C40.078 30.1264 40.4203 29.9398 40.4808 29.7976L40.4833 29.7912C40.5492 29.7374 40.5898 29.677 40.6037 29.6618L40.6062 29.6592C40.9271 29.3304 41.3922 29.0521 41.7872 28.9257C41.8445 28.9148 41.9025 28.9061 41.961 28.8999C42.1986 28.8468 42.4388 28.8105 42.6814 28.7909C42.7111 28.7874 42.7412 28.7655 42.7637 28.7374C43.1307 28.725 43.0174 28.5745 42.8652 28.5465L42.8625 28.5461L42.8927 28.5435C43.1282 28.5205 43.2891 28.436 43.0509 28.3841L43.0207 28.3781C43.0244 28.3723 43.0277 28.3665 43.0309 28.3608C43.2348 28.3384 43.1017 28.14 42.9885 28.188C43.0362 28.0322 42.8185 28.11 42.7913 28.0868C42.7706 28.0639 42.7448 28.0436 42.73 28.0425C42.6644 27.9962 42.6962 28.0004 42.6622 27.9988ZM41.4144 25.4766L41.4622 25.5045C41.5008 25.5271 41.5406 25.5421 41.5805 25.5509C41.5241 25.5749 41.4685 25.6008 41.4134 25.6285C41.4143 25.5947 41.4149 25.5609 41.4149 25.5271L41.4144 25.4766Z" fill="#0C0C0C"/>
<path fill-rule="evenodd" clip-rule="evenodd" d="M23.098 34.1738C22.9694 33.9501 22.6732 33.7428 22.4022 33.7746C21.188 33.917 21.1901 35.3897 21.6589 36.2494C22.0746 37.0117 22.9349 37.4592 23.796 37.3939C24.7006 37.3252 25.4713 36.7931 25.8106 35.9466C26.0349 35.3866 26.1385 34.3528 25.5418 33.9765C25.5307 33.9695 25.5124 33.9712 25.5036 33.9814C25.2175 34.3143 25.2063 34.8143 24.9558 35.185C24.7228 35.5298 24.3609 35.8145 23.9369 35.8585C23.6202 35.8914 23.2999 35.7771 23.176 35.4927C23.109 35.3389 23.1166 35.2553 23.1418 35.1495L23.1647 35.0575C23.244 34.7352 23.2797 34.4898 23.098 34.1738ZM22.7735 27.7154C22.1402 28.1004 21.1753 28.9983 21.8565 29.953C22.6584 30.7947 23.813 29.8296 24.3819 29.3931C24.9094 29.0549 25.5022 29.9249 25.0127 30.3199C20.9016 33.3648 19.2332 27.8161 22.4532 27.2626C22.8077 27.2016 22.9394 27.5962 22.7735 27.7154ZM29.4607 25.0749C29.072 24.4915 28.1847 24.5774 27.9706 25.2697C27.8547 25.6447 28.0148 25.9818 28.0065 26.3563C27.9996 26.6726 28.0203 27.0251 28.1172 27.3315C28.3383 28.0302 28.9664 28.5236 29.7095 28.5032C30.4501 28.4828 31.1025 28.0138 31.4127 27.3533C31.724 26.6903 31.658 26.0042 31.4308 25.33C31.4199 25.2976 31.3775 25.2819 31.3519 25.3092C31.0832 25.5948 30.8866 25.8963 30.6831 26.2161L30.4746 26.5439C30.3152 26.7907 30.0836 27.106 29.786 27.0862L29.7414 27.0818C29.6587 27.0747 29.6714 27.0911 29.6076 26.9783C29.5781 26.9261 29.5834 26.8292 29.5692 26.7676L29.5642 26.7468L29.5669 26.7356C29.5732 26.7057 29.5795 26.6496 29.5846 26.552L29.5856 26.5305C29.6072 26.0744 29.7361 25.4882 29.4607 25.0749ZM19.6078 25.4633C19.6775 24.7171 18.6289 24.5514 18.2803 25.1035C18.0985 25.3914 18.0456 25.7531 18.0054 26.0958L17.9866 26.2584C17.9453 26.6103 17.929 26.9764 18.0817 27.3047C18.3222 27.8217 18.8452 28.0951 19.4094 28.0518C19.9482 28.0103 20.4398 27.6978 20.6989 27.2234C20.93 26.8001 21.1597 25.9736 20.8791 25.5321C20.8621 25.5053 20.8282 25.5019 20.805 25.5225C20.5399 25.758 20.4967 26.1875 20.339 26.4943C20.1764 26.8107 19.9298 27.1191 19.556 27.1672C19.1984 27.2132 19.0618 27.0178 19.1531 26.6768C19.2707 26.2365 19.5636 25.937 19.6078 25.4633ZM29.1774 20.6389L29.006 20.5732C28.4184 20.3512 27.6118 20.0945 27.1341 20.5725C26.8394 20.8672 26.7833 21.3013 26.9936 21.661C27.2485 22.0966 27.7056 22.1074 28.1471 22.1716C28.6491 22.2445 29.1597 22.3833 29.6272 22.5811C30.1537 22.804 30.6424 23.0819 31.1211 23.3922C31.5762 23.6871 32.0296 24.169 32.5743 24.2599C32.5965 24.2636 32.6217 24.254 32.6275 24.2296C32.7512 23.6969 32.4075 23.1726 32.1007 22.757C31.7295 22.2538 31.2798 21.8408 30.7772 21.4705C30.292 21.1131 29.7377 20.8548 29.1774 20.6389ZM18.5048 22.5329L18.4525 22.5237C18.0962 22.4644 17.7733 22.4781 17.5048 22.7604C17.2998 22.9757 17.2209 23.2548 17.3185 23.5396C17.4087 23.8022 17.6103 24.0691 17.9029 24.1241C18.8907 24.31 19.9848 24.2793 20.9775 24.1385C21.4317 24.0741 21.89 23.9953 22.3324 23.8709L22.5359 23.8119C22.9053 23.7064 23.3281 23.5961 23.5964 23.3244C23.6928 23.2267 23.6372 23.087 23.5218 23.0417C23.0537 22.8583 22.4121 22.9559 21.913 22.9416C21.3323 22.925 20.7508 22.8814 20.1729 22.8214C19.6082 22.7627 19.0617 22.6351 18.5048 22.5329Z" fill="#0C0C0C"/>
<path fill-rule="evenodd" clip-rule="evenodd" d="M16.889 29.1439C18.1475 29.7502 19.9034 28.8559 20.7496 27.919C21.0576 27.5779 21.2953 26.602 21.1768 25.9831C20.8559 24.3068 19.65 23.3008 18.3769 22.9572C16.6121 22.4809 14.8362 23.6876 15.0432 25.1116C15.2395 26.4612 15.537 28.4188 16.889 29.1439ZM25.4553 25.9239C25.5562 27.7507 27.0227 29.3496 28.7753 29.8233C31.5992 30.6116 32.9948 28.6258 33.627 26.4864C33.6898 26.2738 33.8375 25.625 33.4412 25.0685C31.8829 22.8793 28.0913 23.2524 26.1976 23.8534C25.6433 24.3837 25.4167 25.1491 25.4553 25.9239ZM15.5216 22.7732C15.5224 22.7742 15.5234 22.7752 15.5242 22.7763C15.5307 22.7723 15.5371 22.7683 15.5437 22.7644C15.5364 22.7674 15.5287 22.77 15.5216 22.7732ZM13.1589 22.9843C13.3229 21.1244 19.1565 21.8366 19.8385 21.989C21.6998 22.5367 23.3075 24.0266 25.3886 23.3716C27.5449 20.967 34.8062 21.6566 36.3284 22.8815C36.6166 22.7685 36.9669 22.8291 37.3382 22.9358C39.2447 22.8669 47.948 23.5244 46.1678 25.9586C45.8976 26.1461 45.6276 25.9553 45.6202 25.569C36.34 22.2178 37.2396 25.3568 36.139 24.9902C35.9709 25.0386 35.7956 25.0692 35.6422 25.1014C34.7904 25.3756 34.5011 25.2909 34.3889 26.2475C33.618 33.6343 23.785 31.0848 24.5915 25.0258C23.793 24.9818 23.0945 24.6364 22.2501 24.9737C21.6639 30.6815 17.0725 30.9118 15.6907 28.9332C14.6487 27.5599 15.0619 25.4874 13.6297 24.407C13.0643 24.8804 13.0279 23.2829 13.1589 22.9843Z" fill="#0C0C0C"/>
</svg>
