<svg width="100" height="100" viewBox="0 0 100 100" fill="none" xmlns="http://www.w3.org/2000/svg">
<path fill-rule="evenodd" clip-rule="evenodd" d="M48.316 64.7575C50.7591 64.6369 54.5629 63.5891 54.7531 62.9195C55.0501 61.8739 54.4119 57.9538 55.4792 55.8423C55.9342 54.9422 57.6619 55.0229 58.3314 54.7297C60.5712 53.7489 67.2021 51.8888 68.5693 49.5465C69.1171 48.6082 72.4831 36.9647 74.2718 31.0246C74.4734 30.3549 74.7012 29.7355 74.9488 29.1619L75.0398 29.6076C75.769 33.1978 76.1337 35.3713 76.1337 36.1279C76.1337 37.3102 75.1909 42.2984 76.1337 43.5669C77.067 44.8228 79.3162 45.8496 80.3281 45.87L80.3584 45.8703C81.0228 45.8703 81.5993 46.0781 82.0879 46.4937L82.8043 46.8541C86.4488 48.6835 88.578 49.6871 89.1921 49.8646C90.1719 50.148 91.8395 49.5443 91.0057 48.6379C90.4498 48.0336 89.053 46.9647 86.8152 45.4311L85.9715 44.7604L86.0734 44.7071C87.1639 44.1328 87.8051 43.6495 87.997 43.257C88.1948 42.8524 88.0999 42.3739 87.7122 41.8214L87.771 41.7641C88.2612 41.2828 88.5063 40.96 88.5063 40.7957V39.9927C88.9939 39.2783 89.1159 38.6825 88.872 38.2053C88.6282 37.7281 88.2416 37.3146 87.7122 36.9647C87.3222 35.9382 86.8576 35.2076 86.3186 34.773C85.7796 34.3383 84.8481 33.9765 83.524 33.6875L82.3259 30.8215L81.355 26.7951L80.8658 22.3024L81.0079 22.1995C81.6662 21.7198 82.0879 21.3642 82.0879 20.9967C82.0879 20.4243 79.4315 6.9613 75.2986 6.35873C74.4048 6.22842 69.7693 6.86759 68.2473 8.1062L68.2698 7.97242C68.6279 5.80861 68.5521 4.68491 68.0425 4.60133C61.7792 3.57411 43.9911 3.25673 14.6782 3.64918C14.5038 19.2131 15.2924 29.5784 17.044 34.7451C21.5238 47.9593 26.463 52.4726 28.1909 52.8592C29.7046 53.1978 34.9532 55.2876 36.4204 55.8423C37.3782 56.2044 37.5834 57.2899 38.6748 57.2899L38.763 57.2894C39.8185 57.2788 40.7545 57.09 41.2803 57.633C42.6604 59.0581 42.2746 61.0307 42.8471 62.9195C43.1625 63.9602 45.3181 64.9055 48.316 64.7575Z" fill="white"/>
<path fill-rule="evenodd" clip-rule="evenodd" d="M41.6043 61.0259C41.7477 61.3102 42.1283 61.2733 42.3795 61.1444C43.1328 60.5935 42.3446 59.5256 42.1362 58.8533C41.6001 57.5493 40.6691 56.2748 39.3839 55.6654C39.4904 54.3691 39.6111 53.0756 39.6556 51.7753C41.2988 49.7362 44.0693 48.992 46.5287 48.4197C50.3913 47.3511 54.7507 49.5405 56.0544 53.3601C54.5707 54.2034 54.0905 56.4117 54.5332 57.9523C54.5717 58.0605 54.7394 58.1083 54.799 57.9875C55.2053 57.1515 55.1511 56.1316 55.613 55.3057C60.0465 54.8811 65.7683 53.2076 68.6728 49.6209C69.9599 47.8264 70.4698 45.4925 71.1038 43.4128C72.4564 39.1253 73.5342 34.7509 74.8608 30.459L75.0172 31.2711C75.4458 33.5081 75.8352 35.7755 75.5458 38.0505L75.5406 38.1594C75.446 39.9696 74.8797 43.3335 76.2831 44.5556C77.5524 45.526 79.3913 46.3058 80.9842 45.8585C83.8189 47.1204 86.2656 49.2454 89.2847 50.0731C90.2138 50.2644 91.5506 50.0378 91.3309 48.7769C90.7223 46.5714 88.1734 45.7154 86.4309 44.5781C87.5479 44.2753 88.9095 42.9165 88.0368 41.7316C88.0293 41.7107 88.0226 41.6947 88.0159 41.6821C88.7236 41.3684 88.8227 40.5798 88.649 39.9036C88.6314 39.7249 88.5844 39.8784 88.6894 39.7165C89.4879 38.9632 89.1349 36.8631 87.932 36.7921C88.0108 35.7971 87.3718 34.8306 86.5626 34.2878C85.6904 33.7031 84.4292 33.6779 83.7071 32.8776C82.0117 29.887 81.4268 26.3565 81.242 22.9318C82.3596 22.5133 83.3623 21.2619 82.347 20.2003C82.3269 20.1979 82.3069 20.1956 82.2866 20.1939C81.698 18.6225 81.4707 16.9474 81.1594 15.3063C80.6805 12.5061 79.4324 9.93499 77.8386 7.60228C75.9956 4.51444 71.0395 5.00395 68.5428 6.99674C68.5528 6.47392 68.6389 5.9542 68.4715 5.44901C68.2245 4.90379 67.6221 5.13935 67.5625 5.67627C66.2426 4.93373 65.9317 7.38474 67.3989 6.99598C67.2861 8.76788 67.2207 10.5423 67.1676 12.3172C65.5065 11.7794 65.4349 14.5363 67.1339 13.985L67.1319 14.7471C67.1194 20.5913 67.184 26.4554 67.9549 32.2534C68.0262 32.6872 68.147 33.1066 68.2174 33.5378C68.225 33.5824 68.2946 33.5697 68.2948 33.527C68.4142 25.4096 67.8838 17.2748 68.4371 9.15446C68.8978 9.01402 69.0814 8.48524 69.4225 8.17719C70.1796 7.47786 71.2108 7.13734 72.2191 7.01872C75.0427 6.62266 76.2617 7.48533 77.5191 9.94053C76.952 9.56139 76.1857 10.2309 76.5314 10.8309L76.5422 10.8491C76.9012 11.4849 77.915 11.1039 77.7866 10.3919C79.0508 12.417 79.7124 14.7007 80.2011 17.0177L80.2672 17.2945C80.5047 18.2782 80.813 19.4054 81.3834 20.2954C77.9047 21.1823 74.5019 23.8846 73.9575 27.592C73.0743 24.8161 71.8778 22.1026 70.7374 19.4028C70.3852 18.464 70.2384 17.4549 69.7336 16.584C69.6162 16.3826 69.3185 16.4347 69.2521 16.647C68.7981 18.6777 70.1739 20.6092 70.8882 22.4373C71.4715 23.4704 73.1459 28.1883 74.184 28.1997C73.0175 33.3144 71.4616 38.3909 69.9799 43.442C68.5471 50.2623 65.6274 51.5775 59.4421 53.7249C60.5577 48.0373 65.6514 42.5319 62.941 36.5664L62.875 36.4117C62.5978 35.7539 62.3675 35.0911 62.5611 34.3692C62.7489 33.6687 63.1766 33.0605 63.5188 32.4305C65.4315 28.8717 64.1149 24.7154 63.3753 21.0093C62.4411 16.6631 61.5183 12.3128 60.5526 7.97325C60.3623 7.10756 60.2389 6.2157 59.9514 5.37677C59.8029 4.94389 59.0624 4.98499 59.1103 5.49002C59.2016 6.46989 59.4767 7.42543 59.6781 8.38768C60.8805 14.6175 62.5075 20.774 63.542 27.0311C64.2074 31.663 61.5877 32.3748 61.6855 35.3675C62.0416 36.8982 62.9841 38.2641 62.93 39.8952C63.1395 44.8882 59.504 49.0074 59.0551 53.8634L58.2627 54.1462C57.8666 54.2881 57.4709 54.4311 57.0766 54.5774C59.1525 40.0535 58.5221 25.2123 57.4844 10.6167C57.2724 9.94321 57.4741 5.2386 56.5852 5.65614C56.5404 5.39322 56.4007 5.13474 56.0972 5.13608C53.3407 5.11083 50.5834 5.06721 47.8269 5.03432C46.501 5.15656 44.6786 4.65018 43.5508 5.41545C42.2487 5.78717 42.099 9.31486 41.7509 10.5722L41.6152 11.4867C39.4026 26.4287 37.4227 41.679 39.0131 56.7691C36.8003 56.684 36.3436 54.295 36.1795 52.5555C35.7692 48.7164 33.2896 45.4102 33.1707 41.5269C33.1607 40.5848 33.3384 39.6722 33.7149 38.8071C34.7137 36.6878 36.441 34.2378 35.15 31.8708C33.6231 30.0282 33.7553 29.5432 34.3156 27.2661C35.8919 19.7383 38.5097 12.5013 40.9999 5.24322C40.4588 2.42216 37.2044 12.895 36.8982 13.6847C35.4576 12.96 34.6706 15.3649 36.323 15.5362C35.2617 19.09 34.285 22.6705 33.4718 26.2904L33.4502 26.3924C33.091 28.0649 32.3845 30.0233 33.5776 31.5069C36.6541 34.6192 31.5451 38.098 32.1896 41.8684C31.6331 41.4556 30.7907 41.8899 30.8034 42.5831C30.7781 43.3637 31.8262 43.7635 32.3305 43.168C32.8491 46.227 34.6531 48.8974 35.199 51.9474L35.2237 52.0907C35.4087 53.1686 35.4609 54.3029 35.9901 55.2853C35.2697 54.8172 34.5024 54.4389 33.7133 54.105C35.1242 52.926 32.392 51.85 32.6181 53.6712C24.8805 51.4318 23.1316 48.3088 20.2907 41.1368C20.8214 41.6526 21.7304 40.9852 21.4127 40.3274C21.1593 39.6344 20.0538 39.837 20.0542 40.5756L19.9247 40.2667C18.202 36.146 16.6341 31.9252 15.8461 27.5152C17.3918 27.7335 16.9983 25.2623 15.5978 25.959C15.0358 22.037 15.0269 18.0595 15.0956 14.1059C16.3994 14.7898 16.4386 12.4658 15.1082 13.1285C15.1568 9.88852 15.2281 6.64858 15.2818 3.40865C15.2927 2.71905 14.2293 2.72241 14.2125 3.40865C14.0883 8.38692 13.862 13.3743 13.9696 18.354C13.8684 26.9972 16.3521 35.3277 20.0529 43.0701C23.3273 51.985 27.8504 52.9988 36.1721 55.5908C36.9402 56.7315 38.5814 57.8103 39.9203 57.0941C40.6695 58.3038 41.0499 59.737 41.6043 61.0259ZM27.3467 29.9556C27.3777 30.0655 27.5345 30.0379 27.5395 29.9296C27.6092 28.5311 27.5471 27.1235 27.4515 25.7191C27.3935 24.8617 27.3224 24.0052 27.262 23.1536C27.1018 20.907 26.9727 18.6578 26.8745 16.407C26.9089 16.4212 26.9441 16.4339 26.981 16.4439C27.1504 16.4901 27.3199 16.4901 27.4892 16.4439C27.6403 16.4017 27.7724 16.3279 27.8861 16.2214L27.9102 16.1981C28.0033 16.1118 28.0695 16.0093 28.1081 15.891C28.1631 15.7858 28.1909 15.6733 28.1908 15.553L28.1902 15.5227C28.1895 15.35 28.1467 15.1898 28.0595 15.0404C27.9748 14.8969 27.8607 14.7828 27.7173 14.6973C27.5681 14.6108 27.4078 14.568 27.2351 14.5673C27.2167 14.5655 27.1982 14.5639 27.1798 14.563C27.0514 14.558 26.9316 14.5848 26.8208 14.6427L26.8041 14.6477C26.7622 13.506 26.7278 12.3633 26.7026 11.2207C26.68 10.2249 26.6498 9.22912 26.6297 8.2334L26.6203 7.73523L26.6021 6.63436C26.5961 6.18159 26.599 5.74809 26.4452 5.32114L26.4267 5.2719C26.316 4.98676 26.2297 4.58986 25.9335 4.4313C25.6971 4.30471 25.3785 4.3516 25.2426 4.59833C25.1286 4.80462 25.2275 5.10169 25.3961 5.24095C25.3927 5.2501 25.3877 5.25848 25.3835 5.26771C25.3575 5.3433 25.318 5.41452 25.2946 5.49087C25.2207 5.73248 25.241 5.99002 25.2401 6.24095C25.2401 6.68382 25.2551 7.12677 25.2669 7.56897C25.2929 8.51025 25.3231 9.4506 25.3599 10.391C25.4846 13.5458 25.7193 16.7006 25.9881 19.8465L26.0793 20.9083C26.2009 22.3203 26.3267 23.7338 26.5047 25.1385C26.513 25.2056 26.5215 25.2727 26.5307 25.3399C26.4351 25.3877 26.3462 25.454 26.2757 25.5278C25.9932 25.8246 25.8218 26.2682 25.6611 26.6505L25.6242 26.7375C25.4498 27.1452 25.2888 27.558 25.2057 27.9959L25.1978 28.0362C25.1599 28.2227 25.0852 28.5532 25.2829 28.6436C25.386 28.6905 25.4514 28.657 25.485 28.5538C25.4893 28.5404 25.4857 28.5253 25.4783 28.5135C25.5596 28.3886 25.6871 28.2719 25.7676 28.1561L26.0431 27.762L26.1793 27.5639C26.3521 27.3097 26.5366 27.0664 26.7269 26.8264C26.877 27.8801 27.0607 28.9296 27.3467 29.9556ZM38.6459 6.4749C38.9906 6.74512 39.5516 6.59831 39.5516 6.0999C39.5516 5.59914 38.9898 5.45477 38.6459 5.72498L38.6288 5.73764L38.6124 5.75099C38.4252 5.89732 38.4189 6.27828 38.5982 6.43712L38.6124 6.44889C38.6232 6.45821 38.6342 6.46651 38.6459 6.4749ZM23.6314 7.44876L23.661 7.44815C23.817 7.44815 23.9621 7.40872 24.0971 7.32977C24.1558 7.28531 24.2136 7.24009 24.2723 7.19471C24.3797 7.08741 24.4535 6.95981 24.4946 6.813L24.5257 6.58321C24.5298 6.46408 24.5055 6.35335 24.451 6.25008C24.4157 6.14278 24.3562 6.04966 24.2723 5.97155C24.1935 5.88682 24.1013 5.82726 23.994 5.79294C23.8994 5.74296 23.7985 5.71758 23.6906 5.71757L23.661 5.7182C23.5043 5.7182 23.3591 5.75763 23.2241 5.83657C23.1654 5.88095 23.1075 5.92633 23.0488 5.97155C22.9423 6.07893 22.8677 6.20654 22.8267 6.35335C22.8165 6.42969 22.8066 6.50687 22.7956 6.58321C22.7915 6.70234 22.8165 6.813 22.8702 6.91627C22.9054 7.02365 22.965 7.11669 23.0488 7.19471C23.1277 7.27944 23.2199 7.33908 23.3272 7.37348C23.4218 7.42339 23.5234 7.4487 23.6314 7.44876ZM62.8873 9.0438L63.1071 9.01435C63.3175 8.96653 63.4869 8.81133 63.6001 8.63432C63.6605 8.53952 63.6931 8.43717 63.6982 8.32727C63.7226 8.21821 63.7175 8.10831 63.6831 7.99842C63.6579 7.89112 63.6085 7.79716 63.5355 7.71738C63.5104 7.67794 63.481 7.64187 63.4475 7.60999C63.3787 7.49506 63.2748 7.41964 63.1673 7.34238C63.0769 7.28449 62.9787 7.25345 62.873 7.24842C62.8034 7.22996 62.733 7.22996 62.6625 7.24842C62.5577 7.25345 62.4596 7.28449 62.369 7.34238C62.3154 7.38348 62.2617 7.42543 62.2088 7.46654C62.1619 7.52106 62.1183 7.57727 62.0772 7.636C62.0496 7.7006 62.0227 7.76444 61.9959 7.8282C61.9463 7.98172 61.9707 8.11754 61.9976 8.27106C62.0017 8.29707 62.0085 8.32056 62.0177 8.34581L62.0358 8.39454C62.0841 8.522 62.1099 8.56525 62.1954 8.67627L62.228 8.7199C62.2443 8.74164 62.2611 8.76289 62.2802 8.78197C62.3338 8.83734 62.4102 8.88356 62.4705 8.9313C62.5996 9.00597 62.7388 9.04288 62.8873 9.0438ZM34.4157 9.58097L34.4437 9.58064C34.5653 9.5798 34.6794 9.5496 34.785 9.48836L34.9225 9.38181C35.0064 9.29708 35.0643 9.19817 35.097 9.08307C35.1045 9.02284 35.113 8.96235 35.1213 8.90279C35.1246 8.80967 35.1054 8.7225 35.0626 8.64104C35.0358 8.55715 34.9888 8.48508 34.9225 8.42292C34.8614 8.35749 34.7884 8.3105 34.7045 8.28282C34.6313 8.24469 34.5526 8.22458 34.4689 8.22439L34.4437 8.22493C34.3213 8.22493 34.2072 8.25597 34.1016 8.3173L33.964 8.42292C33.8802 8.50765 33.8223 8.60749 33.7896 8.7225C33.782 8.78282 33.7737 8.84238 33.7653 8.90279C33.7619 8.99591 33.7812 9.08307 33.824 9.16369C33.8517 9.24759 33.8978 9.32057 33.964 9.38181C34.0252 9.44809 34.0982 9.49507 34.1821 9.52192C34.2553 9.56042 34.3326 9.5799 34.4157 9.58097ZM28.8813 9.85833C29.0565 9.86001 29.2344 9.81052 29.3778 9.70901C29.517 9.6101 29.6226 9.50347 29.6906 9.34324C29.709 9.29953 29.7274 9.25682 29.7434 9.2132C29.8155 9.02109 29.8289 8.82813 29.7291 8.64021C29.6327 8.45817 29.4247 8.37847 29.2385 8.32402C29.0809 8.27696 28.9023 8.26941 28.7455 8.32561C28.6675 8.3533 28.5912 8.38266 28.5207 8.42545C28.3891 8.50682 28.3178 8.60339 28.2297 8.72251C28.161 8.83988 28.1266 8.96748 28.1266 9.1033C28.1266 9.24013 28.161 9.36672 28.2297 9.48501C28.3647 9.71572 28.6146 9.85666 28.8813 9.85833ZM19.9921 9.69641C20.2136 9.69641 20.4081 9.59406 20.5415 9.42133C20.6764 9.24591 20.7259 9.02779 20.6664 8.81042C20.6035 8.58064 20.4132 8.3793 20.1775 8.32141C20.0031 8.27863 19.8605 8.2803 19.6869 8.30975C19.5401 8.33484 19.4278 8.42217 19.3154 8.51277C19.1871 8.61764 19.1477 8.80883 19.1686 8.96319C19.1888 9.11755 19.2601 9.21822 19.3683 9.30975L19.3691 9.31218L19.3288 9.28114C19.344 9.29457 19.359 9.30883 19.3742 9.32309C19.3791 9.33148 19.3833 9.34071 19.3875 9.34993C19.4496 9.45564 19.5334 9.53869 19.6383 9.60077C19.7481 9.66453 19.8655 9.69641 19.9921 9.69641ZM71.6154 12.2375C71.737 12.2702 71.8594 12.2702 71.981 12.2375C72.0708 12.2165 72.1487 12.1754 72.2151 12.1143C72.2822 12.0705 72.3371 12.0144 72.3786 11.9449L72.3919 11.9212C72.4876 11.7585 72.5026 11.5723 72.4615 11.3911C72.4104 11.1671 72.2042 10.9632 71.981 10.9104L71.9735 10.909L71.966 10.907C71.8754 10.8784 71.7839 10.8742 71.6935 10.8952C71.602 10.8994 71.5173 10.9263 71.4394 10.9766C71.3404 11.0403 71.2574 11.1226 71.1936 11.2216C71.1432 11.3004 71.1165 11.3851 71.1122 11.4767C71.0964 11.537 71.0964 11.5974 71.1122 11.6578C71.1165 11.7493 71.1432 11.8341 71.1936 11.9128L71.3009 12.0513L71.3119 12.0605C71.3974 12.1461 71.4988 12.2049 71.6154 12.2375ZM63.1724 16.6771C64.2718 16.6771 64.2701 14.9707 63.1724 14.9707C62.0731 14.9707 62.0747 16.6771 63.1724 16.6771ZM22.9213 16.8927C23.0371 16.9187 23.1529 16.9137 23.2677 16.8776C23.3373 16.8483 23.4061 16.8189 23.4749 16.7905L23.651 16.6544C23.6837 16.6268 23.6996 16.5966 23.7298 16.5571L23.7675 16.5078C23.8221 16.4347 23.8234 16.4193 23.8833 16.2635C23.9235 16.1142 23.9235 15.965 23.8833 15.8155C23.8639 15.7434 23.8346 15.6754 23.7969 15.6125C23.7624 15.5521 23.7211 15.4991 23.6746 15.4503L23.651 15.4263C23.5721 15.3415 23.4791 15.282 23.3717 15.2467C23.3038 15.2072 23.2308 15.188 23.1529 15.188C23.0371 15.162 22.9213 15.167 22.8065 15.2032C22.7369 15.2325 22.6681 15.2618 22.5993 15.2904L22.4233 15.4263L22.2874 15.6025L22.2441 15.7058L22.2002 15.8097L22.1692 16.0404C22.165 16.1603 22.1893 16.2711 22.2437 16.3751C22.2647 16.4482 22.3017 16.5127 22.3553 16.5665C22.3939 16.6318 22.4458 16.6838 22.5113 16.7224C22.5649 16.7762 22.6296 16.813 22.7025 16.834C22.7704 16.8734 22.8434 16.8927 22.9213 16.8927ZM77.2977 18.1117C77.3892 18.115 77.4747 18.0958 77.5535 18.0538C77.5812 18.0445 77.6081 18.0329 77.634 18.0194C77.7355 17.9599 77.816 17.8793 77.8756 17.7786C77.9242 17.7014 77.951 17.6184 77.9552 17.5287C77.9734 17.4478 77.9718 17.3663 77.9498 17.2853L77.9426 17.261C77.9242 17.1947 77.8965 17.1335 77.8597 17.0773C77.8562 17.0706 77.8521 17.0639 77.847 17.058C77.7909 16.969 77.7162 16.8961 77.624 16.8415C77.5217 16.7829 77.4118 16.7527 77.2927 16.7517C77.0554 16.7517 76.8508 16.8801 76.7258 17.0773C76.7082 17.105 76.6982 17.1402 76.6857 17.1688C76.6747 17.1956 76.6571 17.2299 76.6478 17.261C76.616 17.3801 76.616 17.4992 76.6478 17.6184C76.6687 17.7057 76.7082 17.7819 76.7678 17.8466C76.8155 17.9195 76.8784 17.9774 76.9565 18.0194C77.0532 18.0759 77.1572 18.106 77.2675 18.111L77.2977 18.1117ZM30.8796 18.9464C30.9957 18.9781 31.1112 18.9806 31.2266 18.9537L31.2554 18.9464C31.3476 18.9246 31.4273 18.8826 31.496 18.8206C31.5723 18.7702 31.6336 18.7039 31.678 18.6218C31.7418 18.5118 31.7737 18.3927 31.7744 18.2653C31.7737 18.1377 31.7418 18.0185 31.678 17.9087C31.6151 17.8021 31.5304 17.7182 31.424 17.6553L31.3317 17.6108C31.2546 17.5622 31.1724 17.5362 31.0834 17.532C31.024 17.516 30.9643 17.516 30.9057 17.532C30.8453 17.532 30.7891 17.5471 30.7372 17.5773C30.6801 17.5932 30.6314 17.6218 30.5895 17.6638C30.5165 17.7107 30.4596 17.7727 30.4177 17.8508L30.3496 18.0111L30.3262 18.1889L30.3496 18.3659L30.3866 18.4531C30.4201 18.5732 30.4805 18.6771 30.5685 18.7652C30.6566 18.8525 30.7606 18.9129 30.8796 18.9464ZM72.4675 20.3616C72.5898 20.4002 72.7115 20.4054 72.8331 20.3784C72.9152 20.3784 72.9923 20.3574 73.0637 20.3155C73.1417 20.2938 73.2087 20.2552 73.2658 20.1981C73.3655 20.1335 73.4436 20.048 73.5014 19.9414L73.5936 19.7224C73.649 19.5807 73.6288 19.3717 73.5954 19.2291C73.5677 19.1117 73.514 19.0093 73.4344 18.9221C73.3941 18.8542 73.3404 18.8004 73.2724 18.7601C73.1948 18.6895 73.1052 18.6392 73.0037 18.6093L72.9756 18.6017L72.9656 18.5991C72.9638 18.5983 72.9622 18.5983 72.9605 18.5983C72.9597 18.5974 72.958 18.5974 72.9571 18.5974C72.9169 18.5874 72.8759 18.5815 72.8331 18.5798C72.7115 18.553 72.5898 18.558 72.4675 18.5965C72.3953 18.6268 72.3224 18.6579 72.2494 18.6888C72.1874 18.7358 72.1261 18.7837 72.0641 18.8315C72.0163 18.8935 71.9685 18.9557 71.9207 19.0168C71.8535 19.1217 71.8175 19.2358 71.8125 19.3575C71.7906 19.4388 71.7906 19.5194 71.8125 19.6008C71.8125 19.6838 71.8335 19.7601 71.8745 19.8315C71.9115 19.9455 71.9744 20.0437 72.0641 20.1267C72.1261 20.1746 72.1874 20.2225 72.2494 20.2694C72.3224 20.3005 72.3953 20.3314 72.4675 20.3616ZM18.9817 23.365C19.1082 23.3994 19.2349 23.3994 19.3616 23.365L19.5317 23.2937C19.6156 23.2484 19.6819 23.1873 19.7322 23.1092C19.796 23.0405 19.8386 22.959 19.8604 22.8659C19.91 22.7384 19.9041 22.5362 19.8647 22.4061C19.8203 22.2585 19.7515 22.141 19.645 22.0303C19.4681 21.8474 19.1963 21.7946 18.9557 21.8499C18.8893 21.865 18.8264 21.8944 18.7694 21.9305C18.5875 22.0429 18.4651 22.2392 18.4659 22.4565C18.4659 22.48 18.4676 22.5035 18.471 22.5269C18.4592 22.5748 18.4549 22.6243 18.4567 22.6764L18.4819 22.8659L18.4835 22.8709C18.5171 22.991 18.5775 23.0949 18.6654 23.183C18.7468 23.2635 18.8417 23.3219 18.9501 23.3568L18.9775 23.365H18.9817ZM82.2614 42.203C82.0323 44.082 81.171 46.1034 78.5439 45.0001L78.3488 44.927C77.6987 44.6808 76.9412 44.3573 76.5456 43.7887C76.2731 43.3969 76.3652 42.6377 76.3276 42.1805C76.1563 40.6939 76.2482 39.2094 76.4266 37.7291C76.657 34.2594 75.9277 30.6644 74.4759 27.511C75.9289 25.1591 77.8735 22.9654 80.5263 21.9851C80.6385 24.6592 81.1618 27.2842 81.7188 29.8936L81.7408 30.0073C81.9635 31.1839 82.075 32.3916 82.8475 33.3701C84.4189 35.0768 86.5801 34.1108 87.6142 36.8524C87.397 36.9623 87.5169 37.3382 87.7786 37.2659C88.6856 37.105 88.8329 38.7869 88.2122 39.1922C87.5654 39.5868 88.2166 40.3146 87.9412 40.8399C87.7878 41.0664 87.4565 41.0739 87.3063 41.3349C86.9083 42.2954 88.9002 42.9109 86.5578 43.9937C86.0784 44.1643 85.5425 44.0585 85.059 44.0604C84.3477 43.994 83.7824 43.4926 83.1319 43.3349C83.8402 41.5003 82.053 39.7336 80.44 41.1989C79.5622 40.369 78.5806 38.4771 80.7143 39.3591C81.7586 40.0563 82.6577 40.9576 83.8699 41.3869L83.8956 41.3949C84.3456 41.5424 86.3148 42.4995 86.2172 41.6712C85.4795 40.959 84.263 40.9674 83.4087 40.3893C82.2243 39.8414 81.467 38.5137 80.0492 38.5321C79.7223 36.5466 81.9745 37.7546 82.8132 38.3022L83.0458 38.4284C84.2287 39.0677 85.4295 39.66 86.8091 39.6679C87.1899 39.6704 87.1882 39.0831 86.8091 39.0781C85.0112 39.0669 83.5478 37.9426 82.0417 37.1067C81.8934 35.9477 83.59 36.4551 84.2338 36.6261C84.9088 36.721 85.9928 37.4514 86.5836 37.0655C86.8147 36.4717 85.7979 36.5159 85.4439 36.3357C87.06 35.5592 85.6441 35.0701 85.2108 36.2635L85.0838 36.2203C84.0016 35.8564 81.3775 35.1075 81.6896 36.9414C81.2935 36.766 80.8106 36.6612 80.3729 36.7585C79.2815 35.1435 77.5404 35.7685 80.071 36.8692C79.5008 37.1346 79.3103 38.1591 79.8581 38.5404C77.8662 38.662 79.345 40.7527 80.1694 41.4494C80.0916 41.5281 80.0162 41.6084 79.946 41.6897C79.4706 41.4632 78.9708 41.3256 78.4365 41.2769C77.925 41.2309 77.8111 42.1016 78.3158 42.1729C78.8567 42.2493 79.3549 42.3935 79.8312 42.6654C80.553 42.9773 80.7994 41.6373 81.5219 41.5899C81.9159 41.5118 82.1825 41.8575 82.2614 42.203ZM65.4912 24.9137C65.6656 24.9137 65.8207 24.8406 65.9473 24.725C66.0739 24.6092 66.1284 24.4354 66.136 24.2694C66.1393 24.1805 66.1209 24.0974 66.0806 24.0203C66.0546 23.9406 66.0102 23.8718 65.9473 23.813C65.8299 23.6964 65.6563 23.6242 65.4912 23.6242C65.3168 23.6242 65.1616 23.6973 65.0349 23.813C64.9084 23.9297 64.8538 24.1025 64.8462 24.2694C64.8429 24.3575 64.8614 24.4406 64.9016 24.5177C64.925 24.5895 64.9633 24.653 65.0166 24.7072L65.0349 24.725C65.1524 24.8424 65.3259 24.9137 65.4912 24.9137ZM70.7765 28.8924L70.8045 28.8919C70.9521 28.891 71.0888 28.8542 71.2162 28.7804C71.2716 28.7376 71.3269 28.6956 71.3815 28.6528C71.4829 28.5505 71.5525 28.4305 71.5912 28.292C71.6306 28.1477 71.6306 28.0026 71.5912 27.8584C71.5777 27.7752 71.5467 27.6947 71.4981 27.6251C71.4259 27.5052 71.3304 27.4086 71.2095 27.3374C71.0846 27.2643 70.9495 27.2283 70.8045 27.2275C70.6595 27.2283 70.5244 27.2643 70.3994 27.3374C70.2787 27.4086 70.1831 27.5052 70.1118 27.6251C70.0623 27.6947 70.0313 27.7752 70.0179 27.8584C69.9784 28.0026 69.9784 28.1477 70.0179 28.292C70.0537 28.4206 70.1163 28.5333 70.2063 28.6306L70.2275 28.6528C70.3013 28.7325 70.3885 28.7887 70.49 28.8215C70.5792 28.8683 70.6747 28.892 70.7765 28.8924ZM30.4402 28.8475C30.5023 28.8643 30.5635 28.8643 30.6256 28.8475C30.7178 28.8433 30.8041 28.8156 30.8839 28.7652C30.9308 28.7284 30.9778 28.6922 31.0248 28.6561L31.0657 28.607C31.1532 28.5003 31.1554 28.4821 31.2226 28.3197C31.2504 28.2291 31.2545 28.1385 31.2344 28.0479C31.2344 27.9867 31.2185 27.9296 31.1882 27.8768C31.1715 27.8189 31.143 27.7685 31.1002 27.7266C31.07 27.6755 31.0298 27.6344 30.9786 27.6041C30.9132 27.5445 30.8361 27.5034 30.7472 27.4825L30.5668 27.4582C30.5434 27.4615 30.5191 27.4648 30.4956 27.4674C30.4673 27.4682 30.4398 27.4714 30.4129 27.4766L30.3857 27.4826L30.3609 27.4892C30.328 27.4988 30.2961 27.5115 30.265 27.5278C30.2063 27.5445 30.1551 27.5739 30.1115 27.6175C30.0361 27.6662 29.9757 27.7317 29.9321 27.813L29.9203 27.8398C29.9044 27.8685 29.891 27.8977 29.8808 27.9296C29.8524 27.9799 29.8382 28.0336 29.8373 28.0915C29.8206 28.1685 29.8218 28.2449 29.8417 28.3212L29.8491 28.3466L29.9136 28.5002C29.9472 28.5521 29.9824 28.605 30.0276 28.6478C30.0548 28.672 30.1214 28.7239 30.1589 28.75L30.1819 28.7652C30.2616 28.8156 30.348 28.8433 30.4402 28.8475ZM20.3301 30.0471C20.4509 30.5228 21.0748 30.6729 21.4144 30.3332C21.754 29.9933 21.604 29.3692 21.1285 29.2484L21.074 29.235C20.6144 29.1184 20.2001 29.5337 20.3167 29.9933L20.3301 30.0471ZM77.889 33.9271C77.8856 33.9741 77.946 33.9908 77.9762 33.9631C78.3804 33.6007 78.6378 33.1662 79.1284 32.8852C79.6216 32.6032 80.1297 32.626 80.6437 32.4439C80.8182 32.3818 80.819 32.1485 80.6437 32.0874C79.671 31.7475 77.9628 32.8995 77.889 33.9271ZM32.1812 34.0009C32.2894 34.0345 32.3984 34.0395 32.5066 34.0152C32.5804 34.0152 32.6491 33.9967 32.712 33.9599C32.7816 33.9405 32.8412 33.9053 32.8923 33.855C32.9536 33.8189 33.0022 33.7694 33.039 33.7082C33.1112 33.6293 33.1599 33.537 33.185 33.4313L33.2135 33.214L33.185 32.9967C33.1573 32.9322 33.1296 32.8667 33.1028 32.8021L33.0278 32.7005C32.9671 32.6195 32.9574 32.6187 32.8101 32.5093C32.7163 32.4498 32.6148 32.417 32.5066 32.4128C32.4344 32.3927 32.3623 32.3927 32.2894 32.4128C32.2165 32.4128 32.1476 32.4313 32.084 32.4682C32.0151 32.4875 31.9548 32.5227 31.9036 32.5731C31.8148 32.631 31.7452 32.7073 31.6939 32.8021C31.6663 32.8667 31.6387 32.9322 31.6118 32.9967L31.5824 33.214L31.6118 33.4313L31.6134 33.438C31.652 33.5739 31.7208 33.6922 31.8197 33.7921L31.9825 33.918C32.0461 33.959 32.1124 33.98 32.1812 34.0009ZM71.3278 33.8382C71.56 33.902 71.815 33.8349 71.9852 33.6645C72.1555 33.4942 72.2226 33.2401 72.1589 33.0076C72.096 32.7811 71.914 32.5975 71.6867 32.5361C71.6188 32.5178 71.55 32.5076 71.4804 32.511C71.3638 32.5118 71.2548 32.5413 71.1534 32.5999L71.0226 32.7015C70.9587 32.7601 70.9144 32.8298 70.8883 32.9103C70.8472 32.9875 70.8288 33.0705 70.8321 33.1603L70.8314 33.1763C70.8288 33.2081 70.8329 33.2401 70.8431 33.271C70.8431 33.3039 70.8481 33.3357 70.8565 33.3668C70.9177 33.5932 71.1022 33.7762 71.3278 33.8382ZM21.2501 36.1099C21.3247 36.1125 21.3943 36.0974 21.4589 36.063C21.5268 36.0412 21.5847 36.0043 21.6333 35.9506C21.687 35.902 21.7239 35.8432 21.7457 35.7761C21.7801 35.7114 21.7952 35.6418 21.7926 35.5672C21.7926 35.4691 21.7675 35.3776 21.7188 35.2937C21.6903 35.2567 21.6618 35.2199 21.6333 35.1838C21.5662 35.1159 21.4865 35.0697 21.3943 35.0437L21.3406 35.0253C21.2618 34.9968 21.1847 34.9951 21.1025 35.0059C21.0161 35.0177 20.9363 35.0412 20.866 35.0949C20.7971 35.1352 20.7427 35.1897 20.7025 35.2585L20.6563 35.3676C20.6463 35.4044 20.6421 35.4598 20.6396 35.4984C20.6396 35.5043 20.6396 35.5093 20.6387 35.5152C20.6387 35.5479 20.6488 35.6276 20.6571 35.6604C20.6756 35.7291 20.7133 35.7946 20.7561 35.85C20.793 35.9078 20.8433 35.9531 20.9054 35.9867L20.9109 35.9909L20.9171 35.9951C20.9363 36.0085 20.9566 36.0219 20.9767 36.0363C21.0605 36.0849 21.1519 36.1099 21.2501 36.1099ZM64.5545 36.7057C64.6886 36.7057 64.8136 36.6713 64.9293 36.6041C64.9334 36.6026 64.9376 36.6008 64.941 36.599C65.0518 36.5337 65.1397 36.4455 65.2052 36.3348C65.2723 36.2199 65.3058 36.0957 65.3058 35.9631C65.3058 35.8298 65.2723 35.7065 65.2052 35.5916C65.1397 35.4807 65.0518 35.3927 64.941 35.3272C64.9376 35.3248 64.9334 35.3232 64.9293 35.3214C64.8136 35.2543 64.6886 35.2208 64.5545 35.2199C64.4211 35.2208 64.2962 35.2543 64.1804 35.3214C63.954 35.454 63.8122 35.7015 63.8122 35.9631C63.8122 36.225 63.954 36.4724 64.1804 36.6041C64.2962 36.6713 64.4211 36.7057 64.5545 36.7057ZM29.729 37.6757L29.7518 37.6762C29.8407 37.6797 29.9236 37.6612 29.9999 37.62C30.0796 37.5941 30.1492 37.5495 30.208 37.4866L30.3304 37.3844L30.366 37.3556C30.3718 37.3507 30.3776 37.3457 30.3832 37.3406C30.4655 37.2577 30.5216 37.1604 30.5535 37.0479C30.5636 36.9833 30.5719 36.9196 30.5787 36.855C30.597 36.6872 30.4982 36.5151 30.3891 36.396C30.3304 36.3331 30.2607 36.2887 30.1803 36.2619C30.1032 36.2215 30.0193 36.2031 29.9303 36.2065C29.7484 36.2224 29.5757 36.261 29.4449 36.402C29.4297 36.4187 29.4154 36.4364 29.4004 36.454L29.2956 36.5748C29.2159 36.6552 29.1605 36.7501 29.1304 36.8592C29.1219 36.9171 29.1145 36.9741 29.1069 37.0312C29.0993 37.2031 29.1831 37.3642 29.2956 37.4866C29.3994 37.6001 29.5755 37.6694 29.729 37.6757ZM25.4959 39.4422C26.368 39.4422 26.3663 38.089 25.4959 38.089C24.6245 38.089 24.6262 39.4422 25.4959 39.4422ZM69.3446 41.3395L69.3721 41.339C69.5164 41.3382 69.6514 41.3021 69.7764 41.2291L69.939 41.1041C70.038 41.0034 70.1067 40.886 70.1454 40.7501C70.1545 40.6789 70.1638 40.6075 70.1739 40.537C70.1781 40.4263 70.1545 40.3231 70.1043 40.2274C70.0724 40.1284 70.0171 40.0421 69.939 39.9691C69.8661 39.891 69.7805 39.8357 69.6808 39.8038C69.5852 39.7534 69.4821 39.73 69.3721 39.7342C69.2271 39.7351 69.092 39.7711 68.9671 39.8441C68.9126 39.886 68.859 39.9279 68.8045 39.9691C68.7131 40.062 68.6475 40.1692 68.6083 40.292L68.599 40.3231L68.5697 40.537C68.5655 40.6469 68.5889 40.7501 68.6392 40.8457C68.6711 40.9456 68.7265 41.0311 68.8045 41.1041C68.8774 41.1822 68.9638 41.2376 69.0628 41.2694C69.1503 41.3155 69.2444 41.3392 69.3446 41.3395ZM65.4165 43.8726C65.4945 43.8752 65.5666 43.8592 65.6346 43.8239C65.7041 43.8013 65.7645 43.7619 65.8156 43.7074C65.9239 43.6209 65.9901 43.4481 65.9901 43.308C65.9901 43.1679 65.9239 42.995 65.8156 42.9087C65.7452 42.8391 65.6622 42.7904 65.5666 42.7636L65.4165 42.7434C65.2706 42.7366 65.1221 42.813 65.0181 42.9087C64.9972 42.9279 64.9771 42.9472 64.9561 42.9658C64.8614 43.053 64.8203 43.183 64.8144 43.308C64.8118 43.3742 64.8262 43.4363 64.8563 43.4942C64.8757 43.5546 64.9091 43.6059 64.9561 43.6503C64.9771 43.6688 64.9972 43.688 65.0181 43.7074C65.1314 43.8122 65.2638 43.865 65.4165 43.8726ZM90.3044 48.3852C90.8555 49.0566 90.5346 49.5346 89.7065 49.3685C88.28 49.1754 86.9375 48.2736 85.6812 47.6269C84.31 46.9024 82.8969 46.3048 81.4982 45.624C82.0753 45.2696 82.5045 44.7147 82.8324 44.0815C83.4869 44.5787 84.3236 44.8165 85.1403 44.8474C86.622 46.267 89.0759 46.5921 90.3044 48.3852ZM25.2025 46.1561C25.3519 46.1554 25.4919 46.1202 25.623 46.0501L25.651 46.0345L25.8305 45.8952C25.9177 45.8147 25.9789 45.7192 26.015 45.6092C26.0703 45.5035 26.0955 45.3885 26.0913 45.266C26.0955 45.1436 26.0703 45.0295 26.015 44.9238C25.9789 44.813 25.9177 44.7182 25.8305 44.6377C25.781 44.5731 25.7173 44.5228 25.641 44.4858C25.5696 44.4565 25.4992 44.4263 25.428 44.3961C25.3483 44.3709 25.256 44.3676 25.1697 44.3634C25.0129 44.3642 24.867 44.4036 24.731 44.4825L24.555 44.6183C24.4703 44.6973 24.4098 44.7904 24.3746 44.8986C24.3247 44.9939 24.2994 45.0956 24.2994 45.2043L24.3 45.2342C24.3 45.2408 24.3 45.2484 24.301 45.256C24.3109 45.3348 24.3219 45.4137 24.3327 45.4925C24.3604 45.6083 24.4133 45.7098 24.4921 45.7954C24.5122 45.8357 24.539 45.8684 24.5735 45.8952C24.6841 46.006 24.8149 46.0815 24.9659 46.1244C25.0447 46.1343 25.1235 46.1453 25.2025 46.1561ZM64.1129 48.3788L64.1384 48.3785C64.2517 48.3785 64.3565 48.3499 64.4538 48.2937C64.4965 48.2609 64.5385 48.2283 64.5804 48.1956C64.6585 48.1176 64.7121 48.0253 64.7414 47.9196L64.7641 47.7535C64.7666 47.6671 64.7489 47.5874 64.7095 47.5126C64.6845 47.4355 64.6416 47.3684 64.5804 47.3113C64.5242 47.2502 64.4572 47.2073 64.3792 47.1822C64.3053 47.1427 64.2248 47.1251 64.1384 47.1284C64.0261 47.1284 63.9204 47.157 63.8231 47.214C63.7812 47.2459 63.7384 47.2786 63.6965 47.3113C63.6258 47.3829 63.5748 47.4664 63.5442 47.5612L63.5363 47.5874L63.5138 47.7535C63.5104 47.8399 63.528 47.9196 63.5674 47.9942C63.5925 48.0722 63.6362 48.1394 63.6965 48.1956C63.7535 48.2569 63.8207 48.2996 63.8978 48.3248C63.9649 48.3603 64.0369 48.3781 64.1129 48.3788ZM30.1041 49.2875L30.1333 49.287C30.3002 49.2862 30.4553 49.2443 30.5996 49.1604C30.6616 49.1125 30.7238 49.0646 30.7857 49.016C30.9006 48.9011 30.9795 48.7652 31.024 48.6084L31.0566 48.3634C31.0616 48.2359 31.0348 48.1176 30.9769 48.0077C30.9401 47.8927 30.8763 47.7938 30.7857 47.7099C30.7028 47.62 30.6038 47.5563 30.4889 47.5193C30.379 47.4615 30.2608 47.4346 30.1333 47.4397C29.9664 47.4397 29.8113 47.4817 29.6671 47.5656C29.6051 47.6134 29.543 47.662 29.4801 47.7099C29.366 47.8256 29.2872 47.9615 29.2427 48.1176L29.21 48.3634C29.205 48.4901 29.2318 48.6091 29.2897 48.7191C29.3266 48.8331 29.3903 48.933 29.4801 49.016C29.564 49.1066 29.6629 49.1704 29.7777 49.2073C29.8792 49.2608 29.9877 49.2871 30.1041 49.2875ZM61.1556 51.594C61.2319 51.6142 61.3082 51.6142 61.3845 51.594C61.4985 51.5891 61.6051 51.5547 61.7041 51.4918L61.8777 51.3574C61.8801 51.355 61.8827 51.3524 61.8852 51.3491C61.99 51.2434 62.0629 51.1184 62.1032 50.9749L62.1334 50.7492C62.1376 50.6326 62.1133 50.5236 62.0605 50.4229C62.029 50.3261 61.9769 50.2419 61.9052 50.1691L61.8777 50.1419C61.7996 50.058 61.7082 49.9985 61.6017 49.9641C61.5347 49.9246 61.4616 49.9053 61.3845 49.9053C61.2705 49.8793 61.1556 49.8843 61.0415 49.9205C60.9736 49.9498 60.9048 49.9783 60.8361 50.0068L60.8142 50.0194C60.5551 50.1611 60.3949 50.4581 60.3949 50.7492C60.3949 51.0404 60.5551 51.3382 60.8142 51.48C60.8219 51.4833 60.8285 51.4876 60.8361 51.4918C60.9351 51.5547 61.0415 51.5891 61.1556 51.594Z" fill="#0C0C0C"/>
<path fill-rule="evenodd" clip-rule="evenodd" d="M62.5856 81.1896C61.8267 84.3904 60.1673 87.3691 57.5107 89.7764C49.5165 97.6829 34.8358 93.3914 34.9023 81.4768C34.6156 80.0852 34.4992 78.6543 34.5941 77.2351C34.6334 76.6296 34.8953 75.7845 34.5434 75.2396C33.7495 74.22 33.2881 73.4685 33.5583 72.1123C33.784 70.9282 34.5896 70.0892 35.6767 69.6433C36.3288 69.4561 36.9474 69.0484 37.1889 68.4269C38.6402 65.7688 39.7154 63.5579 42.0033 61.7464C42.5937 61.2801 48.6488 58.4829 50.644 58.4829C56.4849 58.4829 63.8466 60.5995 63.9688 67.1264C63.9899 68.56 63.7384 70.0102 63.5807 71.4324C63.1967 74.6781 63.3322 78.0413 62.5856 81.1896Z" fill="white"/>
<path fill-rule="evenodd" clip-rule="evenodd" d="M62.4542 82.7906C62.456 82.8302 62.5127 82.839 62.5237 82.8C62.7408 82.0294 62.8638 81.2444 63.0337 80.4619C63.1972 79.7081 63.3516 78.9521 63.48 78.1917C63.7225 76.7566 63.9268 75.3178 64.1168 73.8752L64.164 73.5145C64.4942 70.9761 65.0397 68.3317 64.5628 65.7786C64.1558 63.6 62.7913 61.8441 61.0328 60.5568C59.3678 59.3379 57.3491 58.5557 55.3446 58.1109C53.1933 57.6335 50.6433 57.4911 48.8929 59.0692C48.1921 59.7012 49.1474 60.9551 49.9076 60.3848C51.6926 59.0459 53.9634 59.4406 55.9776 59.9734L56.0386 59.9896C57.8064 60.4606 59.586 61.1746 60.9895 62.3791C62.5411 63.7109 63.3084 65.5593 63.397 67.5864C63.4468 68.7254 63.3406 69.863 63.2261 70.9952L63.2134 71.121C63.082 72.4158 62.9441 73.71 62.8169 75.0053C62.7008 76.1865 62.6007 77.3745 62.5477 78.5609L62.523 79.1593C62.4716 80.3658 62.4024 81.5899 62.4542 82.7906ZM41.5192 92.815C44.424 94.3279 47.7622 94.8693 50.9949 94.3616C54.1025 93.8735 56.9546 92.2693 59.0864 89.9691C60.1272 88.846 61.051 87.5469 61.6414 86.1277C61.9346 85.4227 62.1642 84.6872 62.2865 83.9318C62.3494 83.5435 62.4112 83.1411 62.423 82.7474C62.4339 82.3829 62.3269 82.0411 62.3396 81.6705C62.3415 81.6125 62.2527 81.6014 62.2392 81.6569C62.1382 82.0701 61.895 82.3825 61.7423 82.7749C61.6283 83.068 61.4989 83.3541 61.3671 83.6393L61.2539 83.8837C60.9254 84.594 60.5327 85.2751 60.1441 85.9538C59.3618 87.3207 58.358 88.563 57.1826 89.6113C55.1189 91.4517 52.4714 92.6397 49.7081 92.8536C46.84 93.0758 43.9309 92.3919 41.4816 90.877C39.0324 89.3621 37.1804 87.0072 36.2189 84.2959C35.7337 82.9277 35.4658 81.5021 35.4035 80.0526C35.372 79.3189 35.4014 78.5791 35.4528 77.8468L35.4783 77.4975C35.5083 77.0788 35.5288 76.6616 35.4662 76.253C35.908 76.3908 36.3711 76.4479 36.8358 76.3797C37.5264 76.2784 37.939 75.9952 38.2488 75.3779C38.265 75.3457 38.2325 75.3135 38.2004 75.3295C37.7988 75.53 37.149 75.4244 36.7237 75.3193C36.2811 75.2099 35.8824 75.0197 35.5063 74.7624C34.8105 74.2869 34.2651 73.5499 34.1313 72.7043C34.0019 71.8875 34.337 71.0605 34.9001 70.4751C35.1899 70.1736 35.5363 69.9129 35.9242 69.7505C36.3949 69.5533 36.8608 69.5594 37.2773 69.2338C37.5347 69.0326 37.4725 68.6882 37.2979 68.4647C38.1765 67.501 38.9556 66.4466 39.8341 65.4791C40.2414 65.0306 40.6453 64.5816 41.0355 64.1187L41.1812 63.9444C41.5708 63.474 42.1907 62.9771 42.3687 62.3855C42.4795 62.0175 42.0855 61.5361 41.6873 61.7038C41.0764 61.9611 40.6403 62.6306 40.2275 63.1441L40.2006 63.1774C39.7677 63.7095 39.3834 64.2713 39.032 64.8599L38.9165 65.0539C38.2811 66.1228 37.6512 67.2315 37.2461 68.4059C37.2193 68.3784 37.191 68.3533 37.1611 68.3321C36.5774 67.9169 35.7289 68.2361 35.146 68.5057C34.5957 68.7602 34.0912 69.1431 33.698 69.6046C32.8428 70.6081 32.4486 71.9077 32.7342 73.2102C32.9762 74.3135 33.7405 75.3866 34.7427 75.9447C34.2801 76.4774 34.0886 77.1955 33.9611 77.8976C33.7984 78.7938 33.766 79.7123 33.8102 80.6211C33.8983 82.4312 34.364 84.2155 35.0838 85.8731C36.3717 88.839 38.6487 91.3198 41.5192 92.815ZM35.4057 73.0239C36.0154 73.1381 36.5835 73.1657 37.1716 72.9077C37.8094 72.6275 38.2583 72.1651 38.6756 71.6234C39.1504 71.0071 37.9335 70.3339 37.6267 71.152L37.6177 71.1772C37.5355 71.4194 37.3883 71.6536 37.2019 71.8691C37.146 71.7833 37.0712 71.7078 36.9833 71.6646C36.8769 71.6123 36.7144 71.6485 36.6888 71.7845C36.6604 71.9354 36.6918 72.1183 36.7788 72.2461L36.7908 72.2635C36.3678 72.6041 35.859 72.8528 35.4057 72.9328C35.3604 72.9409 35.3609 73.0155 35.4057 73.0239Z" fill="#0C0C0C"/>
<path fill-rule="evenodd" clip-rule="evenodd" d="M54.4949 64.184C53.9311 64.4141 53.4282 64.7979 53.0604 65.2881C52.9326 65.4585 52.8994 65.6385 52.9262 65.8031C52.9564 65.9882 53.0659 66.1559 53.2151 66.2684C53.3649 66.3813 53.5522 66.437 53.7332 66.4086C53.8906 66.3839 54.0472 66.2977 54.1712 66.119L54.1971 66.0833C54.4157 65.7874 54.7006 65.5446 55.0252 65.3881C55.3381 65.2373 55.688 65.1669 56.0501 65.2078C56.7397 65.2858 57.2151 65.6589 57.7203 66.1656C57.7829 66.2295 57.8456 66.2955 57.9086 66.3626C57.9483 66.4233 58.0035 66.4624 58.0648 66.4829C58.1328 66.5056 58.2098 66.5043 58.2803 66.4797C58.3483 66.456 58.409 66.411 58.4498 66.3512C58.4885 66.2943 58.5105 66.224 58.5034 66.1431C58.4571 65.618 58.1827 65.1494 57.7929 64.7815C57.36 64.3728 56.7861 64.09 56.2458 63.9909C55.6506 63.8817 55.0441 63.9599 54.4949 64.184ZM56.5266 72.2847C57.1599 71.8996 58.1248 71.0017 57.4435 70.0471C56.6416 69.2053 55.4871 70.1704 54.9182 70.6069C54.3906 70.9452 53.7979 70.0752 54.2874 69.6802C58.3985 66.6353 60.0669 72.184 56.8469 72.7374C56.4924 72.7984 56.3607 72.4038 56.5266 72.2847ZM49.1594 75.8267C49.2294 76.6955 50.5521 76.8928 50.6837 76.0331C50.8015 75.2629 50.6628 74.5555 50.316 73.8621C49.9847 73.1997 49.1519 73.5087 49.089 74.1119C49.0045 74.9205 49.1159 75.2862 49.1594 75.8267ZM59.228 76.2113C59.4124 76.4529 59.6786 76.6179 59.9976 76.5247C60.9943 76.2333 60.7005 74.8178 60.3505 74.1288C60.1603 73.7546 59.5455 73.6597 59.2677 73.9892C58.8149 74.5264 58.598 75.5993 59.1737 76.1285C59.1893 76.1559 59.2067 76.1835 59.228 76.2113ZM50.302 79.6283L50.4594 79.6559C50.9465 79.7402 51.5521 79.8212 51.8966 79.4294C52.0793 79.2217 52.1422 78.8356 51.8966 78.6368C51.4645 78.287 50.9869 78.4226 50.4691 78.3929C50.0425 78.3684 49.6324 78.2978 49.2214 78.1803C48.3197 77.9225 47.585 77.4518 46.8149 76.9351C46.7139 76.8673 46.6107 76.9966 46.659 77.0911C47.1035 77.9622 47.965 78.6777 48.8279 79.1138C49.2885 79.3466 49.7925 79.5398 50.302 79.6283ZM58.3194 80.0185L58.4399 79.9939C59.7512 79.7197 61.455 79.1719 62.076 77.8834C62.0996 77.7011 62.0746 77.6621 62.0543 77.6366L62.0475 77.6281C62.0308 77.6063 62.0174 77.5763 61.9385 77.5515C61.9165 77.5567 61.8944 77.5622 61.8721 77.5681C61.5874 77.6427 61.3622 77.7455 61.1442 77.8522L60.9078 77.9687C60.6335 78.1032 60.3568 78.2329 60.0636 78.3286C59.4378 78.5328 58.7942 78.6766 58.1405 78.7534C57.9989 78.77 57.8624 78.8179 57.7548 78.8999C57.6527 78.9777 57.5746 79.0854 57.539 79.2286C57.4929 79.4139 57.5062 79.5542 57.6056 79.7214C57.6803 79.847 57.7872 79.934 57.91 79.984C58.0352 80.0349 58.1777 80.0469 58.3194 80.0185Z" fill="#0C0C0C"/>
<path fill-rule="evenodd" clip-rule="evenodd" d="M61.1385 78.5235C63.1069 78.5235 64.2302 78.1 64.6418 78.0671L64.6542 78.0662C64.8254 78.0552 64.9789 78.0409 65.1401 77.9786C65.7326 77.7503 65.8291 77.1286 65.4833 76.7368C65.4591 75.9261 65.5657 74.9788 65.3828 74.1655C65.1572 70.7367 63.5453 70.1581 62.6291 69.9469C62.1691 69.8408 61.6239 69.7986 61.1353 69.9106C60.3018 69.9417 59.4777 70.2027 58.7727 70.6573C57.7907 71.2908 57.0614 72.2646 56.8247 73.4203C56.7126 73.9712 56.6601 74.5446 56.7212 75.1045L56.7302 75.1817C56.4111 75.3344 56.0412 75.3633 55.6599 75.3768C55.4778 75.3832 55.2983 75.3891 55.1239 75.3813C54.9535 75.3623 54.785 75.3369 54.6161 75.3024C54.4316 75.2467 54.2574 75.1548 54.0965 75.0092L54.0854 74.7968C54.0552 74.2661 53.9855 73.7338 53.8781 73.2131C53.7195 72.4448 53.4644 71.7111 52.9214 71.1662C52.7376 70.8916 52.5101 70.6464 52.234 70.4341C51.231 69.6616 49.8683 69.3779 48.6177 69.4848C46.0787 69.7015 44.6111 71.7178 44.2728 72.5797L44.2526 72.6319C44.0083 73.2726 43.8136 74.104 43.0416 74.2416L42.8774 74.2712C42.5251 74.3373 42.2 74.4294 41.9934 74.7733C41.9029 74.9234 41.8563 75.0913 41.8449 75.2624C41.7244 75.2532 41.604 75.2443 41.4841 75.2357C40.5274 75.0333 34.789 74.8617 34.331 74.8617C34.331 74.8617 33.4506 74.491 33.0788 74.7782C32.8212 74.978 32.7364 75.2442 32.8783 75.5457C33.0923 75.9995 34.0796 76.2724 34.518 76.3588C34.518 76.3588 41.5928 76.3001 42.102 76.3966C42.4171 76.7216 42.9806 76.6772 43.4515 76.7285C43.8414 77.0066 44.3867 77.1929 44.8175 77.3175C44.9053 77.3508 44.9922 77.383 45.0768 77.4133C45.8665 77.6947 46.6874 77.8437 47.5208 77.9237C48.3802 78.0054 49.2421 77.9684 50.0964 77.8514C50.4565 77.8025 50.8132 77.7393 51.1673 77.6567C51.8015 77.573 52.432 77.4353 53.0663 77.2719L53.1933 77.2389C53.8613 77.0636 54.5478 76.9121 55.2394 77.0309C55.8024 77.1269 56.3438 77.3437 56.8629 77.5781L56.9305 77.6087C58.0719 78.1301 59.8544 78.5235 61.1385 78.5235ZM51.0987 76.6173C50.6775 76.7099 50.4977 76.0604 50.9202 75.9674C51.2193 75.9016 51.4729 75.7507 51.6442 75.495L51.6622 75.4672C51.8921 75.1013 52.4734 75.4391 52.2419 75.8074C51.9815 76.2218 51.5768 76.5121 51.0987 76.6173ZM63.4333 77.02C63.2848 77.1246 63.0602 77.047 62.974 76.8991C62.8791 76.7363 62.9413 76.5551 63.0803 76.4486L63.0945 76.4382C63.222 76.3482 63.3462 76.187 63.3618 76.0219L63.3632 76.0012C63.3799 75.569 64.0514 75.5668 64.0346 76.0012C64.0182 76.4262 63.7723 76.7813 63.4333 77.02Z" fill="#0C0C0C"/>
</svg>
