<svg width="42" height="45" viewBox="0 0 42 45" fill="none" xmlns="http://www.w3.org/2000/svg">
<path d="M16.5 4.5C15.24 4.5 14.25 3.51 14.25 2.25C14.25 0.990001 15.24 0 16.5 0C17.76 0 18.75 0.990001 18.75 2.25C18.75 3.51 17.76 4.5 16.5 4.5ZM25.5 4.5C24.24 4.5 23.25 3.51 23.25 2.25C23.25 0.990001 24.24 0 25.5 0C26.76 0 27.75 0.990001 27.75 2.25C27.75 3.51 26.76 4.5 25.5 4.5ZM21 4.5C19.74 4.5 18.75 3.51 18.75 2.25C18.75 0.990001 19.74 0 21 0C22.26 0 23.25 0.990001 23.25 2.25C23.25 3.51 22.26 4.5 21 4.5ZM30 4.5C28.74 4.5 27.75 3.51 27.75 2.25C27.75 0.990001 28.74 0 30 0C31.26 0 32.25 0.990001 32.25 2.25C32.25 3.51 31.26 4.5 30 4.5ZM12 4.5C10.74 4.5 9.75 3.51 9.75 2.25C9.75 0.990001 10.74 0 12 0C13.26 0 14.25 0.990001 14.25 2.25C14.25 3.51 13.26 4.5 12 4.5ZM16.5 9C15.24 9 14.25 8.01 14.25 6.75C14.25 5.49 15.24 4.5 16.5 4.5C17.76 4.5 18.75 5.49 18.75 6.75C18.75 8.01 17.76 9 16.5 9ZM7.5 9C6.24 9 5.25 8.01 5.25 6.75C5.25 5.49 6.24 4.5 7.5 4.5C8.76 4.5 9.75 5.49 9.75 6.75C9.75 8.01 8.76 9 7.5 9ZM21 9C19.74 9 18.75 8.01 18.75 6.75C18.75 5.49 19.74 4.5 21 4.5C22.26 4.5 23.25 5.49 23.25 6.75C23.25 8.01 22.26 9 21 9ZM30 9C28.74 9 27.75 8.01 27.75 6.75C27.75 5.49 28.74 4.5 30 4.5C31.26 4.5 32.25 5.49 32.25 6.75C32.25 8.01 31.26 9 30 9ZM25.5 9C24.24 9 23.25 8.01 23.25 6.75C23.25 5.49 24.24 4.5 25.5 4.5C26.76 4.5 27.75 5.49 27.75 6.75C27.75 8.01 26.76 9 25.5 9ZM12 9C10.74 9 9.75 8.01 9.75 6.75C9.75 5.49 10.74 4.5 12 4.5C13.26 4.5 14.25 5.49 14.25 6.75C14.25 8.01 13.26 9 12 9ZM34.5 9C33.24 9 32.25 8.01 32.25 6.75C32.25 5.49 33.24 4.5 34.5 4.5C35.76 4.5 36.75 5.49 36.75 6.75C36.75 8.01 35.76 9 34.5 9ZM12 13.5C10.74 13.5 9.75 12.51 9.75 11.25C9.75 9.99 10.74 9 12 9C13.26 9 14.25 9.99 14.25 11.25C14.25 12.51 13.26 13.5 12 13.5ZM30 13.5C28.74 13.5 27.75 12.51 27.75 11.25C27.75 9.99 28.74 9 30 9C31.26 9 32.25 9.99 32.25 11.25C32.25 12.51 31.26 13.5 30 13.5ZM7.5 13.5C6.24 13.5 5.25 12.51 5.25 11.25C5.25 9.99 6.24 9 7.5 9C8.76 9 9.75 9.99 9.75 11.25C9.75 12.51 8.76 13.5 7.5 13.5ZM34.5 13.5C33.24 13.5 32.25 12.51 32.25 11.25C32.25 9.99 33.24 9 34.5 9C35.76 9 36.75 9.99 36.75 11.25C36.75 12.51 35.76 13.5 34.5 13.5ZM39 13.5C37.74 13.5 36.75 12.51 36.75 11.25C36.75 9.99 37.74 9 39 9C40.26 9 41.25 9.99 41.25 11.25C41.25 12.51 40.26 13.5 39 13.5ZM3 13.5C1.74 13.5 0.75 12.51 0.75 11.25C0.75 9.99 1.74 9 3 9C4.26 9 5.25 9.99 5.25 11.25C5.25 12.51 4.26 13.5 3 13.5ZM7.5 18C6.24 18 5.25 17.01 5.25 15.75C5.25 14.49 6.24 13.5 7.5 13.5C8.76 13.5 9.75 14.49 9.75 15.75C9.75 17.01 8.76 18 7.5 18ZM3 18C1.74 18 0.75 17.01 0.75 15.75C0.75 14.49 1.74 13.5 3 13.5C4.26 13.5 5.25 14.49 5.25 15.75C5.25 17.01 4.26 18 3 18ZM34.5 18C33.24 18 32.25 17.01 32.25 15.75C32.25 14.49 33.24 13.5 34.5 13.5C35.76 13.5 36.75 14.49 36.75 15.75C36.75 17.01 35.76 18 34.5 18ZM39 18C37.74 18 36.75 17.01 36.75 15.75C36.75 14.49 37.74 13.5 39 13.5C40.26 13.5 41.25 14.49 41.25 15.75C41.25 17.01 40.26 18 39 18ZM3 22.5C1.74 22.5 0.75 21.51 0.75 20.25C0.75 18.99 1.74 18 3 18C4.26 18 5.25 18.99 5.25 20.25C5.25 21.51 4.26 22.5 3 22.5ZM7.5 22.5C6.24 22.5 5.25 21.51 5.25 20.25C5.25 18.99 6.24 18 7.5 18C8.76 18 9.75 18.99 9.75 20.25C9.75 21.51 8.76 22.5 7.5 22.5ZM39 22.5C37.74 22.5 36.75 21.51 36.75 20.25C36.75 18.99 37.74 18 39 18C40.26 18 41.25 18.99 41.25 20.25C41.25 21.51 40.26 22.5 39 22.5ZM34.5 22.5C33.24 22.5 32.25 21.51 32.25 20.25C32.25 18.99 33.24 18 34.5 18C35.76 18 36.75 18.99 36.75 20.25C36.75 21.51 35.76 22.5 34.5 22.5ZM34.5 27C33.24 27 32.25 26.01 32.25 24.75C32.25 23.49 33.24 22.5 34.5 22.5C35.76 22.5 36.75 23.49 36.75 24.75C36.75 26.01 35.76 27 34.5 27ZM3 27C1.74 27 0.75 26.01 0.75 24.75C0.75 23.49 1.74 22.5 3 22.5C4.26 22.5 5.25 23.49 5.25 24.75C5.25 26.01 4.26 27 3 27ZM39 27C37.74 27 36.75 26.01 36.75 24.75C36.75 23.49 37.74 22.5 39 22.5C40.26 22.5 41.25 23.49 41.25 24.75C41.25 26.01 40.26 27 39 27ZM7.5 27C6.24 27 5.25 26.01 5.25 24.75C5.25 23.49 6.24 22.5 7.5 22.5C8.76 22.5 9.75 23.49 9.75 24.75C9.75 26.01 8.76 27 7.5 27ZM34.5 31.5C33.24 31.5 32.25 30.51 32.25 29.25C32.25 27.99 33.24 27 34.5 27C35.76 27 36.75 27.99 36.75 29.25C36.75 30.51 35.76 31.5 34.5 31.5ZM7.5 31.5C6.24 31.5 5.25 30.51 5.25 29.25C5.25 27.99 6.24 27 7.5 27C8.76 27 9.75 27.99 9.75 29.25C9.75 30.51 8.76 31.5 7.5 31.5ZM3 31.5C1.74 31.5 0.75 30.51 0.75 29.25C0.75 27.99 1.74 27 3 27C4.26 27 5.25 27.99 5.25 29.25C5.25 30.51 4.26 31.5 3 31.5ZM39 31.5C37.74 31.5 36.75 30.51 36.75 29.25C36.75 27.99 37.74 27 39 27C40.26 27 41.25 27.99 41.25 29.25C41.25 30.51 40.26 31.5 39 31.5ZM12 36C10.74 36 9.75 35.01 9.75 33.75C9.75 32.49 10.74 31.5 12 31.5C13.26 31.5 14.25 32.49 14.25 33.75C14.25 35.01 13.26 36 12 36ZM30 36C28.74 36 27.75 35.01 27.75 33.75C27.75 32.49 28.74 31.5 30 31.5C31.26 31.5 32.25 32.49 32.25 33.75C32.25 35.01 31.26 36 30 36ZM34.5 36C33.24 36 32.25 35.01 32.25 33.75C32.25 32.49 33.24 31.5 34.5 31.5C35.76 31.5 36.75 32.49 36.75 33.75C36.75 35.01 35.76 36 34.5 36ZM39 36C37.74 36 36.75 35.01 36.75 33.75C36.75 32.49 37.74 31.5 39 31.5C40.26 31.5 41.25 32.49 41.25 33.75C41.25 35.01 40.26 36 39 36ZM3 36C1.74 36 0.75 35.01 0.75 33.75C0.75 32.49 1.74 31.5 3 31.5C4.26 31.5 5.25 32.49 5.25 33.75C5.25 35.01 4.26 36 3 36ZM7.5 36C6.24 36 5.25 35.01 5.25 33.75C5.25 32.49 6.24 31.5 7.5 31.5C8.76 31.5 9.75 32.49 9.75 33.75C9.75 35.01 8.76 36 7.5 36ZM7.5 40.5C6.24 40.5 5.25 39.51 5.25 38.25C5.25 36.99 6.24 36 7.5 36C8.76 36 9.75 36.99 9.75 38.25C9.75 39.51 8.76 40.5 7.5 40.5ZM34.5 40.5C33.24 40.5 32.25 39.51 32.25 38.25C32.25 36.99 33.24 36 34.5 36C35.76 36 36.75 36.99 36.75 38.25C36.75 39.51 35.76 40.5 34.5 40.5ZM30 40.5C28.74 40.5 27.75 39.51 27.75 38.25C27.75 36.99 28.74 36 30 36C31.26 36 32.25 36.99 32.25 38.25C32.25 39.51 31.26 40.5 30 40.5ZM25.5 40.5C24.24 40.5 23.25 39.51 23.25 38.25C23.25 36.99 24.24 36 25.5 36C26.76 36 27.75 36.99 27.75 38.25C27.75 39.51 26.76 40.5 25.5 40.5ZM16.5 40.5C15.24 40.5 14.25 39.51 14.25 38.25C14.25 36.99 15.24 36 16.5 36C17.76 36 18.75 36.99 18.75 38.25C18.75 39.51 17.76 40.5 16.5 40.5ZM12 40.5C10.74 40.5 9.75 39.51 9.75 38.25C9.75 36.99 10.74 36 12 36C13.26 36 14.25 36.99 14.25 38.25C14.25 39.51 13.26 40.5 12 40.5ZM21 40.5C19.74 40.5 18.75 39.51 18.75 38.25C18.75 36.99 19.74 36 21 36C22.26 36 23.25 36.99 23.25 38.25C23.25 39.51 22.26 40.5 21 40.5ZM30 45C28.74 45 27.75 44.01 27.75 42.75C27.75 41.49 28.74 40.5 30 40.5C31.26 40.5 32.25 41.49 32.25 42.75C32.25 44.01 31.26 45 30 45ZM25.5 45C24.24 45 23.25 44.01 23.25 42.75C23.25 41.49 24.24 40.5 25.5 40.5C26.76 40.5 27.75 41.49 27.75 42.75C27.75 44.01 26.76 45 25.5 45ZM16.5 45C15.24 45 14.25 44.01 14.25 42.75C14.25 41.49 15.24 40.5 16.5 40.5C17.76 40.5 18.75 41.49 18.75 42.75C18.75 44.01 17.76 45 16.5 45ZM12 45C10.74 45 9.75 44.01 9.75 42.75C9.75 41.49 10.74 40.5 12 40.5C13.26 40.5 14.25 41.49 14.25 42.75C14.25 44.01 13.26 45 12 45ZM21 45C19.74 45 18.75 44.01 18.75 42.75C18.75 41.49 19.74 40.5 21 40.5C22.26 40.5 23.25 41.49 23.25 42.75C23.25 44.01 22.26 45 21 45Z" fill="#D65A31"/>
</svg>
