<svg width="144" height="60" viewBox="0 0 144 60" fill="none" xmlns="http://www.w3.org/2000/svg">
<path d="M21 6C19.32 6 18 4.68 18 3C18 1.32 19.32 0 21 0C22.68 0 24 1.32 24 3C24 4.68 22.68 6 21 6ZM15 12C13.32 12 12 10.68 12 9C12 7.32 13.32 6 15 6C16.68 6 18 7.32 18 9C18 10.68 16.68 12 15 12ZM21 12C19.32 12 18 10.68 18 9C18 7.32 19.32 6 21 6C22.68 6 24 7.32 24 9C24 10.68 22.68 12 21 12ZM9 18C7.32 18 6 16.68 6 15C6 13.32 7.32 12 9 12C10.68 12 12 13.32 12 15C12 16.68 10.68 18 9 18ZM21 18C19.32 18 18 16.68 18 15C18 13.32 19.32 12 21 12C22.68 12 24 13.32 24 15C24 16.68 22.68 18 21 18ZM39 18C37.32 18 36 16.68 36 15C36 13.32 37.32 12 39 12C40.68 12 42 13.32 42 15C42 16.68 40.68 18 39 18ZM33 18C31.32 18 30 16.68 30 15C30 13.32 31.32 12 33 12C34.68 12 36 13.32 36 15C36 16.68 34.68 18 33 18ZM27 18C25.32 18 24 16.68 24 15C24 13.32 25.32 12 27 12C28.68 12 30 13.32 30 15C30 16.68 28.68 18 27 18ZM15 18C13.32 18 12 16.68 12 15C12 13.32 13.32 12 15 12C16.68 12 18 13.32 18 15C18 16.68 16.68 18 15 18ZM3 24C1.32 24 0 22.68 0 21C0 19.32 1.32 18 3 18C4.68 18 6 19.32 6 21C6 22.68 4.68 24 3 24ZM21 24C19.32 24 18 22.68 18 21C18 19.32 19.32 18 21 18C22.68 18 24 19.32 24 21C24 22.68 22.68 24 21 24ZM33 24C31.32 24 30 22.68 30 21C30 19.32 31.32 18 33 18C34.68 18 36 19.32 36 21C36 22.68 34.68 24 33 24ZM27 24C25.32 24 24 22.68 24 21C24 19.32 25.32 18 27 18C28.68 18 30 19.32 30 21C30 22.68 28.68 24 27 24ZM9 24C7.32 24 6 22.68 6 21C6 19.32 7.32 18 9 18C10.68 18 12 19.32 12 21C12 22.68 10.68 24 9 24ZM15 24C13.32 24 12 22.68 12 21C12 19.32 13.32 18 15 18C16.68 18 18 19.32 18 21C18 22.68 16.68 24 15 24ZM21 30C19.32 30 18 28.68 18 27C18 25.32 19.32 24 21 24C22.68 24 24 25.32 24 27C24 28.68 22.68 30 21 30ZM15 30C13.32 30 12 28.68 12 27C12 25.32 13.32 24 15 24C16.68 24 18 25.32 18 27C18 28.68 16.68 30 15 30ZM21 36C19.32 36 18 34.68 18 33C18 31.32 19.32 30 21 30C22.68 30 24 31.32 24 33C24 34.68 22.68 36 21 36ZM15 36C13.32 36 12 34.68 12 33C12 31.32 13.32 30 15 30C16.68 30 18 31.32 18 33C18 34.68 16.68 36 15 36ZM15 42C13.32 42 12 40.68 12 39C12 37.32 13.32 36 15 36C16.68 36 18 37.32 18 39C18 40.68 16.68 42 15 42ZM21 42C19.32 42 18 40.68 18 39C18 37.32 19.32 36 21 36C22.68 36 24 37.32 24 39C24 40.68 22.68 42 21 42ZM15 48C13.32 48 12 46.68 12 45C12 43.32 13.32 42 15 42C16.68 42 18 43.32 18 45C18 46.68 16.68 48 15 48ZM21 48C19.32 48 18 46.68 18 45C18 43.32 19.32 42 21 42C22.68 42 24 43.32 24 45C24 46.68 22.68 48 21 48ZM15 54C13.32 54 12 52.68 12 51C12 49.32 13.32 48 15 48C16.68 48 18 49.32 18 51C18 52.68 16.68 54 15 54ZM21 54C19.32 54 18 52.68 18 51C18 49.32 19.32 48 21 48C22.68 48 24 49.32 24 51C24 52.68 22.68 54 21 54ZM27 54C25.32 54 24 52.68 24 51C24 49.32 25.32 48 27 48C28.68 48 30 49.32 30 51C30 52.68 28.68 54 27 54ZM33 54C31.32 54 30 52.68 30 51C30 49.32 31.32 48 33 48C34.68 48 36 49.32 36 51C36 52.68 34.68 54 33 54ZM39 54C37.32 54 36 52.68 36 51C36 49.32 37.32 48 39 48C40.68 48 42 49.32 42 51C42 52.68 40.68 54 39 54ZM21 60C19.32 60 18 58.68 18 57C18 55.32 19.32 54 21 54C22.68 54 24 55.32 24 57C24 58.68 22.68 60 21 60ZM27 60C25.32 60 24 58.68 24 57C24 55.32 25.32 54 27 54C28.68 54 30 55.32 30 57C30 58.68 28.68 60 27 60ZM33 60C31.32 60 30 58.68 30 57C30 55.32 31.32 54 33 54C34.68 54 36 55.32 36 57C36 58.68 34.68 60 33 60ZM57 18C55.32 18 54 16.68 54 15C54 13.32 55.32 12 57 12C58.68 12 60 13.32 60 15C60 16.68 58.68 18 57 18ZM63 18C61.32 18 60 16.68 60 15C60 13.32 61.32 12 63 12C64.68 12 66 13.32 66 15C66 16.68 64.68 18 63 18ZM69 18C67.32 18 66 16.68 66 15C66 13.32 67.32 12 69 12C70.68 12 72 13.32 72 15C72 16.68 70.68 18 69 18ZM75 18C73.32 18 72 16.68 72 15C72 13.32 73.32 12 75 12C76.68 12 78 13.32 78 15C78 16.68 76.68 18 75 18ZM81 18C79.32 18 78 16.68 78 15C78 13.32 79.32 12 81 12C82.68 12 84 13.32 84 15C84 16.68 82.68 18 81 18ZM57 24C55.32 24 54 22.68 54 21C54 19.32 55.32 18 57 18C58.68 18 60 19.32 60 21C60 22.68 58.68 24 57 24ZM51 24C49.32 24 48 22.68 48 21C48 19.32 49.32 18 51 18C52.68 18 54 19.32 54 21C54 22.68 52.68 24 51 24ZM81 24C79.32 24 78 22.68 78 21C78 19.32 79.32 18 81 18C82.68 18 84 19.32 84 21C84 22.68 82.68 24 81 24ZM87 24C85.32 24 84 22.68 84 21C84 19.32 85.32 18 87 18C88.68 18 90 19.32 90 21C90 22.68 88.68 24 87 24ZM63 24C61.32 24 60 22.68 60 21C60 19.32 61.32 18 63 18C64.68 18 66 19.32 66 21C66 22.68 64.68 24 63 24ZM75 24C73.32 24 72 22.68 72 21C72 19.32 73.32 18 75 18C76.68 18 78 19.32 78 21C78 22.68 76.68 24 75 24ZM69 24C67.32 24 66 22.68 66 21C66 19.32 67.32 18 69 18C70.68 18 72 19.32 72 21C72 22.68 70.68 24 69 24ZM81 30C79.32 30 78 28.68 78 27C78 25.32 79.32 24 81 24C82.68 24 84 25.32 84 27C84 28.68 82.68 30 81 30ZM87 30C85.32 30 84 28.68 84 27C84 25.32 85.32 24 87 24C88.68 24 90 25.32 90 27C90 28.68 88.68 30 87 30ZM63 36C61.32 36 60 34.68 60 33C60 31.32 61.32 30 63 30C64.68 30 66 31.32 66 33C66 34.68 64.68 36 63 36ZM81 36C79.32 36 78 34.68 78 33C78 31.32 79.32 30 81 30C82.68 30 84 31.32 84 33C84 34.68 82.68 36 81 36ZM87 36C85.32 36 84 34.68 84 33C84 31.32 85.32 30 87 30C88.68 30 90 31.32 90 33C90 34.68 88.68 36 87 36ZM75 36C73.32 36 72 34.68 72 33C72 31.32 73.32 30 75 30C76.68 30 78 31.32 78 33C78 34.68 76.68 36 75 36ZM69 36C67.32 36 66 34.68 66 33C66 31.32 67.32 30 69 30C70.68 30 72 31.32 72 33C72 34.68 70.68 36 69 36ZM63 42C61.32 42 60 40.68 60 39C60 37.32 61.32 36 63 36C64.68 36 66 37.32 66 39C66 40.68 64.68 42 63 42ZM69 42C67.32 42 66 40.68 66 39C66 37.32 67.32 36 69 36C70.68 36 72 37.32 72 39C72 40.68 70.68 42 69 42ZM75 42C73.32 42 72 40.68 72 39C72 37.32 73.32 36 75 36C76.68 36 78 37.32 78 39C78 40.68 76.68 42 75 42ZM87 42C85.32 42 84 40.68 84 39C84 37.32 85.32 36 87 36C88.68 36 90 37.32 90 39C90 40.68 88.68 42 87 42ZM81 42C79.32 42 78 40.68 78 39C78 37.32 79.32 36 81 36C82.68 36 84 37.32 84 39C84 40.68 82.68 42 81 42ZM57 42C55.32 42 54 40.68 54 39C54 37.32 55.32 36 57 36C58.68 36 60 37.32 60 39C60 40.68 58.68 42 57 42ZM51 42C49.32 42 48 40.68 48 39C48 37.32 49.32 36 51 36C52.68 36 54 37.32 54 39C54 40.68 52.68 42 51 42ZM81 48C79.32 48 78 46.68 78 45C78 43.32 79.32 42 81 42C82.68 42 84 43.32 84 45C84 46.68 82.68 48 81 48ZM87 48C85.32 48 84 46.68 84 45C84 43.32 85.32 42 87 42C88.68 42 90 43.32 90 45C90 46.68 88.68 48 87 48ZM57 48C55.32 48 54 46.68 54 45C54 43.32 55.32 42 57 42C58.68 42 60 43.32 60 45C60 46.68 58.68 48 57 48ZM51 48C49.32 48 48 46.68 48 45C48 43.32 49.32 42 51 42C52.68 42 54 43.32 54 45C54 46.68 52.68 48 51 48ZM69 54C67.32 54 66 52.68 66 51C66 49.32 67.32 48 69 48C70.68 48 72 49.32 72 51C72 52.68 70.68 54 69 54ZM51 54C49.32 54 48 52.68 48 51C48 49.32 49.32 48 51 48C52.68 48 54 49.32 54 51C54 52.68 52.68 54 51 54ZM63 54C61.32 54 60 52.68 60 51C60 49.32 61.32 48 63 48C64.68 48 66 49.32 66 51C66 52.68 64.68 54 63 54ZM87 54C85.32 54 84 52.68 84 51C84 49.32 85.32 48 87 48C88.68 48 90 49.32 90 51C90 52.68 88.68 54 87 54ZM81 54C79.32 54 78 52.68 78 51C78 49.32 79.32 48 81 48C82.68 48 84 49.32 84 51C84 52.68 82.68 54 81 54ZM57 54C55.32 54 54 52.68 54 51C54 49.32 55.32 48 57 48C58.68 48 60 49.32 60 51C60 52.68 58.68 54 57 54ZM75 54C73.32 54 72 52.68 72 51C72 49.32 73.32 48 75 48C76.68 48 78 49.32 78 51C78 52.68 76.68 54 75 54ZM69 60C67.32 60 66 58.68 66 57C66 55.32 67.32 54 69 54C70.68 54 72 55.32 72 57C72 58.68 70.68 60 69 60ZM81 60C79.32 60 78 58.68 78 57C78 55.32 79.32 54 81 54C82.68 54 84 55.32 84 57C84 58.68 82.68 60 81 60ZM87 60C85.32 60 84 58.68 84 57C84 55.32 85.32 54 87 54C88.68 54 90 55.32 90 57C90 58.68 88.68 60 87 60ZM63 60C61.32 60 60 58.68 60 57C60 55.32 61.32 54 63 54C64.68 54 66 55.32 66 57C66 58.68 64.68 60 63 60ZM57 60C55.32 60 54 58.68 54 57C54 55.32 55.32 54 57 54C58.68 54 60 55.32 60 57C60 58.68 58.68 60 57 60ZM117 18C115.32 18 114 16.68 114 15C114 13.32 115.32 12 117 12C118.68 12 120 13.32 120 15C120 16.68 118.68 18 117 18ZM123 18C121.32 18 120 16.68 120 15C120 13.32 121.32 12 123 12C124.68 12 126 13.32 126 15C126 16.68 124.68 18 123 18ZM129 18C127.32 18 126 16.68 126 15C126 13.32 127.32 12 129 12C130.68 12 132 13.32 132 15C132 16.68 130.68 18 129 18ZM135 18C133.32 18 132 16.68 132 15C132 13.32 133.32 12 135 12C136.68 12 138 13.32 138 15C138 16.68 136.68 18 135 18ZM135 24C133.32 24 132 22.68 132 21C132 19.32 133.32 18 135 18C136.68 18 138 19.32 138 21C138 22.68 136.68 24 135 24ZM141 24C139.32 24 138 22.68 138 21C138 19.32 139.32 18 141 18C142.68 18 144 19.32 144 21C144 22.68 142.68 24 141 24ZM129 24C127.32 24 126 22.68 126 21C126 19.32 127.32 18 129 18C130.68 18 132 19.32 132 21C132 22.68 130.68 24 129 24ZM123 24C121.32 24 120 22.68 120 21C120 19.32 121.32 18 123 18C124.68 18 126 19.32 126 21C126 22.68 124.68 24 123 24ZM117 24C115.32 24 114 22.68 114 21C114 19.32 115.32 18 117 18C118.68 18 120 19.32 120 21C120 22.68 118.68 24 117 24ZM111 24C109.32 24 108 22.68 108 21C108 19.32 109.32 18 111 18C112.68 18 114 19.32 114 21C114 22.68 112.68 24 111 24ZM111 30C109.32 30 108 28.68 108 27C108 25.32 109.32 24 111 24C112.68 24 114 25.32 114 27C114 28.68 112.68 30 111 30ZM105 30C103.32 30 102 28.68 102 27C102 25.32 103.32 24 105 24C106.68 24 108 25.32 108 27C108 28.68 106.68 30 105 30ZM141 30C139.32 30 138 28.68 138 27C138 25.32 139.32 24 141 24C142.68 24 144 25.32 144 27C144 28.68 142.68 30 141 30ZM135 30C133.32 30 132 28.68 132 27C132 25.32 133.32 24 135 24C136.68 24 138 25.32 138 27C138 28.68 136.68 30 135 30ZM117 30C115.32 30 114 28.68 114 27C114 25.32 115.32 24 117 24C118.68 24 120 25.32 120 27C120 28.68 118.68 30 117 30ZM111 36C109.32 36 108 34.68 108 33C108 31.32 109.32 30 111 30C112.68 30 114 31.32 114 33C114 34.68 112.68 36 111 36ZM105 36C103.32 36 102 34.68 102 33C102 31.32 103.32 30 105 30C106.68 30 108 31.32 108 33C108 34.68 106.68 36 105 36ZM111 42C109.32 42 108 40.68 108 39C108 37.32 109.32 36 111 36C112.68 36 114 37.32 114 39C114 40.68 112.68 42 111 42ZM105 42C103.32 42 102 40.68 102 39C102 37.32 103.32 36 105 36C106.68 36 108 37.32 108 39C108 40.68 106.68 42 105 42ZM141 48C139.32 48 138 46.68 138 45C138 43.32 139.32 42 141 42C142.68 42 144 43.32 144 45C144 46.68 142.68 48 141 48ZM111 48C109.32 48 108 46.68 108 45C108 43.32 109.32 42 111 42C112.68 42 114 43.32 114 45C114 46.68 112.68 48 111 48ZM105 48C103.32 48 102 46.68 102 45C102 43.32 103.32 42 105 42C106.68 42 108 43.32 108 45C108 46.68 106.68 48 105 48ZM135 48C133.32 48 132 46.68 132 45C132 43.32 133.32 42 135 42C136.68 42 138 43.32 138 45C138 46.68 136.68 48 135 48ZM117 48C115.32 48 114 46.68 114 45C114 43.32 115.32 42 117 42C118.68 42 120 43.32 120 45C120 46.68 118.68 48 117 48ZM117 54C115.32 54 114 52.68 114 51C114 49.32 115.32 48 117 48C118.68 48 120 49.32 120 51C120 52.68 118.68 54 117 54ZM135 54C133.32 54 132 52.68 132 51C132 49.32 133.32 48 135 48C136.68 48 138 49.32 138 51C138 52.68 136.68 54 135 54ZM123 54C121.32 54 120 52.68 120 51C120 49.32 121.32 48 123 48C124.68 48 126 49.32 126 51C126 52.68 124.68 54 123 54ZM141 54C139.32 54 138 52.68 138 51C138 49.32 139.32 48 141 48C142.68 48 144 49.32 144 51C144 52.68 142.68 54 141 54ZM129 54C127.32 54 126 52.68 126 51C126 49.32 127.32 48 129 48C130.68 48 132 49.32 132 51C132 52.68 130.68 54 129 54ZM111 54C109.32 54 108 52.68 108 51C108 49.32 109.32 48 111 48C112.68 48 114 49.32 114 51C114 52.68 112.68 54 111 54ZM117 60C115.32 60 114 58.68 114 57C114 55.32 115.32 54 117 54C118.68 54 120 55.32 120 57C120 58.68 118.68 60 117 60ZM123 60C121.32 60 120 58.68 120 57C120 55.32 121.32 54 123 54C124.68 54 126 55.32 126 57C126 58.68 124.68 60 123 60ZM135 60C133.32 60 132 58.68 132 57C132 55.32 133.32 54 135 54C136.68 54 138 55.32 138 57C138 58.68 136.68 60 135 60ZM129 60C127.32 60 126 58.68 126 57C126 55.32 127.32 54 129 54C130.68 54 132 55.32 132 57C132 58.68 130.68 60 129 60Z" fill="#0C0C0C"/>
</svg>
