<svg width="91" height="53" viewBox="0 0 91 53" fill="none" xmlns="http://www.w3.org/2000/svg">
<path d="M16.625 10.25C15.295 10.25 14.25 9.205 14.25 7.875C14.25 6.545 15.295 5.5 16.625 5.5C17.955 5.5 19 6.545 19 7.875C19 9.205 17.955 10.25 16.625 10.25ZM11.875 15C10.545 15 9.5 13.955 9.5 12.625C9.5 11.295 10.545 10.25 11.875 10.25C13.205 10.25 14.25 11.295 14.25 12.625C14.25 13.955 13.205 15 11.875 15ZM16.625 15C15.295 15 14.25 13.955 14.25 12.625C14.25 11.295 15.295 10.25 16.625 10.25C17.955 10.25 19 11.295 19 12.625C19 13.955 17.955 15 16.625 15ZM7.125 19.75C5.795 19.75 4.75 18.705 4.75 17.375C4.75 16.045 5.795 15 7.125 15C8.455 15 9.5 16.045 9.5 17.375C9.5 18.705 8.455 19.75 7.125 19.75ZM16.625 19.75C15.295 19.75 14.25 18.705 14.25 17.375C14.25 16.045 15.295 15 16.625 15C17.955 15 19 16.045 19 17.375C19 18.705 17.955 19.75 16.625 19.75ZM30.875 19.75C29.545 19.75 28.5 18.705 28.5 17.375C28.5 16.045 29.545 15 30.875 15C32.205 15 33.25 16.045 33.25 17.375C33.25 18.705 32.205 19.75 30.875 19.75ZM26.125 19.75C24.795 19.75 23.75 18.705 23.75 17.375C23.75 16.045 24.795 15 26.125 15C27.455 15 28.5 16.045 28.5 17.375C28.5 18.705 27.455 19.75 26.125 19.75ZM21.375 19.75C20.045 19.75 19 18.705 19 17.375C19 16.045 20.045 15 21.375 15C22.705 15 23.75 16.045 23.75 17.375C23.75 18.705 22.705 19.75 21.375 19.75ZM11.875 19.75C10.545 19.75 9.5 18.705 9.5 17.375C9.5 16.045 10.545 15 11.875 15C13.205 15 14.25 16.045 14.25 17.375C14.25 18.705 13.205 19.75 11.875 19.75ZM2.375 24.5C1.045 24.5 0 23.455 0 22.125C0 20.795 1.045 19.75 2.375 19.75C3.705 19.75 4.75 20.795 4.75 22.125C4.75 23.455 3.705 24.5 2.375 24.5ZM16.625 24.5C15.295 24.5 14.25 23.455 14.25 22.125C14.25 20.795 15.295 19.75 16.625 19.75C17.955 19.75 19 20.795 19 22.125C19 23.455 17.955 24.5 16.625 24.5ZM26.125 24.5C24.795 24.5 23.75 23.455 23.75 22.125C23.75 20.795 24.795 19.75 26.125 19.75C27.455 19.75 28.5 20.795 28.5 22.125C28.5 23.455 27.455 24.5 26.125 24.5ZM21.375 24.5C20.045 24.5 19 23.455 19 22.125C19 20.795 20.045 19.75 21.375 19.75C22.705 19.75 23.75 20.795 23.75 22.125C23.75 23.455 22.705 24.5 21.375 24.5ZM7.125 24.5C5.795 24.5 4.75 23.455 4.75 22.125C4.75 20.795 5.795 19.75 7.125 19.75C8.455 19.75 9.5 20.795 9.5 22.125C9.5 23.455 8.455 24.5 7.125 24.5ZM11.875 24.5C10.545 24.5 9.5 23.455 9.5 22.125C9.5 20.795 10.545 19.75 11.875 19.75C13.205 19.75 14.25 20.795 14.25 22.125C14.25 23.455 13.205 24.5 11.875 24.5ZM16.625 29.25C15.295 29.25 14.25 28.205 14.25 26.875C14.25 25.545 15.295 24.5 16.625 24.5C17.955 24.5 19 25.545 19 26.875C19 28.205 17.955 29.25 16.625 29.25ZM11.875 29.25C10.545 29.25 9.5 28.205 9.5 26.875C9.5 25.545 10.545 24.5 11.875 24.5C13.205 24.5 14.25 25.545 14.25 26.875C14.25 28.205 13.205 29.25 11.875 29.25ZM16.625 34C15.295 34 14.25 32.955 14.25 31.625C14.25 30.295 15.295 29.25 16.625 29.25C17.955 29.25 19 30.295 19 31.625C19 32.955 17.955 34 16.625 34ZM11.875 34C10.545 34 9.5 32.955 9.5 31.625C9.5 30.295 10.545 29.25 11.875 29.25C13.205 29.25 14.25 30.295 14.25 31.625C14.25 32.955 13.205 34 11.875 34ZM11.875 38.75C10.545 38.75 9.5 37.705 9.5 36.375C9.5 35.045 10.545 34 11.875 34C13.205 34 14.25 35.045 14.25 36.375C14.25 37.705 13.205 38.75 11.875 38.75ZM16.625 38.75C15.295 38.75 14.25 37.705 14.25 36.375C14.25 35.045 15.295 34 16.625 34C17.955 34 19 35.045 19 36.375C19 37.705 17.955 38.75 16.625 38.75ZM11.875 43.5C10.545 43.5 9.5 42.455 9.5 41.125C9.5 39.795 10.545 38.75 11.875 38.75C13.205 38.75 14.25 39.795 14.25 41.125C14.25 42.455 13.205 43.5 11.875 43.5ZM16.625 43.5C15.295 43.5 14.25 42.455 14.25 41.125C14.25 39.795 15.295 38.75 16.625 38.75C17.955 38.75 19 39.795 19 41.125C19 42.455 17.955 43.5 16.625 43.5ZM11.875 48.25C10.545 48.25 9.5 47.205 9.5 45.875C9.5 44.545 10.545 43.5 11.875 43.5C13.205 43.5 14.25 44.545 14.25 45.875C14.25 47.205 13.205 48.25 11.875 48.25ZM16.625 48.25C15.295 48.25 14.25 47.205 14.25 45.875C14.25 44.545 15.295 43.5 16.625 43.5C17.955 43.5 19 44.545 19 45.875C19 47.205 17.955 48.25 16.625 48.25ZM21.375 48.25C20.045 48.25 19 47.205 19 45.875C19 44.545 20.045 43.5 21.375 43.5C22.705 43.5 23.75 44.545 23.75 45.875C23.75 47.205 22.705 48.25 21.375 48.25ZM26.125 48.25C24.795 48.25 23.75 47.205 23.75 45.875C23.75 44.545 24.795 43.5 26.125 43.5C27.455 43.5 28.5 44.545 28.5 45.875C28.5 47.205 27.455 48.25 26.125 48.25ZM30.875 48.25C29.545 48.25 28.5 47.205 28.5 45.875C28.5 44.545 29.545 43.5 30.875 43.5C32.205 43.5 33.25 44.545 33.25 45.875C33.25 47.205 32.205 48.25 30.875 48.25ZM16.625 53C15.295 53 14.25 51.955 14.25 50.625C14.25 49.295 15.295 48.25 16.625 48.25C17.955 48.25 19 49.295 19 50.625C19 51.955 17.955 53 16.625 53ZM21.375 53C20.045 53 19 51.955 19 50.625C19 49.295 20.045 48.25 21.375 48.25C22.705 48.25 23.75 49.295 23.75 50.625C23.75 51.955 22.705 53 21.375 53ZM26.125 53C24.795 53 23.75 51.955 23.75 50.625C23.75 49.295 24.795 48.25 26.125 48.25C27.455 48.25 28.5 49.295 28.5 50.625C28.5 51.955 27.455 53 26.125 53ZM40.375 5.5C39.045 5.5 38 4.455 38 3.125C38 1.795 39.045 0.75 40.375 0.75C41.705 0.75 42.75 1.795 42.75 3.125C42.75 4.455 41.705 5.5 40.375 5.5ZM45.125 5.5C43.795 5.5 42.75 4.455 42.75 3.125C42.75 1.795 43.795 0.75 45.125 0.75C46.455 0.75 47.5 1.795 47.5 3.125C47.5 4.455 46.455 5.5 45.125 5.5ZM40.375 10.25C39.045 10.25 38 9.205 38 7.875C38 6.545 39.045 5.5 40.375 5.5C41.705 5.5 42.75 6.545 42.75 7.875C42.75 9.205 41.705 10.25 40.375 10.25ZM45.125 10.25C43.795 10.25 42.75 9.205 42.75 7.875C42.75 6.545 43.795 5.5 45.125 5.5C46.455 5.5 47.5 6.545 47.5 7.875C47.5 9.205 46.455 10.25 45.125 10.25ZM40.375 19.75C39.045 19.75 38 18.705 38 17.375C38 16.045 39.045 15 40.375 15C41.705 15 42.75 16.045 42.75 17.375C42.75 18.705 41.705 19.75 40.375 19.75ZM45.125 19.75C43.795 19.75 42.75 18.705 42.75 17.375C42.75 16.045 43.795 15 45.125 15C46.455 15 47.5 16.045 47.5 17.375C47.5 18.705 46.455 19.75 45.125 19.75ZM40.375 24.5C39.045 24.5 38 23.455 38 22.125C38 20.795 39.045 19.75 40.375 19.75C41.705 19.75 42.75 20.795 42.75 22.125C42.75 23.455 41.705 24.5 40.375 24.5ZM45.125 24.5C43.795 24.5 42.75 23.455 42.75 22.125C42.75 20.795 43.795 19.75 45.125 19.75C46.455 19.75 47.5 20.795 47.5 22.125C47.5 23.455 46.455 24.5 45.125 24.5ZM40.375 29.25C39.045 29.25 38 28.205 38 26.875C38 25.545 39.045 24.5 40.375 24.5C41.705 24.5 42.75 25.545 42.75 26.875C42.75 28.205 41.705 29.25 40.375 29.25ZM45.125 29.25C43.795 29.25 42.75 28.205 42.75 26.875C42.75 25.545 43.795 24.5 45.125 24.5C46.455 24.5 47.5 25.545 47.5 26.875C47.5 28.205 46.455 29.25 45.125 29.25ZM40.375 34C39.045 34 38 32.955 38 31.625C38 30.295 39.045 29.25 40.375 29.25C41.705 29.25 42.75 30.295 42.75 31.625C42.75 32.955 41.705 34 40.375 34ZM45.125 34C43.795 34 42.75 32.955 42.75 31.625C42.75 30.295 43.795 29.25 45.125 29.25C46.455 29.25 47.5 30.295 47.5 31.625C47.5 32.955 46.455 34 45.125 34ZM40.375 38.75C39.045 38.75 38 37.705 38 36.375C38 35.045 39.045 34 40.375 34C41.705 34 42.75 35.045 42.75 36.375C42.75 37.705 41.705 38.75 40.375 38.75ZM45.125 38.75C43.795 38.75 42.75 37.705 42.75 36.375C42.75 35.045 43.795 34 45.125 34C46.455 34 47.5 35.045 47.5 36.375C47.5 37.705 46.455 38.75 45.125 38.75ZM40.375 43.5C39.045 43.5 38 42.455 38 41.125C38 39.795 39.045 38.75 40.375 38.75C41.705 38.75 42.75 39.795 42.75 41.125C42.75 42.455 41.705 43.5 40.375 43.5ZM45.125 43.5C43.795 43.5 42.75 42.455 42.75 41.125C42.75 39.795 43.795 38.75 45.125 38.75C46.455 38.75 47.5 39.795 47.5 41.125C47.5 42.455 46.455 43.5 45.125 43.5ZM40.375 48.25C39.045 48.25 38 47.205 38 45.875C38 44.545 39.045 43.5 40.375 43.5C41.705 43.5 42.75 44.545 42.75 45.875C42.75 47.205 41.705 48.25 40.375 48.25ZM45.125 48.25C43.795 48.25 42.75 47.205 42.75 45.875C42.75 44.545 43.795 43.5 45.125 43.5C46.455 43.5 47.5 44.545 47.5 45.875C47.5 47.205 46.455 48.25 45.125 48.25ZM45.125 53C43.795 53 42.75 51.955 42.75 50.625C42.75 49.295 43.795 48.25 45.125 48.25C46.455 48.25 47.5 49.295 47.5 50.625C47.5 51.955 46.455 53 45.125 53ZM40.375 53C39.045 53 38 51.955 38 50.625C38 49.295 39.045 48.25 40.375 48.25C41.705 48.25 42.75 49.295 42.75 50.625C42.75 51.955 41.705 53 40.375 53ZM68.875 19.75C67.545 19.75 66.5 18.705 66.5 17.375C66.5 16.045 67.545 15 68.875 15C70.205 15 71.25 16.045 71.25 17.375C71.25 18.705 70.205 19.75 68.875 19.75ZM73.625 19.75C72.295 19.75 71.25 18.705 71.25 17.375C71.25 16.045 72.295 15 73.625 15C74.955 15 76 16.045 76 17.375C76 18.705 74.955 19.75 73.625 19.75ZM78.375 19.75C77.045 19.75 76 18.705 76 17.375C76 16.045 77.045 15 78.375 15C79.705 15 80.75 16.045 80.75 17.375C80.75 18.705 79.705 19.75 78.375 19.75ZM83.125 19.75C81.795 19.75 80.75 18.705 80.75 17.375C80.75 16.045 81.795 15 83.125 15C84.455 15 85.5 16.045 85.5 17.375C85.5 18.705 84.455 19.75 83.125 19.75ZM83.125 24.5C81.795 24.5 80.75 23.455 80.75 22.125C80.75 20.795 81.795 19.75 83.125 19.75C84.455 19.75 85.5 20.795 85.5 22.125C85.5 23.455 84.455 24.5 83.125 24.5ZM87.875 24.5C86.545 24.5 85.5 23.455 85.5 22.125C85.5 20.795 86.545 19.75 87.875 19.75C89.205 19.75 90.25 20.795 90.25 22.125C90.25 23.455 89.205 24.5 87.875 24.5ZM78.375 24.5C77.045 24.5 76 23.455 76 22.125C76 20.795 77.045 19.75 78.375 19.75C79.705 19.75 80.75 20.795 80.75 22.125C80.75 23.455 79.705 24.5 78.375 24.5ZM73.625 24.5C72.295 24.5 71.25 23.455 71.25 22.125C71.25 20.795 72.295 19.75 73.625 19.75C74.955 19.75 76 20.795 76 22.125C76 23.455 74.955 24.5 73.625 24.5ZM68.875 24.5C67.545 24.5 66.5 23.455 66.5 22.125C66.5 20.795 67.545 19.75 68.875 19.75C70.205 19.75 71.25 20.795 71.25 22.125C71.25 23.455 70.205 24.5 68.875 24.5ZM64.125 24.5C62.795 24.5 61.75 23.455 61.75 22.125C61.75 20.795 62.795 19.75 64.125 19.75C65.455 19.75 66.5 20.795 66.5 22.125C66.5 23.455 65.455 24.5 64.125 24.5ZM64.125 29.25C62.795 29.25 61.75 28.205 61.75 26.875C61.75 25.545 62.795 24.5 64.125 24.5C65.455 24.5 66.5 25.545 66.5 26.875C66.5 28.205 65.455 29.25 64.125 29.25ZM59.375 29.25C58.045 29.25 57 28.205 57 26.875C57 25.545 58.045 24.5 59.375 24.5C60.705 24.5 61.75 25.545 61.75 26.875C61.75 28.205 60.705 29.25 59.375 29.25ZM87.875 29.25C86.545 29.25 85.5 28.205 85.5 26.875C85.5 25.545 86.545 24.5 87.875 24.5C89.205 24.5 90.25 25.545 90.25 26.875C90.25 28.205 89.205 29.25 87.875 29.25ZM83.125 29.25C81.795 29.25 80.75 28.205 80.75 26.875C80.75 25.545 81.795 24.5 83.125 24.5C84.455 24.5 85.5 25.545 85.5 26.875C85.5 28.205 84.455 29.25 83.125 29.25ZM68.875 29.25C67.545 29.25 66.5 28.205 66.5 26.875C66.5 25.545 67.545 24.5 68.875 24.5C70.205 24.5 71.25 25.545 71.25 26.875C71.25 28.205 70.205 29.25 68.875 29.25ZM64.125 34C62.795 34 61.75 32.955 61.75 31.625C61.75 30.295 62.795 29.25 64.125 29.25C65.455 29.25 66.5 30.295 66.5 31.625C66.5 32.955 65.455 34 64.125 34ZM59.375 34C58.045 34 57 32.955 57 31.625C57 30.295 58.045 29.25 59.375 29.25C60.705 29.25 61.75 30.295 61.75 31.625C61.75 32.955 60.705 34 59.375 34ZM64.125 38.75C62.795 38.75 61.75 37.705 61.75 36.375C61.75 35.045 62.795 34 64.125 34C65.455 34 66.5 35.045 66.5 36.375C66.5 37.705 65.455 38.75 64.125 38.75ZM59.375 38.75C58.045 38.75 57 37.705 57 36.375C57 35.045 58.045 34 59.375 34C60.705 34 61.75 35.045 61.75 36.375C61.75 37.705 60.705 38.75 59.375 38.75ZM87.875 43.5C86.545 43.5 85.5 42.455 85.5 41.125C85.5 39.795 86.545 38.75 87.875 38.75C89.205 38.75 90.25 39.795 90.25 41.125C90.25 42.455 89.205 43.5 87.875 43.5ZM64.125 43.5C62.795 43.5 61.75 42.455 61.75 41.125C61.75 39.795 62.795 38.75 64.125 38.75C65.455 38.75 66.5 39.795 66.5 41.125C66.5 42.455 65.455 43.5 64.125 43.5ZM59.375 43.5C58.045 43.5 57 42.455 57 41.125C57 39.795 58.045 38.75 59.375 38.75C60.705 38.75 61.75 39.795 61.75 41.125C61.75 42.455 60.705 43.5 59.375 43.5ZM83.125 43.5C81.795 43.5 80.75 42.455 80.75 41.125C80.75 39.795 81.795 38.75 83.125 38.75C84.455 38.75 85.5 39.795 85.5 41.125C85.5 42.455 84.455 43.5 83.125 43.5ZM68.875 43.5C67.545 43.5 66.5 42.455 66.5 41.125C66.5 39.795 67.545 38.75 68.875 38.75C70.205 38.75 71.25 39.795 71.25 41.125C71.25 42.455 70.205 43.5 68.875 43.5ZM68.875 48.25C67.545 48.25 66.5 47.205 66.5 45.875C66.5 44.545 67.545 43.5 68.875 43.5C70.205 43.5 71.25 44.545 71.25 45.875C71.25 47.205 70.205 48.25 68.875 48.25ZM83.125 48.25C81.795 48.25 80.75 47.205 80.75 45.875C80.75 44.545 81.795 43.5 83.125 43.5C84.455 43.5 85.5 44.545 85.5 45.875C85.5 47.205 84.455 48.25 83.125 48.25ZM73.625 48.25C72.295 48.25 71.25 47.205 71.25 45.875C71.25 44.545 72.295 43.5 73.625 43.5C74.955 43.5 76 44.545 76 45.875C76 47.205 74.955 48.25 73.625 48.25ZM87.875 48.25C86.545 48.25 85.5 47.205 85.5 45.875C85.5 44.545 86.545 43.5 87.875 43.5C89.205 43.5 90.25 44.545 90.25 45.875C90.25 47.205 89.205 48.25 87.875 48.25ZM78.375 48.25C77.045 48.25 76 47.205 76 45.875C76 44.545 77.045 43.5 78.375 43.5C79.705 43.5 80.75 44.545 80.75 45.875C80.75 47.205 79.705 48.25 78.375 48.25ZM64.125 48.25C62.795 48.25 61.75 47.205 61.75 45.875C61.75 44.545 62.795 43.5 64.125 43.5C65.455 43.5 66.5 44.545 66.5 45.875C66.5 47.205 65.455 48.25 64.125 48.25ZM68.875 53C67.545 53 66.5 51.955 66.5 50.625C66.5 49.295 67.545 48.25 68.875 48.25C70.205 48.25 71.25 49.295 71.25 50.625C71.25 51.955 70.205 53 68.875 53ZM73.625 53C72.295 53 71.25 51.955 71.25 50.625C71.25 49.295 72.295 48.25 73.625 48.25C74.955 48.25 76 49.295 76 50.625C76 51.955 74.955 53 73.625 53ZM83.125 53C81.795 53 80.75 51.955 80.75 50.625C80.75 49.295 81.795 48.25 83.125 48.25C84.455 48.25 85.5 49.295 85.5 50.625C85.5 51.955 84.455 53 83.125 53ZM78.375 53C77.045 53 76 51.955 76 50.625C76 49.295 77.045 48.25 78.375 48.25C79.705 48.25 80.75 49.295 80.75 50.625C80.75 51.955 79.705 53 78.375 53Z" fill="#0C0C0C"/>
</svg>
