<svg width="175" height="70" viewBox="0 0 175 70" fill="none" xmlns="http://www.w3.org/2000/svg">
<path d="M24.5 7C22.54 7 21 5.46 21 3.5C21 1.54 22.54 0 24.5 0C26.46 0 28 1.54 28 3.5C28 5.46 26.46 7 24.5 7ZM17.5 14C15.54 14 14 12.46 14 10.5C14 8.54 15.54 7 17.5 7C19.46 7 21 8.54 21 10.5C21 12.46 19.46 14 17.5 14ZM24.5 14C22.54 14 21 12.46 21 10.5C21 8.54 22.54 7 24.5 7C26.46 7 28 8.54 28 10.5C28 12.46 26.46 14 24.5 14ZM10.5 21C8.54 21 7 19.46 7 17.5C7 15.54 8.54 14 10.5 14C12.46 14 14 15.54 14 17.5C14 19.46 12.46 21 10.5 21ZM24.5 21C22.54 21 21 19.46 21 17.5C21 15.54 22.54 14 24.5 14C26.46 14 28 15.54 28 17.5C28 19.46 26.46 21 24.5 21ZM45.5 21C43.54 21 42 19.46 42 17.5C42 15.54 43.54 14 45.5 14C47.46 14 49 15.54 49 17.5C49 19.46 47.46 21 45.5 21ZM38.5 21C36.54 21 35 19.46 35 17.5C35 15.54 36.54 14 38.5 14C40.46 14 42 15.54 42 17.5C42 19.46 40.46 21 38.5 21ZM31.5 21C29.54 21 28 19.46 28 17.5C28 15.54 29.54 14 31.5 14C33.46 14 35 15.54 35 17.5C35 19.46 33.46 21 31.5 21ZM17.5 21C15.54 21 14 19.46 14 17.5C14 15.54 15.54 14 17.5 14C19.46 14 21 15.54 21 17.5C21 19.46 19.46 21 17.5 21ZM3.5 28C1.54 28 0 26.46 0 24.5C0 22.54 1.54 21 3.5 21C5.46 21 7 22.54 7 24.5C7 26.46 5.46 28 3.5 28ZM24.5 28C22.54 28 21 26.46 21 24.5C21 22.54 22.54 21 24.5 21C26.46 21 28 22.54 28 24.5C28 26.46 26.46 28 24.5 28ZM38.5 28C36.54 28 35 26.46 35 24.5C35 22.54 36.54 21 38.5 21C40.46 21 42 22.54 42 24.5C42 26.46 40.46 28 38.5 28ZM31.5 28C29.54 28 28 26.46 28 24.5C28 22.54 29.54 21 31.5 21C33.46 21 35 22.54 35 24.5C35 26.46 33.46 28 31.5 28ZM10.5 28C8.54 28 7 26.46 7 24.5C7 22.54 8.54 21 10.5 21C12.46 21 14 22.54 14 24.5C14 26.46 12.46 28 10.5 28ZM17.5 28C15.54 28 14 26.46 14 24.5C14 22.54 15.54 21 17.5 21C19.46 21 21 22.54 21 24.5C21 26.46 19.46 28 17.5 28ZM24.5 35C22.54 35 21 33.46 21 31.5C21 29.54 22.54 28 24.5 28C26.46 28 28 29.54 28 31.5C28 33.46 26.46 35 24.5 35ZM17.5 35C15.54 35 14 33.46 14 31.5C14 29.54 15.54 28 17.5 28C19.46 28 21 29.54 21 31.5C21 33.46 19.46 35 17.5 35ZM24.5 42C22.54 42 21 40.46 21 38.5C21 36.54 22.54 35 24.5 35C26.46 35 28 36.54 28 38.5C28 40.46 26.46 42 24.5 42ZM17.5 42C15.54 42 14 40.46 14 38.5C14 36.54 15.54 35 17.5 35C19.46 35 21 36.54 21 38.5C21 40.46 19.46 42 17.5 42ZM17.5 49C15.54 49 14 47.46 14 45.5C14 43.54 15.54 42 17.5 42C19.46 42 21 43.54 21 45.5C21 47.46 19.46 49 17.5 49ZM24.5 49C22.54 49 21 47.46 21 45.5C21 43.54 22.54 42 24.5 42C26.46 42 28 43.54 28 45.5C28 47.46 26.46 49 24.5 49ZM17.5 56C15.54 56 14 54.46 14 52.5C14 50.54 15.54 49 17.5 49C19.46 49 21 50.54 21 52.5C21 54.46 19.46 56 17.5 56ZM24.5 56C22.54 56 21 54.46 21 52.5C21 50.54 22.54 49 24.5 49C26.46 49 28 50.54 28 52.5C28 54.46 26.46 56 24.5 56ZM17.5 63C15.54 63 14 61.46 14 59.5C14 57.54 15.54 56 17.5 56C19.46 56 21 57.54 21 59.5C21 61.46 19.46 63 17.5 63ZM24.5 63C22.54 63 21 61.46 21 59.5C21 57.54 22.54 56 24.5 56C26.46 56 28 57.54 28 59.5C28 61.46 26.46 63 24.5 63ZM31.5 63C29.54 63 28 61.46 28 59.5C28 57.54 29.54 56 31.5 56C33.46 56 35 57.54 35 59.5C35 61.46 33.46 63 31.5 63ZM38.5 63C36.54 63 35 61.46 35 59.5C35 57.54 36.54 56 38.5 56C40.46 56 42 57.54 42 59.5C42 61.46 40.46 63 38.5 63ZM45.5 63C43.54 63 42 61.46 42 59.5C42 57.54 43.54 56 45.5 56C47.46 56 49 57.54 49 59.5C49 61.46 47.46 63 45.5 63ZM24.5 70C22.54 70 21 68.46 21 66.5C21 64.54 22.54 63 24.5 63C26.46 63 28 64.54 28 66.5C28 68.46 26.46 70 24.5 70ZM31.5 70C29.54 70 28 68.46 28 66.5C28 64.54 29.54 63 31.5 63C33.46 63 35 64.54 35 66.5C35 68.46 33.46 70 31.5 70ZM38.5 70C36.54 70 35 68.46 35 66.5C35 64.54 36.54 63 38.5 63C40.46 63 42 64.54 42 66.5C42 68.46 40.46 70 38.5 70ZM73.5 21C71.54 21 70 19.46 70 17.5C70 15.54 71.54 14 73.5 14C75.46 14 77 15.54 77 17.5C77 19.46 75.46 21 73.5 21ZM80.5 21C78.54 21 77 19.46 77 17.5C77 15.54 78.54 14 80.5 14C82.46 14 84 15.54 84 17.5C84 19.46 82.46 21 80.5 21ZM87.5 21C85.54 21 84 19.46 84 17.5C84 15.54 85.54 14 87.5 14C89.46 14 91 15.54 91 17.5C91 19.46 89.46 21 87.5 21ZM94.5 21C92.54 21 91 19.46 91 17.5C91 15.54 92.54 14 94.5 14C96.46 14 98 15.54 98 17.5C98 19.46 96.46 21 94.5 21ZM66.5 28C64.54 28 63 26.46 63 24.5C63 22.54 64.54 21 66.5 21C68.46 21 70 22.54 70 24.5C70 26.46 68.46 28 66.5 28ZM73.5 28C71.54 28 70 26.46 70 24.5C70 22.54 71.54 21 73.5 21C75.46 21 77 22.54 77 24.5C77 26.46 75.46 28 73.5 28ZM80.5 28C78.54 28 77 26.46 77 24.5C77 22.54 78.54 21 80.5 21C82.46 21 84 22.54 84 24.5C84 26.46 82.46 28 80.5 28ZM87.5 28C85.54 28 84 26.46 84 24.5C84 22.54 85.54 21 87.5 21C89.46 21 91 22.54 91 24.5C91 26.46 89.46 28 87.5 28ZM94.5 28C92.54 28 91 26.46 91 24.5C91 22.54 92.54 21 94.5 21C96.46 21 98 22.54 98 24.5C98 26.46 96.46 28 94.5 28ZM101.5 28C99.54 28 98 26.46 98 24.5C98 22.54 99.54 21 101.5 21C103.46 21 105 22.54 105 24.5C105 26.46 103.46 28 101.5 28ZM59.5 35C57.54 35 56 33.46 56 31.5C56 29.54 57.54 28 59.5 28C61.46 28 63 29.54 63 31.5C63 33.46 61.46 35 59.5 35ZM108.5 35C106.54 35 105 33.46 105 31.5C105 29.54 106.54 28 108.5 28C110.46 28 112 29.54 112 31.5C112 33.46 110.46 35 108.5 35ZM101.5 35C99.54 35 98 33.46 98 31.5C98 29.54 99.54 28 101.5 28C103.46 28 105 29.54 105 31.5C105 33.46 103.46 35 101.5 35ZM94.5 35C92.54 35 91 33.46 91 31.5C91 29.54 92.54 28 94.5 28C96.46 28 98 29.54 98 31.5C98 33.46 96.46 35 94.5 35ZM73.5 35C71.54 35 70 33.46 70 31.5C70 29.54 71.54 28 73.5 28C75.46 28 77 29.54 77 31.5C77 33.46 75.46 35 73.5 35ZM66.5 35C64.54 35 63 33.46 63 31.5C63 29.54 64.54 28 66.5 28C68.46 28 70 29.54 70 31.5C70 33.46 68.46 35 66.5 35ZM66.5 42C64.54 42 63 40.46 63 38.5C63 36.54 64.54 35 66.5 35C68.46 35 70 36.54 70 38.5C70 40.46 68.46 42 66.5 42ZM59.5 42C57.54 42 56 40.46 56 38.5C56 36.54 57.54 35 59.5 35C61.46 35 63 36.54 63 38.5C63 40.46 61.46 42 59.5 42ZM108.5 42C106.54 42 105 40.46 105 38.5C105 36.54 106.54 35 108.5 35C110.46 35 112 36.54 112 38.5C112 40.46 110.46 42 108.5 42ZM101.5 42C99.54 42 98 40.46 98 38.5C98 36.54 99.54 35 101.5 35C103.46 35 105 36.54 105 38.5C105 40.46 103.46 42 101.5 42ZM66.5 49C64.54 49 63 47.46 63 45.5C63 43.54 64.54 42 66.5 42C68.46 42 70 43.54 70 45.5C70 47.46 68.46 49 66.5 49ZM59.5 49C57.54 49 56 47.46 56 45.5C56 43.54 57.54 42 59.5 42C61.46 42 63 43.54 63 45.5C63 47.46 61.46 49 59.5 49ZM108.5 49C106.54 49 105 47.46 105 45.5C105 43.54 106.54 42 108.5 42C110.46 42 112 43.54 112 45.5C112 47.46 110.46 49 108.5 49ZM101.5 49C99.54 49 98 47.46 98 45.5C98 43.54 99.54 42 101.5 42C103.46 42 105 43.54 105 45.5C105 47.46 103.46 49 101.5 49ZM94.5 56C92.54 56 91 54.46 91 52.5C91 50.54 92.54 49 94.5 49C96.46 49 98 50.54 98 52.5C98 54.46 96.46 56 94.5 56ZM101.5 56C99.54 56 98 54.46 98 52.5C98 50.54 99.54 49 101.5 49C103.46 49 105 50.54 105 52.5C105 54.46 103.46 56 101.5 56ZM73.5 56C71.54 56 70 54.46 70 52.5C70 50.54 71.54 49 73.5 49C75.46 49 77 50.54 77 52.5C77 54.46 75.46 56 73.5 56ZM108.5 56C106.54 56 105 54.46 105 52.5C105 50.54 106.54 49 108.5 49C110.46 49 112 50.54 112 52.5C112 54.46 110.46 56 108.5 56ZM66.5 56C64.54 56 63 54.46 63 52.5C63 50.54 64.54 49 66.5 49C68.46 49 70 50.54 70 52.5C70 54.46 68.46 56 66.5 56ZM59.5 56C57.54 56 56 54.46 56 52.5C56 50.54 57.54 49 59.5 49C61.46 49 63 50.54 63 52.5C63 54.46 61.46 56 59.5 56ZM94.5 63C92.54 63 91 61.46 91 59.5C91 57.54 92.54 56 94.5 56C96.46 56 98 57.54 98 59.5C98 61.46 96.46 63 94.5 63ZM101.5 63C99.54 63 98 61.46 98 59.5C98 57.54 99.54 56 101.5 56C103.46 56 105 57.54 105 59.5C105 61.46 103.46 63 101.5 63ZM87.5 63C85.54 63 84 61.46 84 59.5C84 57.54 85.54 56 87.5 56C89.46 56 91 57.54 91 59.5C91 61.46 89.46 63 87.5 63ZM80.5 63C78.54 63 77 61.46 77 59.5C77 57.54 78.54 56 80.5 56C82.46 56 84 57.54 84 59.5C84 61.46 82.46 63 80.5 63ZM73.5 63C71.54 63 70 61.46 70 59.5C70 57.54 71.54 56 73.5 56C75.46 56 77 57.54 77 59.5C77 61.46 75.46 63 73.5 63ZM66.5 63C64.54 63 63 61.46 63 59.5C63 57.54 64.54 56 66.5 56C68.46 56 70 57.54 70 59.5C70 61.46 68.46 63 66.5 63ZM94.5 70C92.54 70 91 68.46 91 66.5C91 64.54 92.54 63 94.5 63C96.46 63 98 64.54 98 66.5C98 68.46 96.46 70 94.5 70ZM87.5 70C85.54 70 84 68.46 84 66.5C84 64.54 85.54 63 87.5 63C89.46 63 91 64.54 91 66.5C91 68.46 89.46 70 87.5 70ZM80.5 70C78.54 70 77 68.46 77 66.5C77 64.54 78.54 63 80.5 63C82.46 63 84 64.54 84 66.5C84 68.46 82.46 70 80.5 70ZM73.5 70C71.54 70 70 68.46 70 66.5C70 64.54 71.54 63 73.5 63C75.46 63 77 64.54 77 66.5C77 68.46 75.46 70 73.5 70ZM157.5 21C155.54 21 154 19.46 154 17.5C154 15.54 155.54 14 157.5 14C159.46 14 161 15.54 161 17.5C161 19.46 159.46 21 157.5 21ZM150.5 21C148.54 21 147 19.46 147 17.5C147 15.54 148.54 14 150.5 14C152.46 14 154 15.54 154 17.5C154 19.46 152.46 21 150.5 21ZM143.5 21C141.54 21 140 19.46 140 17.5C140 15.54 141.54 14 143.5 14C145.46 14 147 15.54 147 17.5C147 19.46 145.46 21 143.5 21ZM157.5 28C155.54 28 154 26.46 154 24.5C154 22.54 155.54 21 157.5 21C159.46 21 161 22.54 161 24.5C161 26.46 159.46 28 157.5 28ZM136.5 28C134.54 28 133 26.46 133 24.5C133 22.54 134.54 21 136.5 21C138.46 21 140 22.54 140 24.5C140 26.46 138.46 28 136.5 28ZM164.5 28C162.54 28 161 26.46 161 24.5C161 22.54 162.54 21 164.5 21C166.46 21 168 22.54 168 24.5C168 26.46 166.46 28 164.5 28ZM150.5 28C148.54 28 147 26.46 147 24.5C147 22.54 148.54 21 150.5 21C152.46 21 154 22.54 154 24.5C154 26.46 152.46 28 150.5 28ZM143.5 28C141.54 28 140 26.46 140 24.5C140 22.54 141.54 21 143.5 21C145.46 21 147 22.54 147 24.5C147 26.46 145.46 28 143.5 28ZM129.5 35C127.54 35 126 33.46 126 31.5C126 29.54 127.54 28 129.5 28C131.46 28 133 29.54 133 31.5C133 33.46 131.46 35 129.5 35ZM164.5 35C162.54 35 161 33.46 161 31.5C161 29.54 162.54 28 164.5 28C166.46 28 168 29.54 168 31.5C168 33.46 166.46 35 164.5 35ZM136.5 35C134.54 35 133 33.46 133 31.5C133 29.54 134.54 28 136.5 28C138.46 28 140 29.54 140 31.5C140 33.46 138.46 35 136.5 35ZM171.5 35C169.54 35 168 33.46 168 31.5C168 29.54 169.54 28 171.5 28C173.46 28 175 29.54 175 31.5C175 33.46 173.46 35 171.5 35ZM136.5 42C134.54 42 133 40.46 133 38.5C133 36.54 134.54 35 136.5 35C138.46 35 140 36.54 140 38.5C140 40.46 138.46 42 136.5 42ZM164.5 42C162.54 42 161 40.46 161 38.5C161 36.54 162.54 35 164.5 35C166.46 35 168 36.54 168 38.5C168 40.46 166.46 42 164.5 42ZM171.5 42C169.54 42 168 40.46 168 38.5C168 36.54 169.54 35 171.5 35C173.46 35 175 36.54 175 38.5C175 40.46 173.46 42 171.5 42ZM129.5 42C127.54 42 126 40.46 126 38.5C126 36.54 127.54 35 129.5 35C131.46 35 133 36.54 133 38.5C133 40.46 131.46 42 129.5 42ZM143.5 42C141.54 42 140 40.46 140 38.5C140 36.54 141.54 35 143.5 35C145.46 35 147 36.54 147 38.5C147 40.46 145.46 42 143.5 42ZM150.5 42C148.54 42 147 40.46 147 38.5C147 36.54 148.54 35 150.5 35C152.46 35 154 36.54 154 38.5C154 40.46 152.46 42 150.5 42ZM157.5 42C155.54 42 154 40.46 154 38.5C154 36.54 155.54 35 157.5 35C159.46 35 161 36.54 161 38.5C161 40.46 159.46 42 157.5 42ZM136.5 49C134.54 49 133 47.46 133 45.5C133 43.54 134.54 42 136.5 42C138.46 42 140 43.54 140 45.5C140 47.46 138.46 49 136.5 49ZM143.5 49C141.54 49 140 47.46 140 45.5C140 43.54 141.54 42 143.5 42C145.46 42 147 43.54 147 45.5C147 47.46 145.46 49 143.5 49ZM150.5 49C148.54 49 147 47.46 147 45.5C147 43.54 148.54 42 150.5 42C152.46 42 154 43.54 154 45.5C154 47.46 152.46 49 150.5 49ZM157.5 49C155.54 49 154 47.46 154 45.5C154 43.54 155.54 42 157.5 42C159.46 42 161 43.54 161 45.5C161 47.46 159.46 49 157.5 49ZM164.5 49C162.54 49 161 47.46 161 45.5C161 43.54 162.54 42 164.5 42C166.46 42 168 43.54 168 45.5C168 47.46 166.46 49 164.5 49ZM171.5 49C169.54 49 168 47.46 168 45.5C168 43.54 169.54 42 171.5 42C173.46 42 175 43.54 175 45.5C175 47.46 173.46 49 171.5 49ZM129.5 49C127.54 49 126 47.46 126 45.5C126 43.54 127.54 42 129.5 42C131.46 42 133 43.54 133 45.5C133 47.46 131.46 49 129.5 49ZM136.5 56C134.54 56 133 54.46 133 52.5C133 50.54 134.54 49 136.5 49C138.46 49 140 50.54 140 52.5C140 54.46 138.46 56 136.5 56ZM129.5 56C127.54 56 126 54.46 126 52.5C126 50.54 127.54 49 129.5 49C131.46 49 133 50.54 133 52.5C133 54.46 131.46 56 129.5 56ZM136.5 63C134.54 63 133 61.46 133 59.5C133 57.54 134.54 56 136.5 56C138.46 56 140 57.54 140 59.5C140 61.46 138.46 63 136.5 63ZM143.5 63C141.54 63 140 61.46 140 59.5C140 57.54 141.54 56 143.5 56C145.46 56 147 57.54 147 59.5C147 61.46 145.46 63 143.5 63ZM150.5 63C148.54 63 147 61.46 147 59.5C147 57.54 148.54 56 150.5 56C152.46 56 154 57.54 154 59.5C154 61.46 152.46 63 150.5 63ZM157.5 63C155.54 63 154 61.46 154 59.5C154 57.54 155.54 56 157.5 56C159.46 56 161 57.54 161 59.5C161 61.46 159.46 63 157.5 63ZM164.5 63C162.54 63 161 61.46 161 59.5C161 57.54 162.54 56 164.5 56C166.46 56 168 57.54 168 59.5C168 61.46 166.46 63 164.5 63ZM171.5 63C169.54 63 168 61.46 168 59.5C168 57.54 169.54 56 171.5 56C173.46 56 175 57.54 175 59.5C175 61.46 173.46 63 171.5 63ZM143.5 70C141.54 70 140 68.46 140 66.5C140 64.54 141.54 63 143.5 63C145.46 63 147 64.54 147 66.5C147 68.46 145.46 70 143.5 70ZM150.5 70C148.54 70 147 68.46 147 66.5C147 64.54 148.54 63 150.5 63C152.46 63 154 64.54 154 66.5C154 68.46 152.46 70 150.5 70ZM157.5 70C155.54 70 154 68.46 154 66.5C154 64.54 155.54 63 157.5 63C159.46 63 161 64.54 161 66.5C161 68.46 159.46 70 157.5 70ZM164.5 70C162.54 70 161 68.46 161 66.5C161 64.54 162.54 63 164.5 63C166.46 63 168 64.54 168 66.5C168 68.46 166.46 70 164.5 70Z" fill="#0C0C0C"/>
</svg>
