<svg width="42" height="45" viewBox="0 0 42 45" fill="none" xmlns="http://www.w3.org/2000/svg">
<path d="M7.5 4.5C6.24 4.5 5.25 3.51 5.25 2.25C5.25 0.990001 6.24 0 7.5 0C8.76 0 9.75 0.990001 9.75 2.25C9.75 3.51 8.76 4.5 7.5 4.5ZM3 4.5C1.74 4.5 0.75 3.51 0.75 2.25C0.75 0.990001 1.74 0 3 0C4.26 0 5.25 0.990001 5.25 2.25C5.25 3.51 4.26 4.5 3 4.5ZM34.5 4.5C33.24 4.5 32.25 3.51 32.25 2.25C32.25 0.990001 33.24 0 34.5 0C35.76 0 36.75 0.990001 36.75 2.25C36.75 3.51 35.76 4.5 34.5 4.5ZM39 4.5C37.74 4.5 36.75 3.51 36.75 2.25C36.75 0.990001 37.74 0 39 0C40.26 0 41.25 0.990001 41.25 2.25C41.25 3.51 40.26 4.5 39 4.5ZM39 9C37.74 9 36.75 8.01 36.75 6.75C36.75 5.49 37.74 4.5 39 4.5C40.26 4.5 41.25 5.49 41.25 6.75C41.25 8.01 40.26 9 39 9ZM30 9C28.74 9 27.75 8.01 27.75 6.75C27.75 5.49 28.74 4.5 30 4.5C31.26 4.5 32.25 5.49 32.25 6.75C32.25 8.01 31.26 9 30 9ZM12 9C10.74 9 9.75 8.01 9.75 6.75C9.75 5.49 10.74 4.5 12 4.5C13.26 4.5 14.25 5.49 14.25 6.75C14.25 8.01 13.26 9 12 9ZM7.5 9C6.24 9 5.25 8.01 5.25 6.75C5.25 5.49 6.24 4.5 7.5 4.5C8.76 4.5 9.75 5.49 9.75 6.75C9.75 8.01 8.76 9 7.5 9ZM3 9C1.74 9 0.75 8.01 0.75 6.75C0.75 5.49 1.74 4.5 3 4.5C4.26 4.5 5.25 5.49 5.25 6.75C5.25 8.01 4.26 9 3 9ZM34.5 9C33.24 9 32.25 8.01 32.25 6.75C32.25 5.49 33.24 4.5 34.5 4.5C35.76 4.5 36.75 5.49 36.75 6.75C36.75 8.01 35.76 9 34.5 9ZM12 13.5C10.74 13.5 9.75 12.51 9.75 11.25C9.75 9.99 10.74 9 12 9C13.26 9 14.25 9.99 14.25 11.25C14.25 12.51 13.26 13.5 12 13.5ZM30 13.5C28.74 13.5 27.75 12.51 27.75 11.25C27.75 9.99 28.74 9 30 9C31.26 9 32.25 9.99 32.25 11.25C32.25 12.51 31.26 13.5 30 13.5ZM7.5 13.5C6.24 13.5 5.25 12.51 5.25 11.25C5.25 9.99 6.24 9 7.5 9C8.76 9 9.75 9.99 9.75 11.25C9.75 12.51 8.76 13.5 7.5 13.5ZM34.5 13.5C33.24 13.5 32.25 12.51 32.25 11.25C32.25 9.99 33.24 9 34.5 9C35.76 9 36.75 9.99 36.75 11.25C36.75 12.51 35.76 13.5 34.5 13.5ZM25.5 18C24.24 18 23.25 17.01 23.25 15.75C23.25 14.49 24.24 13.5 25.5 13.5C26.76 13.5 27.75 14.49 27.75 15.75C27.75 17.01 26.76 18 25.5 18ZM16.5 18C15.24 18 14.25 17.01 14.25 15.75C14.25 14.49 15.24 13.5 16.5 13.5C17.76 13.5 18.75 14.49 18.75 15.75C18.75 17.01 17.76 18 16.5 18ZM12 18C10.74 18 9.75 17.01 9.75 15.75C9.75 14.49 10.74 13.5 12 13.5C13.26 13.5 14.25 14.49 14.25 15.75C14.25 17.01 13.26 18 12 18ZM30 18C28.74 18 27.75 17.01 27.75 15.75C27.75 14.49 28.74 13.5 30 13.5C31.26 13.5 32.25 14.49 32.25 15.75C32.25 17.01 31.26 18 30 18ZM7.5 18C6.24 18 5.25 17.01 5.25 15.75C5.25 14.49 6.24 13.5 7.5 13.5C8.76 13.5 9.75 14.49 9.75 15.75C9.75 17.01 8.76 18 7.5 18ZM34.5 18C33.24 18 32.25 17.01 32.25 15.75C32.25 14.49 33.24 13.5 34.5 13.5C35.76 13.5 36.75 14.49 36.75 15.75C36.75 17.01 35.76 18 34.5 18ZM21 22.5C19.74 22.5 18.75 21.51 18.75 20.25C18.75 18.99 19.74 18 21 18C22.26 18 23.25 18.99 23.25 20.25C23.25 21.51 22.26 22.5 21 22.5ZM16.5 22.5C15.24 22.5 14.25 21.51 14.25 20.25C14.25 18.99 15.24 18 16.5 18C17.76 18 18.75 18.99 18.75 20.25C18.75 21.51 17.76 22.5 16.5 22.5ZM25.5 22.5C24.24 22.5 23.25 21.51 23.25 20.25C23.25 18.99 24.24 18 25.5 18C26.76 18 27.75 18.99 27.75 20.25C27.75 21.51 26.76 22.5 25.5 22.5ZM30 22.5C28.74 22.5 27.75 21.51 27.75 20.25C27.75 18.99 28.74 18 30 18C31.26 18 32.25 18.99 32.25 20.25C32.25 21.51 31.26 22.5 30 22.5ZM12 22.5C10.74 22.5 9.75 21.51 9.75 20.25C9.75 18.99 10.74 18 12 18C13.26 18 14.25 18.99 14.25 20.25C14.25 21.51 13.26 22.5 12 22.5ZM21 27C19.74 27 18.75 26.01 18.75 24.75C18.75 23.49 19.74 22.5 21 22.5C22.26 22.5 23.25 23.49 23.25 24.75C23.25 26.01 22.26 27 21 27ZM30 27C28.74 27 27.75 26.01 27.75 24.75C27.75 23.49 28.74 22.5 30 22.5C31.26 22.5 32.25 23.49 32.25 24.75C32.25 26.01 31.26 27 30 27ZM12 27C10.74 27 9.75 26.01 9.75 24.75C9.75 23.49 10.74 22.5 12 22.5C13.26 22.5 14.25 23.49 14.25 24.75C14.25 26.01 13.26 27 12 27ZM25.5 27C24.24 27 23.25 26.01 23.25 24.75C23.25 23.49 24.24 22.5 25.5 22.5C26.76 22.5 27.75 23.49 27.75 24.75C27.75 26.01 26.76 27 25.5 27ZM16.5 27C15.24 27 14.25 26.01 14.25 24.75C14.25 23.49 15.24 22.5 16.5 22.5C17.76 22.5 18.75 23.49 18.75 24.75C18.75 26.01 17.76 27 16.5 27ZM34.5 31.5C33.24 31.5 32.25 30.51 32.25 29.25C32.25 27.99 33.24 27 34.5 27C35.76 27 36.75 27.99 36.75 29.25C36.75 30.51 35.76 31.5 34.5 31.5ZM7.5 31.5C6.24 31.5 5.25 30.51 5.25 29.25C5.25 27.99 6.24 27 7.5 27C8.76 27 9.75 27.99 9.75 29.25C9.75 30.51 8.76 31.5 7.5 31.5ZM30 31.5C28.74 31.5 27.75 30.51 27.75 29.25C27.75 27.99 28.74 27 30 27C31.26 27 32.25 27.99 32.25 29.25C32.25 30.51 31.26 31.5 30 31.5ZM12 31.5C10.74 31.5 9.75 30.51 9.75 29.25C9.75 27.99 10.74 27 12 27C13.26 27 14.25 27.99 14.25 29.25C14.25 30.51 13.26 31.5 12 31.5ZM16.5 31.5C15.24 31.5 14.25 30.51 14.25 29.25C14.25 27.99 15.24 27 16.5 27C17.76 27 18.75 27.99 18.75 29.25C18.75 30.51 17.76 31.5 16.5 31.5ZM25.5 31.5C24.24 31.5 23.25 30.51 23.25 29.25C23.25 27.99 24.24 27 25.5 27C26.76 27 27.75 27.99 27.75 29.25C27.75 30.51 26.76 31.5 25.5 31.5ZM34.5 36C33.24 36 32.25 35.01 32.25 33.75C32.25 32.49 33.24 31.5 34.5 31.5C35.76 31.5 36.75 32.49 36.75 33.75C36.75 35.01 35.76 36 34.5 36ZM7.5 36C6.24 36 5.25 35.01 5.25 33.75C5.25 32.49 6.24 31.5 7.5 31.5C8.76 31.5 9.75 32.49 9.75 33.75C9.75 35.01 8.76 36 7.5 36ZM30 36C28.74 36 27.75 35.01 27.75 33.75C27.75 32.49 28.74 31.5 30 31.5C31.26 31.5 32.25 32.49 32.25 33.75C32.25 35.01 31.26 36 30 36ZM12 36C10.74 36 9.75 35.01 9.75 33.75C9.75 32.49 10.74 31.5 12 31.5C13.26 31.5 14.25 32.49 14.25 33.75C14.25 35.01 13.26 36 12 36ZM39 40.5C37.74 40.5 36.75 39.51 36.75 38.25C36.75 36.99 37.74 36 39 36C40.26 36 41.25 36.99 41.25 38.25C41.25 39.51 40.26 40.5 39 40.5ZM3 40.5C1.74 40.5 0.75 39.51 0.75 38.25C0.75 36.99 1.74 36 3 36C4.26 36 5.25 36.99 5.25 38.25C5.25 39.51 4.26 40.5 3 40.5ZM34.5 40.5C33.24 40.5 32.25 39.51 32.25 38.25C32.25 36.99 33.24 36 34.5 36C35.76 36 36.75 36.99 36.75 38.25C36.75 39.51 35.76 40.5 34.5 40.5ZM12 40.5C10.74 40.5 9.75 39.51 9.75 38.25C9.75 36.99 10.74 36 12 36C13.26 36 14.25 36.99 14.25 38.25C14.25 39.51 13.26 40.5 12 40.5ZM30 40.5C28.74 40.5 27.75 39.51 27.75 38.25C27.75 36.99 28.74 36 30 36C31.26 36 32.25 36.99 32.25 38.25C32.25 39.51 31.26 40.5 30 40.5ZM7.5 40.5C6.24 40.5 5.25 39.51 5.25 38.25C5.25 36.99 6.24 36 7.5 36C8.76 36 9.75 36.99 9.75 38.25C9.75 39.51 8.76 40.5 7.5 40.5ZM39 45C37.74 45 36.75 44.01 36.75 42.75C36.75 41.49 37.74 40.5 39 40.5C40.26 40.5 41.25 41.49 41.25 42.75C41.25 44.01 40.26 45 39 45ZM3 45C1.74 45 0.75 44.01 0.75 42.75C0.75 41.49 1.74 40.5 3 40.5C4.26 40.5 5.25 41.49 5.25 42.75C5.25 44.01 4.26 45 3 45ZM34.5 45C33.24 45 32.25 44.01 32.25 42.75C32.25 41.49 33.24 40.5 34.5 40.5C35.76 40.5 36.75 41.49 36.75 42.75C36.75 44.01 35.76 45 34.5 45ZM7.5 45C6.24 45 5.25 44.01 5.25 42.75C5.25 41.49 6.24 40.5 7.5 40.5C8.76 40.5 9.75 41.49 9.75 42.75C9.75 44.01 8.76 45 7.5 45Z" fill="#0C0C0C"/>
</svg>
